<?xml version="1.0" encoding="iso-8859-1"?>
<!-- Uploaded to: SVG Repo, www.svgrepo.com, Generator: SVG Repo Mixer Tools -->
<svg fill="#000000" height="800px" width="800px" version="1.1" id="Layer_1" xmlns="http://www.w3.org/2000/svg" xmlns:xlink="http://www.w3.org/1999/xlink" 
	 viewBox="0 0 512 512" xml:space="preserve">
<g>
	<g>
		<path d="M255.538,178.087h-81.691V15.901h28.091c4.392,0,7.95-3.56,7.95-7.95S206.328,0,201.938,0H95.934
			c-4.392,0-7.95,3.56-7.95,7.95v216.248c0,4.391,3.559,7.95,7.95,7.95c4.392,0,7.95-3.56,7.95-7.95v-29.681v-0.53h151.654
			c83.798,0,152.244,67.489,152.577,150.443c0.14,35.049-12.375,69.356-35.239,96.603c-2.823,3.364-2.384,8.379,0.979,11.2
			c3.319,2.785,8.417,2.338,11.2-0.979c25.279-30.123,39.115-68.083,38.96-106.887C423.648,252.68,348.069,178.087,255.538,178.087z
			 M157.946,178.087h-54.062v-22.261h17.491c4.392,0,7.95-3.56,7.95-7.95s-3.559-7.95-7.95-7.95h-17.491v-18.021h17.491
			c4.392,0,7.95-3.56,7.95-7.95s-3.559-7.95-7.95-7.95h-17.491V87.983h17.491c4.392,0,7.95-3.56,7.95-7.95s-3.559-7.95-7.95-7.95
			h-17.491V54.062h17.491c4.392,0,7.95-3.56,7.95-7.95s-3.559-7.95-7.95-7.95h-17.491V15.901h54.062V178.087z"/>
	</g>
</g>
<g>
	<g>
		<path d="M360.322,465.254c-2.693-3.471-7.687-4.097-11.155-1.407c-26.797,20.798-60.073,32.252-93.698,32.252h-16.43
			c-74.525,0-135.155-60.63-135.155-135.155V266.6c0-4.391-3.559-7.95-7.95-7.95c-4.392,0-7.95,3.56-7.95,7.95v94.344
			C87.983,444.237,155.746,512,239.039,512h16.43c37.137,0,73.875-12.64,103.447-35.591
			C362.385,473.717,363.014,468.723,360.322,465.254z"/>
	</g>
</g>
<g>
	<g>
		<path d="M250.7,222.609c-67.51,0-122.435,54.924-122.435,122.435S183.189,467.478,250.7,467.478
			c67.511,0,122.435-54.924,122.435-122.435S318.21,222.609,250.7,222.609z M250.7,238.509c56.069,0,102.157,43.539,106.237,98.584
			H144.461C148.542,282.048,194.631,238.509,250.7,238.509z M250.7,451.578c-56.069,0-102.157-43.539-106.237-98.584h212.475
			C352.857,408.039,306.768,451.578,250.7,451.578z"/>
	</g>
</g>
<g>
	<g>
		<path d="M268.885,262.651l-22.425,18.976l-22.425-18.976c-5.069-4.288-13.086-0.557-13.086,6.07v50.882
			c0,4.391,3.559,7.95,7.95,7.95c4.392,0,7.95-3.56,7.95-7.95v-33.74l14.475,12.249c2.965,2.508,7.307,2.508,10.271,0l14.476-12.249
			v33.74c0,4.391,3.559,7.95,7.95,7.95c4.392,0,7.95-3.56,7.95-7.95v-50.882C281.971,262.095,273.955,258.364,268.885,262.651z"/>
	</g>
</g>
<g>
	<g>
		<path d="M231.089,362.534h-31.271c-4.392,0-7.95,3.56-7.95,7.95v50.882c0,4.391,3.559,7.95,7.95,7.95s7.95-3.56,7.95-7.95v-17.491
			h15.371c4.392,0,7.95-3.56,7.95-7.95s-3.559-7.95-7.95-7.95h-15.371v-9.54h23.321c4.392,0,7.95-3.56,7.95-7.95
			S235.48,362.534,231.089,362.534z"/>
	</g>
</g>
<g>
	<g>
		<path d="M301.582,362.534H265.54c-4.392,0-7.95,3.56-7.95,7.95s3.559,7.95,7.95,7.95h11.13v42.932c0,4.391,3.559,7.95,7.95,7.95
			c4.392,0,7.95-3.56,7.95-7.95v-42.932h9.01c4.392,0,7.95-3.56,7.95-7.95S305.972,362.534,301.582,362.534z"/>
	</g>
</g>
</svg>