<svg width="1023" height="304" xmlns="http://www.w3.org/2000/svg" xmlns:svg="http://www.w3.org/2000/svg" data-name="Layer 1">
    <defs>
     <clipPath id="clip-path">
      <path d="m271.69,158.41a126.74,126.74 0 0 0 -95.5,-122.82c0.1,-3.51 -0.31,-11.61 -5.86,-14.59c-7.17,-3.84 -31,-18.17 -39.67,-16.25s-29.93,18.69 -31.47,20.25c-1.32,1.32 -0.37,12.25 -0.08,15.32a126.71,126.71 0 1 0 94.27,235.23l39.4,-13.55l0,-9.47l1.06,-3.77a126.3,126.3 0 0 0 37.85,-90.35z" fill="none" id="svg_1"/>
     </clipPath>
    </defs>
    <title>logo-kyiv</title>
    <g class="layer">
     <title>Layer 1</title>
     <path d="m145,21.08c-75.71,0 -137.3,61.6 -137.3,137.31s61.59,137.3 137.3,137.3s137.3,-61.59 137.3,-137.3s-61.59,-137.31 -137.3,-137.31zm0,269.49c-72.89,0 -132.19,-59.3 -132.19,-132.19s59.3,-132.18 132.19,-132.18s132.19,59.3 132.19,132.19s-59.3,132.18 -132.19,132.18z" fill="#22c9ad" id="svg_2" transform="matrix(1 0 0 1 0 0)"/>
     <path d="m145,31.72a126.62,126.62 0 0 0 -109,62.16a8.23,8.23 0 1 1 -6.15,11.72a126.7,126.7 0 1 0 115.15,-73.88zm-101.6,106.8a5.59,5.59 0 1 1 -5.59,5.59a5.59,5.59 0 0 1 5.59,-5.59zm3.5,90.38a8.7,8.7 0 1 1 8.7,-8.7a8.7,8.7 0 0 1 -8.7,8.7zm10.58,-49.1a3.44,3.44 0 1 1 3.44,-3.44a3.44,3.44 0 0 1 -3.44,3.43l0,0.01zm19,-116.84a6.28,6.28 0 1 1 6.28,6.28a6.28,6.28 0 0 1 -6.24,-6.29l-0.04,0.01zm18.06,44a7.85,7.85 0 1 1 7.85,-7.85a7.85,7.85 0 0 1 -7.81,7.89l-0.04,-0.04zm100.36,-32.47a9.21,9.21 0 1 1 9.21,-9.21a9.21,9.21 0 0 1 -9.21,9.21zm16.89,61.85a9.81,9.81 0 1 1 9.81,9.81a9.81,9.81 0 0 1 -9.81,-9.81zm17.41,77.81a3.59,3.59 0 1 1 3.59,-3.59a3.59,3.59 0 0 1 -3.59,3.59zm0.89,-123.53a5.25,5.25 0 1 1 5.25,5.25a5.25,5.25 0 0 1 -5.25,-5.25zm15.27,100.38a6.4,6.4 0 1 1 6.4,-6.4a6.4,6.4 0 0 1 -6.4,6.4zm17.74,-40.26a6.4,6.4 0 1 1 6.4,-6.4a6.4,6.4 0 0 1 -6.39,6.38l-0.01,0.02z" fill="#ffd4aa" id="svg_3"/>
     <g clip-path="url(#clip-path)" id="svg_4">
      <path d="m233.34,243.84l-15.46,-18.49a2.32,2.32 0 0 0 -2.55,-0.7l-5,1.76a2.55,2.55 0 0 0 -0.35,-2.59l-0.42,-0.53c0.53,-1.36 1.47,-4.54 3.07,-12.55a3.07,3.07 0 0 0 -2.47,-3.63c0.88,-4.93 3,-17.18 3.47,-25.85c0.56,-9.24 -1.83,-13.89 -4.13,-18.39c-0.35,-0.68 -0.72,-1.41 -1.1,-2.19c2.44,-1.63 1.94,-3.21 1.24,-5.38l-0.17,-0.52c-0.56,-1.79 -1.2,-3.11 -2.45,-3.69a2.88,2.88 0 0 0 -0.46,-0.17c-0.92,-3.31 -3.21,-11 -7,-20.73c-4,-10.35 -9,-13.94 -11.31,-15.09c-1.13,-3.28 -7.07,-6.26 -12.3,-8.31c-0.63,-0.79 -2.32,-2.13 -7.42,-3.89a9.61,9.61 0 0 0 -3.06,-5a12.09,12.09 0 0 0 1.53,-5.16c1.41,-1.29 3,-4.05 3.63,-8.51c0.17,-1.17 0.34,-2.57 0.51,-4c0.25,-2.08 0.51,-4.22 0.78,-5.8c0.06,-0.14 0.11,-0.29 0.15,-0.44a12.65,12.65 0 0 0 0.56,-4a9.06,9.06 0 0 1 1.5,-5.25a11,11 0 0 0 1.39,-6.73a5,5 0 0 0 -0.09,-3.19a6.24,6.24 0 0 0 0.25,-4.25a39.46,39.46 0 0 1 -0.83,-11.84c0.51,-6.08 0.28,-13.54 -6.11,-17.24c-2.74,-1.68 -27.24,-15.69 -36.67,-15.69c-3.37,0 -12.85,6.59 -15.91,8.9c-1.26,1 -2.81,1.92 -4.46,3c-5.56,3.47 -11.86,7.41 -11.53,13.44c0.25,4.49 0.5,8.78 0.63,11a28.26,28.26 0 0 0 -5.61,2.48c-2.07,1.3 -3.09,4.68 -2.32,7.69a8.62,8.62 0 0 0 5.94,6a9,9 0 0 0 -0.5,3.18a8.13,8.13 0 0 0 1.46,4.5a4.79,4.79 0 0 1 1,2.73c0,4 0.69,6.49 2.24,7.91a4.33,4.33 0 0 0 1.59,0.94c0.18,6.49 0,11.24 -0.18,14.14a17.34,17.34 0 0 0 4.25,12.92a5.28,5.28 0 0 0 -0.62,1c-1.75,0.23 -4.66,1 -6.11,3.4l-0.82,0.43l-0.12,-0.22l-1.45,1l-3.36,1.71c-0.62,0.31 -1.53,0.67 -2.5,1.05c-3.33,1.31 -6.77,2.67 -7.76,5.1a3.56,3.56 0 0 0 -0.26,1.26c-2.17,1.89 -6.91,6.86 -9.48,15.86c-1.8,6.3 -3.76,14 -4.6,17.37a3.57,3.57 0 0 0 -3,3.81c0,0.29 0,0.79 -0.07,1.33a15.35,15.35 0 0 0 0,3.31c0.33,1.77 2,2.24 4.11,2.47a48.42,48.42 0 0 0 -0.51,10.49c0.53,9.39 2.44,22.49 3.22,27.6a3.05,3.05 0 0 0 -1.9,1.13a3.22,3.22 0 0 0 -0.63,2.59c1.64,8.88 2.59,12.23 3.1,13.62l-0.49,0.67a2.67,2.67 0 0 0 -0.18,2.86l1.44,2.62l-0.74,1.81l-12.79,-4.25a3.52,3.52 0 0 0 -4.15,1.8l-0.75,1.44l-0.16,-0.05l-0.48,1.44c-0.8,2.39 -1,4.81 3.18,6.31l6.93,2.48l5.28,1.93c0.06,0.51 0.14,1.06 0.23,1.67c0.12,0.86 0.25,1.75 0.26,2.15a2.56,2.56 0 0 0 0.85,1.78c0.35,0.32 1.35,1.23 5.3,1.24a3.38,3.38 0 0 0 2.62,1.86a25.72,25.72 0 0 0 3.61,0.13a4,4 0 0 0 2.46,1.15a26.07,26.07 0 0 0 2.94,0.17a3,3 0 0 0 0.27,0.37a3.78,3.78 0 0 0 2,1.19c-0.25,3.21 -0.35,6 0.92,7.94c-0.44,2.76 -1.65,10.74 -1.55,15a10,10 0 0 0 0.74,3.61a19.4,19.4 0 0 0 0.07,9.2c0,0.23 0.1,0.46 0.15,0.65l0.32,1.38l1.23,0c7.42,0 22.42,0 44.58,0l1.06,0l0.66,-1.73a25.58,25.58 0 0 0 1.19,-3.63a15.51,15.51 0 0 0 3.77,4.21a5.77,5.77 0 0 0 1.55,1l0.3,0.14l0.34,0l41.93,0.06l1.54,0l0,-2.27a80.13,80.13 0 0 0 -0.35,-9.47l37.92,-13.61a2.52,2.52 0 0 0 1.66,-2.37l0,-8.33a2.24,2.24 0 0 0 1.22,-2l0,-5.2l0.55,-0.45zm-49.67,-41.12a70.29,70.29 0 0 1 2.08,-7.36a12,12 0 0 0 0.22,-7.62a25.64,25.64 0 0 1 0.94,-5.44c0.32,-1.33 0.57,-2.4 0.69,-3.27c0.47,0.7 0.89,1.28 1.2,1.71c-1.11,4.48 -0.37,9.33 0.41,14.45a71.28,71.28 0 0 1 1,9a2.94,2.94 0 0 0 -3.32,3a43,43 0 0 0 2.55,12a29.21,29.21 0 0 1 -0.65,4.77a7.79,7.79 0 0 0 -0.05,3.5a9.7,9.7 0 0 0 -3,2a11.12,11.12 0 0 0 -1.89,-4.59a37.71,37.71 0 0 0 -1.12,-6.24a33.5,33.5 0 0 1 1,-7.42a18.13,18.13 0 0 0 -0.06,-8.49zm-87,17a34.07,34.07 0 0 1 -0.66,-5.24a50,50 0 0 0 2.55,-12.88l0,-0.09c0.62,2.69 1.54,5.75 1.8,6.63c0.17,3.44 0.32,10.16 -0.21,12.23a15.72,15.72 0 0 1 -1.31,3c-0.18,0.35 -0.36,0.7 -0.53,1.05a8.47,8.47 0 0 0 -1.62,-0.9a8.74,8.74 0 0 0 0.02,-3.85l-0.04,0.05zm0.15,-35.46a15.18,15.18 0 0 0 1.61,5.94a46,46 0 0 0 -0.44,8.17c0.05,0.53 0.16,1.19 0.3,1.9a3,3 0 0 0 -0.88,-1.14a2.87,2.87 0 0 0 -1.78,-0.62l-0.39,0a81.11,81.11 0 0 1 1,-9.9c0.25,-1.5 0.45,-2.96 0.62,-4.4l-0.04,0.05zm-0.18,-11.1l0,0.08l0,-0.08z" fill="#ffc745" id="svg_5"/>
      <path d="m166.14,152.46a1.6,1.6 0 0 0 1.71,1.57l2.64,-0.18a1.6,1.6 0 0 0 1.49,-1.65c-0.18,-4.94 -0.5,-17.67 0.31,-29.32c0.75,-10.84 1.11,-14.2 1.26,-15.23a27.08,27.08 0 0 0 -5,-2.28c-0.89,4.07 -2.34,22.15 -2.46,33.34c-0.09,7.04 0,11.37 0.05,13.75z" fill="#4465b0" id="svg_6"/>
      <path d="m141.27,252.47a82.84,82.84 0 0 1 -1.37,-13.53l-3.24,0.19l-1.24,0.06c0.05,8.64 1.63,26.33 2.6,30.76a12,12 0 0 0 2.6,0.22a17.31,17.31 0 0 0 2,-0.18c-0.92,-1.85 -0.74,-6.77 -0.59,-8.17a7.82,7.82 0 0 0 -0.37,-3.18l-0.06,-0.17l0.09,-0.16c0.43,-0.7 0.06,-2.97 -0.42,-5.84z" fill="#4465b0" id="svg_7"/>
      <path d="m135.92,231.32c19.73,-0.89 42.58,-5.53 45.58,-6.15a36.21,36.21 0 0 0 -1.12,-6.23l0,-0.11a35.58,35.58 0 0 1 1.07,-8.28a16.22,16.22 0 0 0 -0.13,-7.69l0,-0.09l0,0a25.26,25.26 0 0 1 -0.35,-4.46a44.43,44.43 0 0 0 -0.25,-4.48a17.7,17.7 0 0 0 -0.4,-2.2a18.44,18.44 0 0 0 -0.72,-2.12a13.54,13.54 0 0 0 -1,-2a6.4,6.4 0 0 0 -1.45,-1.7a6.45,6.45 0 0 1 1.53,1.65a13.69,13.69 0 0 1 1.11,2a18.72,18.72 0 0 1 0.82,2.12a18,18 0 0 1 0.51,2.22a44.85,44.85 0 0 1 0.45,4.51c0.06,0.85 0.11,1.71 0.21,2.54c0.4,-1.62 1,-4 1.82,-6.22a9.55,9.55 0 0 0 0.14,-6.31l0,-0.06l0,0a17.86,17.86 0 0 0 -1.4,-4.05a21.47,21.47 0 0 0 -2.2,-3.75a21.67,21.67 0 0 1 2.55,3.57a23.3,23.3 0 0 1 1.12,2.19a42.25,42.25 0 0 1 0.9,-4.41c0.42,-1.76 0.9,-3.75 0.64,-4.27l-2.59,-5.8l-0.38,0.1l-0.85,0.23a2,2 0 0 1 -0.55,0.08c-1.26,0 -1.76,-1.44 -2.24,-2.84c-0.64,-1.84 -0.64,-2.84 1.08,-3.53l0,0c-2.73,-4.65 -4.71,-14.07 -5.45,-18a1.41,1.41 0 0 0 -1.39,-1.15l-0.3,0c0,2.31 0.1,4.23 0.15,5.57a2.38,2.38 0 0 1 -2.23,2.47l-2.64,0.18l-0.17,0a2.4,2.4 0 0 1 -2.39,-2.35c0,-1.24 0,-3 -0.05,-5.39c-0.71,0 -2.39,0.36 -4.66,0.8c-6.29,1.22 -16.81,3.25 -27.36,3.25c-12,0 -17.42,-0.13 -19,-0.18c0.07,1.64 0.11,2.91 0.13,3.87a2.45,2.45 0 0 1 -0.7,1.79a2.21,2.21 0 0 1 -1.57,0.66l-0.06,0l-2.51,-0.07a2.35,2.35 0 0 1 -2.24,-2.37c0,-0.95 0,-2.18 -0.06,-3.63l-1.36,0l-7.78,12.35c0.17,1.39 1.41,11.7 1,16.94s1,8.23 1.63,9l0.11,0.13l0,0a13.47,13.47 0 0 0 1.28,2.13a11.38,11.38 0 0 0 1.81,2a11.56,11.56 0 0 1 -2.11,-1.7a13.9,13.9 0 0 1 -1.12,-1.29a43.76,43.76 0 0 0 -0.4,7.36a77.2,77.2 0 0 0 2.36,9.54l0,0c0.35,1.49 0.62,3 0.83,4.49s0.39,3 0.5,4.52c-0.24,-1.49 -0.54,-3 -0.89,-4.44q-0.15,-0.63 -0.31,-1.25c0.09,3.23 0.12,8 -0.4,9.95a17.39,17.39 0 0 1 -1.5,3.51a11.56,11.56 0 0 0 -1.32,3.29c0.33,0.39 0.64,0.81 0.95,1.23c2.88,0.76 13.97,3.3 35.32,2.33zm-25.59,-64l54.06,-2.54a2.54,2.54 0 0 1 2.65,2.31a227.78,227.78 0 0 1 1,26.75c-0.55,12.86 -12,26.28 -30.32,26.48l-0.48,0c-17.26,0 -28.37,-10 -29,-26.22c-0.46,-11.06 -0.79,-19.41 -0.95,-23.41a3.25,3.25 0 0 1 3.05,-3.34l-0.01,-0.03z" fill="#4465b0" id="svg_8"/>
      <path d="m109,194.1c0.66,15.74 11.47,25.46 28.26,25.46l0.47,0c17.8,-0.19 29,-13.23 29.53,-25.72a196.26,196.26 0 0 0 -0.5,-20.54l-58.49,3c0.16,4.46 0.41,10.55 0.73,17.8zm11.6,19.06a24,24 0 0 0 8.19,3.61a29.64,29.64 0 0 0 4.44,0.72c0.75,0.09 1.5,0.1 2.25,0.14s1.5,0 2.25,0a35.11,35.11 0 0 0 4.49,-0.38a30.5,30.5 0 0 0 4.4,-1a29.23,29.23 0 0 0 8.12,-3.83a25.68,25.68 0 0 0 6.43,-6.26a21.2,21.2 0 0 0 3.67,-8.19a21.29,21.29 0 0 1 -3.51,8.3a25.84,25.84 0 0 1 -6.42,6.39a28.67,28.67 0 0 1 -8.18,3.92a30.86,30.86 0 0 1 -4.44,1a35.47,35.47 0 0 1 -4.53,0.4c-0.76,0 -1.52,0 -2.28,0s-1.52,-0.06 -2.27,-0.15a30,30 0 0 1 -4.49,-0.75a24.57,24.57 0 0 1 -4.32,-1.46a22.17,22.17 0 0 1 -4,-2.25a21.86,21.86 0 0 1 -6.1,-6.68a23.15,23.15 0 0 1 -2.95,-8.53a22.64,22.64 0 0 0 9.23,15l0.02,0z" fill="#22c9ad" id="svg_9" transform="matrix(1 0 0 1 0 0)"/>
      <path d="m166.69,172.5c-0.16,-2.18 -0.31,-4 -0.43,-5.31a1.75,1.75 0 0 0 -1.82,-1.59l-54.06,2.54a2.46,2.46 0 0 0 -2.34,2.54c0,1.22 0.11,2.84 0.19,4.82l58.46,-3z" fill="#4465b0" id="svg_10"/>
      <path d="m181.74,225.93c-2.65,0.55 -25.8,5.28 -45.78,6.18c-3.33,0.15 -6.42,0.22 -9.26,0.22c-14,0 -22.17,-1.58 -25.45,-2.39c0.43,0.65 0.83,1.31 1.21,1.93l0,0a6,6 0 0 1 0.91,4.35c6,2.09 18.67,2.89 33.21,2.08c22.9,-1.27 44,-4.12 46.11,-6.21c1.87,-1.8 -0.34,-5.29 -0.95,-6.16z" fill="#4465b0" id="svg_11"/>
      <path d="m176.15,279.84l0,0l-0.26,0.1l-0.19,-0.22l-15.56,-18.21l-0.07,-7.83l-0.69,-0.81l0,-6.66l0.27,-0.1l0,0l22.37,-8a5.51,5.51 0 0 1 0.67,-2.22l0,0a7.72,7.72 0 0 0 0,-2.77c-4.19,2.26 -23.39,4.58 -42,5.78a82,82 0 0 0 1.36,13.45c0.51,3.08 0.85,5.17 0.44,6.2a8.52,8.52 0 0 1 0.36,3.38c-0.25,2.22 -0.18,6.95 0.63,7.93c0.38,-0.08 0.75,-0.16 1.12,-0.26a16,16 0 0 0 3.8,-1.6a8.17,8.17 0 0 1 -1.67,1.28a11.4,11.4 0 0 1 -1.92,0.91a12.71,12.71 0 0 1 -3.47,0.73c1.18,5.45 2.91,10.81 7.09,13.76l0.19,0.14a1.81,1.81 0 0 0 1,0.31l40.41,0.06a80.07,80.07 0 0 0 -0.43,-10.19l-13.45,4.84z" fill="#4465b0" id="svg_12"/>
      <path d="m136.44,270.14a7.54,7.54 0 0 1 -3.27,-2.63a9.39,9.39 0 0 0 3.48,2.09l0.51,0.16c-1,-5 -2.48,-22.05 -2.54,-30.52c-3,0.14 -6,0.21 -8.77,0.21c-9.89,0 -18.09,-0.85 -22.66,-2.42c0,0.11 -0.08,0.22 -0.12,0.31l0,0l15.94,5a0.7,0.7 0 0 1 0.49,0.56l1.56,0.52l0.08,0.19a0.41,0.41 0 0 1 0,0.14l0,0l0,1.92l-2.24,4l0,0.08l-0.35,0.25l-0.21,-0.07l-2.23,-0.88l-0.09,0.16a26.1,26.1 0 0 1 2.72,1.09l0,0a1.46,1.46 0 0 0 1,0.13l0.07,-1.89l-0.06,-0.17l0.09,-0.17l2.58,-4.75l0.31,0.1s2.47,0.8 5,1.72l0,0a4.18,4.18 0 0 1 2.75,2c0.68,1.48 0,3.45 -1.21,6.28c-1.59,3.82 -2.89,5.27 -5,5.27a5.67,5.67 0 0 1 -0.93,-0.08c-2.44,-0.41 -5.21,-1.25 -14.79,-4.5l-0.27,-0.09l0,-0.38l-0.14,0.15a1.82,1.82 0 0 1 -1.16,0.6a0.74,0.74 0 0 1 -0.33,-0.07l-3.7,-1.22a0.69,0.69 0 0 1 -0.22,-0.08a0.91,0.91 0 0 1 -0.4,-0.79l-2.84,-1l0,-2.09l0,0l0,-0.09l0.13,-0.18s1.46,-1.81 2.11,-2.65c-0.45,-0.21 -1.34,-0.62 -2.38,-1.05c0,0.3 0,0.6 0.05,0.88a2,2 0 0 1 -0.51,1.56a3.27,3.27 0 0 1 -2.33,0.62l-0.87,0l0.26,0l0,0.54c-0.27,3.37 -0.53,6.56 0.84,7.84l0.15,0.14l0,0.21c0,0.11 -1.77,10.59 -1.66,15.46a6.85,6.85 0 0 0 0.83,3.3l0.12,0.18l-0.09,0.2s-1.33,3.11 -0.06,8.87c8.75,0 25.81,0 43.4,0a33.56,33.56 0 0 0 2.13,-10c-0.4,-1.36 -0.74,-2.76 -1,-4.17a10,10 0 0 1 -4.17,-0.79z" fill="#4465b0" id="svg_13"/>
      <path d="m107.61,139.45c0,0.09 0,0.18 0,0.27l0,0c0.35,6.53 0.46,12.19 0.5,15.11a1.56,1.56 0 0 0 1.47,1.59l2.51,0.07a1.43,1.43 0 0 0 1.05,-0.43a1.65,1.65 0 0 0 0.47,-1.21c-0.06,-2.38 -0.22,-6.69 -0.62,-13.76c-0.63,-11.25 -2.86,-29.43 -3.87,-33.28c-1,0.05 -4.24,0.4 -5.36,2.56c0.81,1.36 1.78,6.77 2.73,15.19c0.51,4.63 0.88,9.44 1.12,13.89z" fill="#4465b0" id="svg_14"/>
      <path d="m190.35,285.53l-0.11,-8.61l0,0l0,-0.34l0,-0.94l-0.07,0l-0.23,-2.6l-29.79,-11.58l2.24,5l13.48,15.36l11.25,-3.82a52.84,52.84 0 0 1 0.2,7.58l3.03,-0.05z" fill="#234884" id="svg_15"/>
      <path d="m171.21,250.68l2.9,3.65c0.26,-1.51 1,-4.4 2.57,-5.31l0,0l9.7,-3.85l0,-0.25c0.08,-0.53 0.15,-1 0.17,-1.25a10.4,10.4 0 0 0 -1.71,-3.22a9.14,9.14 0 0 0 -1.75,0.65l-0.3,0.14l0,0l-9,3.59c-2.31,0.72 -2.56,5.03 -2.58,5.85z" fill="#ce2020" id="svg_16"/>
      <path d="m217.16,234.58l-1.8,-2.28c-0.35,-0.24 -2.76,-1.82 -4.38,-1.11l-2.45,1c0.66,1.48 1.33,3 1.81,4l3.86,-1.61a3.86,3.86 0 0 1 2.96,0z" fill="#ce2020" id="svg_17"/>
      <path d="m210.67,230.46c2.15,-0.93 5.06,1.14 5.19,1.23l0.08,0.08l3.73,4.71l0,0l-0.62,0.49l0,0c-0.14,-0.17 -2.19,-2.66 -4.57,-1.69l-3.82,1.6c0.14,0.29 0.24,0.49 0.29,0.59c0.35,0.6 0.13,2.32 -0.26,4.86c-0.13,0.88 -0.26,1.71 -0.28,2.15a1,1 0 0 1 -0.34,0.67c-1,0.86 -4.21,0.83 -5.41,0.78a1.9,1.9 0 0 1 -1.66,1.77a31.67,31.67 0 0 1 -4.18,0.08a2.17,2.17 0 0 1 -1.88,1.11a32.66,32.66 0 0 1 -3.79,0.14a1.52,1.52 0 0 1 -0.29,0.72a2.86,2.86 0 0 1 -2.28,0.92c-0.62,0 -1.18,0.06 -1.69,0.06a3.24,3.24 0 0 1 -2.34,-0.61a1.81,1.81 0 0 1 -0.48,-1.44c0,-0.81 0.14,-1.76 0.26,-2.62l-9.33,3.66c-1.5,0.87 -2.16,4.34 -2.28,5.61l-0.1,1l-4.21,-5.33l0,-0.14c0,-0.24 0,-5.77 3.18,-6.77l8.85,-3.53a4.7,4.7 0 0 1 -0.44,-1.56l-21.58,7.67l14.09,16.85l55.66,-19.79l-14.1,-16.86l-8.57,3.05l0.68,1.54l2.49,-1z" fill="#ce2020" id="svg_18"/>
      <path d="m175.62,278.4l0,-8.62l-1.11,0.38l0,0l-0.23,0.09l-0.19,-0.21l-13.23,-15.44l0.06,6.6l14.7,17.2z" fill="#ce2020" id="svg_19"/>
      <polygon fill="#ce2020" id="svg_20" points="160.16 247.54 160.16 252.56 174 268.71 174 264.09 160.16 247.54"/>
      <path d="m176.41,278.91c5.25,-1.88 48.16,-17.26 52.74,-18.92a0.19,0.19 0 0 0 0.12,-0.18l0,-9.11c-7.93,2.83 -44.12,15.71 -52.86,18.79l0,9.42z" fill="#ce2020" id="svg_21"/>
      <path d="m174.8,264.23l0,5c4.79,-1.67 42.09,-15 55.69,-19.79l0,-5l-55.69,19.79z" fill="#ce2020" id="svg_22"/>
      <path d="m174.66,256.31c1.48,-2.13 1.05,-3 5.11,-4.6s5,-2 5,-2a4.59,4.59 0 0 0 4.14,1.58a8.9,8.9 0 0 0 3.91,-1.53l7.69,-2.18l6.4,-1.92s3.58,-0.64 3.45,-2s0.51,-3.16 0.34,-4.52a28.06,28.06 0 0 1 4.18,-1.75c2.18,-0.68 2.6,-1.25 4.2,-0.33a1.72,1.72 0 0 0 -0.75,-1.38a3.29,3.29 0 0 0 -3.2,-0.77a11.65,11.65 0 0 0 -3.8,1.49l-0.81,0.21l-25.25,9.34s-8,3.07 -8.83,3.8a6.47,6.47 0 0 0 -1.66,3.54a8.19,8.19 0 0 1 -0.43,2.13l0.31,0.89z" fill="#910606" id="svg_23"/>
      <path d="m103.29,57.58l-0.44,0a2,2 0 0 0 -1.08,0.4c-0.74,0.58 -1.14,1.79 -1.14,3.5a5.92,5.92 0 0 0 1.12,3.3a7,7 0 0 1 1.29,3.93c0,3.25 0.49,5.28 1.49,6.2a2.09,2.09 0 0 0 1.48,0.55c-0.05,-1.42 -0.12,-2.91 -0.21,-4.48c-0.45,-8.3 -2.1,-12.48 -2.51,-13.4z" fill="#fddebf" id="svg_24"/>
      <path d="m193.44,167.91a81.66,81.66 0 0 1 -7.66,2.88a40,40 0 0 0 5.05,8.78a13.31,13.31 0 0 1 1,-1.65a12.18,12.18 0 0 1 1.65,-2a12,12 0 0 0 -1.31,2.17a12.76,12.76 0 0 0 -0.79,2.13l0,0l-0.06,0.2c-1.33,4.23 -0.58,9.15 0.22,14.37a59.86,59.86 0 0 1 1,11.46c1.59,0.34 3.69,0.74 6.33,1.16c3.43,0.55 6.53,0.85 8.75,1c0.42,-2.24 3.16,-17.33 3.76,-27.35c0.52,-8.61 -1.62,-12.78 -3.88,-17.19c-0.54,-1.06 -1.1,-2.15 -1.63,-3.32a70.17,70.17 0 0 1 -12.43,7.36z" fill="#fddebf" id="svg_25"/>
      <path d="m138.65,118.94l3.85,-5.36l-0.19,0a28.35,28.35 0 0 1 -4.71,-0.45a16.78,16.78 0 0 0 -2.53,-0.28c-1,0 -1.81,0.08 -2.79,0.17s-2.1,0.19 -3.62,0.25l3.38,4.68c0.68,0.72 2,4.32 2.59,6.2l4.02,-5.21z" fill="#eac29d" id="svg_26"/>
      <path d="m120,109.75c2.51,1.78 3.89,2.76 6.63,2.76a54,54 0 0 0 5.59,-0.28c1,-0.09 1.86,-0.17 2.86,-0.17a17.3,17.3 0 0 1 2.65,0.29a24.35,24.35 0 0 0 7.46,0.25c3.91,-0.49 6.24,-2.82 8.93,-5.51c0.66,-0.66 1.35,-1.35 2.09,-2l0.37,-0.34c3.59,-3.32 8.05,-7.45 8.14,-12.35c0,-1.34 0,-3.62 0,-6c-0.06,-4 -0.12,-8.54 0,-10.72a2.33,2.33 0 0 1 -0.46,-0.47a3.38,3.38 0 0 1 -0.41,-0.79a6.14,6.14 0 0 1 -0.36,-1.65a6,6 0 0 0 0.68,1.49a2.66,2.66 0 0 0 0.63,0.7l0.47,0.2a4.42,4.42 0 0 0 3.12,0.07a2.73,2.73 0 0 0 1.33,-1.44l0,0l0,0a4.36,4.36 0 0 0 0.17,-0.45a10.51,10.51 0 0 0 0.46,-3.37a11.32,11.32 0 0 1 1.79,-6.35a8.23,8.23 0 0 0 1.04,-5.62l-0.06,-0.13c-0.29,-0.7 -0.64,-1.57 -2.6,-2.11a3.65,3.65 0 0 0 -4.36,1.48c-0.52,0.91 -0.85,5 -1,7.42l-0.06,0.73c0,-0.1 0.09,-0.21 0.14,-0.31a5.05,5.05 0 0 1 0.53,-0.85a3.92,3.92 0 0 1 0.7,-0.71a3.12,3.12 0 0 1 0.86,-0.48a4.62,4.62 0 0 0 -0.71,0.64a5,5 0 0 0 -0.55,0.75a6.81,6.81 0 0 0 -0.42,0.83a7.18,7.18 0 0 0 -0.24,0.7a1.45,1.45 0 0 1 0.45,0.42l1.64,-0.73l-1.5,1.1a2.37,2.37 0 0 1 0.09,1.16a1.6,1.6 0 0 1 -0.56,1a2,2 0 0 1 -1,0.44a2.38,2.38 0 0 0 0.85,-0.62a1.28,1.28 0 0 0 0.25,-0.42a1.32,1.32 0 0 0 0.09,-0.47a2.3,2.3 0 0 0 -0.14,-1a1.23,1.23 0 0 0 -0.58,-0.63l0,0c0,0.26 0,0.47 -0.07,0.64a1.72,1.72 0 0 1 -0.62,1.23a1.58,1.58 0 0 1 -1,0.28a5.72,5.72 0 0 1 -0.91,-0.1l-0.54,-0.08a0.86,0.86 0 0 1 -0.6,-0.33c-0.63,-0.78 -0.42,-2.87 -0.06,-5.74l0,-0.26c0.31,-2.51 0.19,-3.9 -0.41,-4.65a10.77,10.77 0 0 1 -1.77,-4.68c-0.36,-1.7 -0.69,-3.31 -1.82,-4l0,0c-7.18,-2.89 -19.85,-7.75 -24.46,-8c-4.43,-0.26 -10.8,1.24 -17.54,2.83c-2.27,0.54 -4.62,1.09 -6.9,1.57a41.59,41.59 0 0 0 -4.48,1.19a28.21,28.21 0 0 1 -0.54,5.35a8.81,8.81 0 0 0 0.59,5.55c0.19,0.39 2.16,4.53 2.68,13.85a177,177 0 0 1 0.09,20.91c-0.23,3.58 0.42,10.17 7.35,14.11a64.85,64.85 0 0 1 6.01,3.87zm34,-25.23c-0.11,-0.19 -0.2,-0.39 -0.31,-0.57a7.15,7.15 0 0 0 -0.68,-1a15.62,15.62 0 0 1 -2.17,2.14c0.54,2.25 1.81,11.87 -3.34,14.06a18.2,18.2 0 0 1 -6.7,1a53.45,53.45 0 0 1 -13.8,-1.94a18.34,18.34 0 0 1 -4.46,-1.74c-0.8,-0.42 -1.58,-0.86 -2.34,-1.33c-0.92,-0.57 -1.82,-1.16 -2.69,-1.8c0.93,0.53 1.89,1 2.86,1.48l1.18,0.53a4,4 0 0 1 -0.28,-2c0.14,-2 0.31,-3.29 0.39,-3.77c-0.56,-0.33 -1.1,-0.68 -1.63,-1s-1.22,-0.86 -1.81,-1.3q1,0.52 2,1c0.52,0.24 1,0.47 1.56,0.68l0,-0.06l0.47,0.22c9.31,4.37 18.46,1 23.09,-1.37a21.86,21.86 0 0 0 7.1,-5.34l-0.44,-0.41a8.05,8.05 0 0 0 -1.08,-0.75a2.92,2.92 0 0 1 1.32,0.41a3.86,3.86 0 0 1 1.08,0.9a4.18,4.18 0 0 1 0.88,1.88a4.6,4.6 0 0 1 0.06,0.69c-0.11,-0.21 -0.2,-0.42 -0.26,-0.61zm-19.28,-31.74c0.36,-0.91 4.65,-2.59 6.71,-3.09l-1.34,1.05a22.86,22.86 0 0 1 6.91,-1.17c3.12,0.18 7.36,3.36 9.21,4.74a0.5,0.5 0 0 1 -0.39,0.9c-1.76,-0.34 -6.15,-1.13 -8.83,-0.82c-3.73,0.43 -7.79,2 -9.85,2.46a1.48,1.48 0 0 1 -1.68,-0.95c-0.46,-1.02 -0.96,-2.54 -0.74,-3.12zm-7.43,6.94a30.7,30.7 0 0 1 1.59,7.46a22.11,22.11 0 0 1 -0.46,7a4.68,4.68 0 0 1 0.59,-0.09a5.26,5.26 0 0 1 3.19,0.7a5.46,5.46 0 0 0 -5.86,1.09a5.16,5.16 0 0 0 -1.46,2.63a5.11,5.11 0 0 0 0.25,3a5.16,5.16 0 0 0 0.75,1.31a5.71,5.71 0 0 0 1.1,1a5.42,5.42 0 0 0 1.36,0.67a5.74,5.74 0 0 0 1.51,0.25a5.44,5.44 0 0 0 5,-3.23a5.33,5.33 0 0 1 -1.85,2.7a5.47,5.47 0 0 1 -3.16,1.14a5.73,5.73 0 0 1 -1.71,-0.2a6.13,6.13 0 0 1 -1.58,-0.71a6.06,6.06 0 0 1 -1.29,-1.16a5.93,5.93 0 0 1 -0.88,-1.5a5.79,5.79 0 0 1 -0.24,-3.43a5.61,5.61 0 0 1 1.77,-2.92a5.21,5.21 0 0 1 1.44,-0.91l0.26,-0.1a21.32,21.32 0 0 0 0.88,-7.18a30.45,30.45 0 0 0 -1.2,-7.52zm-20.81,-3.72a0.51,0.51 0 0 1 -0.43,-0.89c1.62,-1.33 4.45,-3.9 7.74,-4.32a16.32,16.32 0 0 1 6,0.84l-1.18,-1c1.81,0.48 5.59,2.12 5.91,3a6,6 0 0 1 -0.53,2.75a1.65,1.65 0 0 1 -2,1.13c-1.9,-0.55 -5.24,-1.91 -8.27,-2.3c-2.3,-0.35 -5.72,0.46 -7.24,0.79z" fill="#f9e7d4" id="svg_27"/>
      <path d="m86.64,201.87c2.64,-0.46 4.74,-0.89 6.33,-1.25a69,69 0 0 1 1,-12.35c0.8,-5.62 1.55,-10.94 0.22,-15.5l-0.07,-0.23l0,0a14.33,14.33 0 0 0 -0.78,-2.26a13,13 0 0 0 -1.34,-2.35a13.2,13.2 0 0 1 1.67,2.15a14.86,14.86 0 0 1 1,1.83a18.8,18.8 0 0 0 2.87,-6.05l0,0c-0.15,-1.41 -0.27,-2.32 -0.27,-2.35l0,-0.14l0,0c-3.78,-0.19 -19.12,-1 -21.78,-1.17l-0.43,0a47,47 0 0 0 -0.66,11.7c0.6,10.8 3.09,26.75 3.46,29.09c2.27,-0.21 5.36,-0.53 8.78,-1.12z" fill="#fddebf" id="svg_28"/>
      <path d="m153.59,66.75s-2.44,1.6 -7.72,1.79s-8.1,-1.88 -8.1,-1.88a7.31,7.31 0 0 0 3.27,0.54a3.93,3.93 0 0 1 -0.51,-2.08c-0.17,-2.81 2.59,-4.83 4.7,-4.83a4.88,4.88 0 0 1 5.13,5a4.15,4.15 0 0 1 -0.41,2a6.61,6.61 0 0 0 3.64,-0.54z" fill="#de9886" id="svg_29"/>
      <path d="m109.05,67.85s1.87,1.58 7,1.41a17.47,17.47 0 0 0 8.75,-2.75a13.24,13.24 0 0 1 -3.8,1a3.81,3.81 0 0 0 0.35,-2c0,-2.73 -2.83,-4.49 -4.87,-4.35a4.73,4.73 0 0 0 -4.62,5.14a4,4 0 0 0 0.53,1.89a6,6 0 0 1 -3.34,-0.34z" fill="#de9886" id="svg_30"/>
      <path d="m98.94,244.94l0,1a2.11,2.11 0 0 1 -0.6,1.73c-0.73,0.55 -2.77,0.36 -2.77,0.36s-0.32,4.33 -0.41,5.74s1.35,3.23 1.35,3.23l-1,6.61c-1,6.61 -0.38,10.83 -0.09,11.43s0.34,1.11 -0.17,3.07s0.45,7.51 0.45,7.51l1.79,-0.32c-1.54,-2.56 0.15,-8.89 0.15,-8.89s-0.85,-0.9 -1,-4.35s1.67,-15.26 1.67,-15.26c-2.43,-1.38 -1.16,-7.26 -1.16,-7.26l1.19,-0.13l-0.13,2.9c0.77,0 2.64,0.6 2.64,1.07s2.56,1.15 4.56,2s2.77,-0.17 2.77,-0.17s10.15,3.8 13.09,4.78s5.12,1 6.23,-1.36a45.58,45.58 0 0 0 3.16,-9.09l-30,-4.27l-1.72,-0.33z" fill="#234884" id="svg_31"/>
      <path d="m167.44,154.41c2.47,0.21 4.22,-0.26 4.52,-0.64a6,6 0 0 0 0.3,-2.86c0,-1.36 -0.13,-11.52 0,-16.63s0.34,-9.51 0.73,-14.93s1.14,-11.91 1.14,-11.91a6.51,6.51 0 0 0 -2.75,-1.5c-2,-0.64 -3,-1.09 -3,-1.09l-0.17,1.15c0.09,0 2,0.87 3.27,1.46a1.51,1.51 0 0 1 0.87,1.6a178,178 0 0 0 -1.75,20.94c-0.26,12.54 0.14,19.19 0.13,20.65s-0.55,2.32 -2.3,2.32s-2.47,-0.43 -2.47,-2.09c0.04,-0.01 -0.96,3.32 1.48,3.53z" fill="#234884" id="svg_32"/>
      <path d="m172.35,146.14l0.06,2c1.15,0 1.3,1.54 1.64,3.93a45.74,45.74 0 0 0 2.47,9.21c1.45,4 2.6,5.25 2.6,5.25l1.24,-0.64a31.77,31.77 0 0 1 -3.75,-9.3c-1.15,-5.25 -1.71,-8.4 -2.09,-9.43a1.94,1.94 0 0 0 -2.17,-1.02z" fill="#234884" id="svg_33"/>
      <path d="m177.41,186a2.64,2.64 0 0 0 -0.3,-0.23c0.1,0.08 0.19,0.16 0.3,0.23z" fill="#234884" id="svg_34"/>
      <path d="m185.74,179a2.86,2.86 0 0 0 -0.15,-1.94c-0.36,-0.68 -2.56,-5.76 -2.56,-5.76l-1.36,0.49c0.8,1.57 2,4.38 2.5,5.25s0.29,1.54 0,2.82s-0.93,3.81 -0.93,3.81a8.72,8.72 0 0 0 -3.2,-3.24a17.2,17.2 0 0 1 2.5,4c0.5,1.06 0.62,1.34 0.62,1.34a12.17,12.17 0 0 1 0.34,4.51a19.22,19.22 0 0 1 -1.47,6s-0.42,-7 -4.64,-10.2a9.79,9.79 0 0 1 2.63,4.48a21.69,21.69 0 0 1 1.06,6.81s0.26,3.6 0.3,5a23.56,23.56 0 0 1 -0.17,4.48c-0.26,1.79 -3,6.14 -2.64,11.35s0.6,7.85 0.6,7.85s-15.7,3.16 -26,4.09s-18.34,1.54 -26.62,1.71a105.19,105.19 0 0 1 -13.65,-0.51a108.16,108.16 0 0 1 -12.48,-2l1.22,2s6.14,1.73 18.43,2.11s23.61,0.38 38.26,-1.86s21.18,-3.9 21.18,-3.9a3.38,3.38 0 0 1 1.92,3a14.8,14.8 0 0 1 -0.13,2.69a254.83,254.83 0 0 1 -28.47,4.16c-14.72,1.22 -24.31,1.34 -24.31,1.34s-9,0.06 -14.52,-0.38a64.27,64.27 0 0 1 -10.94,-2l-0.51,0.9l6.08,2a70.55,70.55 0 0 0 15.48,1.28c4.47,-0.06 7.08,-0.15 9.79,-0.27c0,0.57 0,1.53 0,3c0,2.73 1,15 1.52,19l0.91,7.13l-0.62,-0.13c-2.21,-0.83 -2.56,-2 -2.56,-2c0.88,4.07 6.25,4.33 6.25,4.33l0.72,3.28a26.8,26.8 0 0 1 -2.86,10.45l2.3,-0.09c1.45,-2 2.52,-9.72 2.52,-9.72a21.35,21.35 0 0 0 6.65,9.85l4.39,-0.43c-6.4,-2.22 -8.87,-13 -8.87,-13c2.22,-1 4.11,-4.22 4.11,-4.22a10.78,10.78 0 0 1 -4,1.83a6.34,6.34 0 0 1 -0.81,-2.6a30.58,30.58 0 0 1 0.17,-6.36a4.89,4.89 0 0 0 -0.43,-2.47c0.43,-0.68 0,-3.84 -1,-9.81a54.41,54.41 0 0 1 -0.82,-8.49l4.55,-0.19a275.06,275.06 0 0 0 33.5,-4.12c1.32,-0.28 1.71,-0.26 1.66,0.64s-0.13,2.26 -0.13,2.26l1.11,-0.3a6.45,6.45 0 0 1 0.94,-2.52a16.88,16.88 0 0 1 -0.17,-3.33a4.32,4.32 0 0 0 0.64,-3.33a18.4,18.4 0 0 0 -1.79,-3.84a14.14,14.14 0 0 0 -0.47,-4.27c-0.62,-2.3 -0.79,-2.22 -0.66,-3.54s0.3,-3.18 0.62,-5a26.23,26.23 0 0 0 0.9,-5.25c0,-2.35 -0.62,-3.18 -0.21,-5.63a73,73 0 0 1 2.32,-8.13a9.07,9.07 0 0 0 -0.09,-4.84a9.91,9.91 0 0 1 0,-3.46c0.17,-0.69 1.47,-5.34 1.55,-6.11zm-45,67.56a85.71,85.71 0 0 0 1.34,9.62a4.28,4.28 0 0 1 -0.15,2.24a7.43,7.43 0 0 1 0.53,2.77c0,1.66 -0.09,3.65 -0.15,5.82a4.43,4.43 0 0 0 0.9,3.16s-0.32,0.34 -2.45,0.28a14.81,14.81 0 0 1 -3.13,-0.34s-1.07,-7.29 -1.83,-14.67c-0.64,-6.16 -0.75,-12.93 -0.76,-15l5.32,-0.26c0.09,0.98 0.21,3.13 0.43,6.36l-0.05,0.02z" fill="#234884" id="svg_35"/>
      <path d="m106.46,109.23c0.79,-0.25 1.19,-0.2 1.45,0.13a133.54,133.54 0 0 1 2.8,18.9c1,11.26 1.36,19.62 1.41,23.84s-2.6,3.71 -4.22,3.41c0,0 0.07,1.38 2.94,1.24s3.41,-0.55 3.37,-2s-0.6,-11.69 -1.07,-18.13s-1.4,-13.62 -2.14,-19.44s-1.37,-9.26 -1.37,-9.26l-0.26,-0.55l-1.2,0.22l0,0a9.88,9.88 0 0 0 -2.69,0.74a4.45,4.45 0 0 0 -2.18,2l0.54,0.83a5.46,5.46 0 0 1 2.62,-1.93z" fill="#234884" id="svg_36"/>
      <path d="m98.59,174.08c0.13,3.42 0.19,6.62 0.06,9.47s1.82,6.14 1.82,6.14s-0.58,5.41 -0.64,7.1a12.75,12.75 0 0 0 0.67,4.51c0.54,2.08 1.46,5 1.46,5l0.52,2.7s-0.22,10.59 -0.22,11.48s-1.5,3.55 -2,4.45a20.22,20.22 0 0 0 -1,2.62l0.42,0.86l0.77,0.67c0,-1 1.74,-3.64 2.55,-6.71a29.31,29.31 0 0 0 0.36,-8c0.15,0.47 0.68,2.29 0.68,2.29c-0.11,-0.88 -0.5,-4.52 -0.5,-4.52c-0.48,-3.82 -0.63,-8.63 -1.85,-12s-0.15,-7.46 -0.15,-7.46a7.26,7.26 0 0 0 2.43,1a10.25,10.25 0 0 1 -2.51,-2.79c-1.75,-2.9 -1,-9 -0.92,-15a95.42,95.42 0 0 0 -0.7,-11.84l7.87,-11.32l-0.22,-2l-1.76,0l-2.3,3.84l-5.73,8.77l0.45,3.36s0.31,3.95 0.44,7.38z" fill="#234884" id="svg_37"/>
      <path d="m107.87,171.36s0.1,-2.21 4.13,-2.21s21,-0.83 33.27,-1.47s19.07,-1.28 19.07,0.83a37.37,37.37 0 0 0 0.32,4.41l0.21,0l0,0l-57,2.88s-0.17,-3.75 -0.15,-5s0.28,-2 0.9,-2.32s1.73,-1.11 1.73,-1.11c-3.16,0.54 -4.48,1.37 -4.23,5.38s0.28,10.13 0.45,14s0.45,11.07 1.6,15.35s4.29,11.07 9.53,14.27s10,5.25 19.13,5.18s16.51,-3.65 20.67,-7.87c0,0 -9,5.35 -15.21,5.86s-16,0.94 -23.54,-5.08s-9.13,-11.69 -9.77,-15.91s-1,-18.6 -1,-18.6l0,-2.73l56.72,-3.22c0.18,5.48 0.58,12.75 0.66,18.72c0.09,6.23 0,10.83 -2.64,14.42c0,0 4.14,-5.42 4.56,-10.11a123,123 0 0 0 0.17,-13.61c-0.09,-3.84 -0.17,-11 -0.17,-11l-0.24,-0.2c-0.08,-1.73 -0.43,-6.25 -1.81,-6.67c-1.71,-0.51 -9.51,0.09 -14.63,0.43s-14.89,0.64 -14.89,0.64s-21.57,0.82 -24.83,1.17s-3.14,2.35 -3.01,3.57z" fill="#234884" id="svg_38"/>
      <path d="m121.3,38.25l2.08,-0.46l1.05,-0.24c3.29,-0.78 7.4,-1.75 13.27,0.07c5.53,1.71 19.7,7.67 23.3,9.19c-0.65,-2.1 -0.6,-4.42 -0.53,-7.27a54.32,54.32 0 0 0 -0.44,-9.93c-0.52,-3.51 -5.22,-8.54 -12.89,-13.81c-6.68,-4.59 -13.18,-7.67 -15.08,-7.67s-8.67,4 -14.51,8.43c-1.33,1 -2.94,2 -4.63,3.07c-5,3.13 -10.7,6.69 -10.44,11.34c0.3,5.31 0.59,10.35 0.69,11.94a175.77,175.77 0 0 1 18.13,-4.66z" fill="#fff" id="svg_39"/>
      <path d="m160.82,29.49a55,55 0 0 1 0.44,10.07c-0.07,3.08 -0.13,5.52 0.72,7.66a2.77,2.77 0 0 1 2,2.93c1.09,0.55 5.77,2.67 9.1,4.15a3.79,3.79 0 0 0 0.4,-3.18a41.54,41.54 0 0 1 -0.91,-12.67c0.48,-5.73 0.27,-12 -5,-15c-0.92,-0.53 -19.41,-11.18 -30.47,-14.39a78.93,78.93 0 0 1 10.47,6.11c4.64,3.15 12.49,9.23 13.25,14.32z" fill="#22c9ad" id="svg_40"/>
      <path d="m108.19,44.18c2.27,-0.48 4.61,-1 6.88,-1.57c6.8,-1.6 13.23,-3.12 17.77,-2.85c5.7,0.34 23.16,7.42 28.38,9.58l0.65,0.29a6.13,6.13 0 0 0 1.28,0.5c0.37,-1.55 -1.51,-2.19 -1.6,-2.22l-0.17,-0.06l0,0c-1.71,-0.73 -17.93,-7.6 -23.91,-9.46c-5.67,-1.76 -9.48,-0.85 -12.85,-0.06l-1.06,0.25l-2.09,0.46a172.24,172.24 0 0 0 -18.24,4.71l0,0l-0.3,0.09a31.86,31.86 0 0 0 -6.49,2.68c-1.07,0.67 -1.87,3 -1.31,5.15a5.6,5.6 0 0 0 0.66,1.55a4.92,4.92 0 0 1 0.55,-3c1.42,-2.63 5.41,-4.67 11.85,-6.04z" fill="#ce2020" id="svg_41"/>
      <path d="m145.68,88.41c-4.68,2.41 -13.86,5.79 -23.31,1.59c-0.07,0.47 -0.16,1.26 -0.26,2.36c1.08,0.58 6.25,3.07 14.29,2.6a54.39,54.39 0 0 0 6.12,-0.7l0,-0.09l0.48,-2.73l1.07,2.56a35,35 0 0 0 6.41,-1.89a23.24,23.24 0 0 0 -0.37,-6.44a29.63,29.63 0 0 1 -4.43,2.74z" fill="#fff" id="svg_42"/>
      <path d="m134.41,95.39a27.55,27.55 0 0 1 -12.32,-2.63c0,0.21 0,0.43 0,0.66c-0.16,2.3 0.68,2.63 5.18,4s15.27,3 19.93,1c2.09,-0.89 3,-3.34 3.29,-5.93a44.9,44.9 0 0 1 -14,2.84q-1.1,0.06 -2.08,0.06z" fill="#fff" id="svg_43"/>
      <path d="m165.46,76c-0.12,2.25 -0.06,6.52 0,10.32c0,1.71 0,3.35 0.05,4.65c0.89,-0.84 2.28,-3.11 2.85,-7.08c0.16,-1.15 0.33,-2.53 0.51,-4s0.38,-3.11 0.57,-4.48a3.23,3.23 0 0 1 -0.73,0.47a4.81,4.81 0 0 1 -3.25,0.12z" fill="#724310" id="svg_44"/>
      <path d="m168.18,53c-2.69,-1.22 -4,-1.8 -4.57,-2.14l0,0c-0.48,0.25 -1.21,-0.09 -2.05,-0.49l-0.62,-0.28l-2,-0.84a12,12 0 0 1 1,3.19a10.19,10.19 0 0 0 1.61,4.35c0.76,0.95 0.93,2.47 0.58,5.24l0,0.26c-0.23,1.82 -0.57,4.57 -0.11,5.14c0,0 0,0 0.05,0l0.6,0.08c0.5,0.08 1,0.16 1.28,0a1,1 0 0 0 0.31,-0.7c0.06,-0.44 0.13,-1.28 0.21,-2.24c0.29,-3.52 0.59,-6.76 1.14,-7.74a4.42,4.42 0 0 1 5.13,-1.83a4.32,4.32 0 0 1 2.69,1.71a1.87,1.87 0 0 0 -0.46,-1.57l-4.79,-2.14z" fill="#724310" id="svg_45"/>
      <path d="m103,56.75a9.19,9.19 0 0 1 -0.43,-5.38a28.11,28.11 0 0 0 0.53,-4.94c-3.13,1.15 -5.16,2.55 -6,4.21a4.45,4.45 0 0 0 -0.1,3.94a10.26,10.26 0 0 0 5.93,2.17l0.07,0z" fill="#820202" id="svg_46"/>
      <path d="m123.66,244.7l-0.84,-0.28l-2.06,3.79l0.71,0.26l2.19,-3.77z" fill="#a3a3a3" id="svg_47"/>
      <path d="m120.56,250a3.08,3.08 0 0 0 0.55,-0.77l-0.51,-0.19l-0.04,0.96z" fill="#a3a3a3" id="svg_48"/>
      <path d="m104.07,249.79a4.52,4.52 0 0 0 -0.87,2.7l0,0l3.83,1.27l0,0c0.14,0 0.66,-0.35 1.28,-1.17l0,-0.52l0,0a0.42,0.42 0 0 1 0.07,-0.25l1.41,-2.46a0.93,0.93 0 0 0 0,-0.4l0,0l-3.79,-1.27l0,0c-0.17,0 -0.92,0.53 -1.72,1.82l0,0l0,0l-0.21,0.28z" fill="#a3a3a3" id="svg_49"/>
      <path d="m118.43,251a26,26 0 0 0 -2.78,-1.1l-2,3.43c2.51,0.88 4.54,1.45 6.19,1.92l1.39,0.4c4.47,1.31 5,0.48 6.75,-3.25c1.22,-2.68 1.58,-4.21 1.2,-5.1a2.62,2.62 0 0 0 -1.68,-1.3c-1.11,-0.4 -2.2,-0.77 -3.08,-1.07l-2.42,4.2a3.55,3.55 0 0 1 -1.52,1.88l0.17,0.07a10.18,10.18 0 0 0 2,0.52a3.72,3.72 0 0 0 2,-0.17a2.7,2.7 0 0 0 1.35,-1.43a2.81,2.81 0 0 1 -1.31,1.59a4,4 0 0 1 -2.08,0.39a10.68,10.68 0 0 1 -2.09,-0.34c-0.48,-0.12 -0.94,-0.26 -1.41,-0.41a2.51,2.51 0 0 1 -0.6,-0.19l0,0l-0.08,-0.04z" fill="#a3a3a3" id="svg_50"/>
      <polygon fill="#a3a3a3" id="svg_51" points="120.39 245.46 120.39 245.27 118.94 247.87 118.94 248.06 120.39 245.46"/>
      <polygon fill="#a3a3a3" id="svg_52" points="116.55 248.37 118.14 249 118.14 248.04 116.99 247.59 116.55 248.37"/>
      <polygon fill="#a3a3a3" id="svg_53" points="117.39 246.9 118.36 247.27 120.2 243.97 119.25 243.66 117.39 246.9"/>
      <path d="m128.59,253.28c0.41,-1 0.76,-1.86 1,-2.63c-0.22,0.61 -0.51,1.3 -0.86,2.09c-1.29,2.84 -2.11,4.28 -4.41,4.28a12.12,12.12 0 0 1 -3.28,-0.6l-1.38,-0.39c-1.76,-0.5 -3.95,-1.11 -6.69,-2.09l-3.7,-1.26l-0.12,0.17l0,0.76c9.32,3.16 12,4 14.4,4.38c1.96,0.32 3.21,-0.3 5.04,-4.71z" fill="#ce2020" id="svg_54"/>
      <path d="m162.81,109.48a61.37,61.37 0 0 0 -5.34,5.59c-4.27,5.18 -9.13,14.47 -9.18,14.56l-0.39,0.74l-0.33,-0.77c0,-0.08 -3.56,-8.26 -8.46,-10l-4.25,5.49c-0.69,4.71 -0.55,21.8 -0.51,25.21c10.11,-0.13 20.08,-2.06 26.13,-3.23a45.92,45.92 0 0 1 4.81,-0.81c0,-2.08 0,-4.6 0,-7.62c0.13,-11.29 1.61,-29.61 2.51,-33.6l-1,-0.32a19,19 0 0 1 -3.99,4.76z" fill="#fff" id="svg_55"/>
      <path d="m157.11,105.3l-0.37,0.34c-0.72,0.67 -1.4,1.35 -2.06,2c-2.68,2.68 -5.22,5.21 -9.4,5.74c-0.63,0.08 -1.22,0.13 -1.78,0.16l-3.9,5.46c4.26,1.65 7.36,7.5 8.36,9.59c1.23,-2.29 5.27,-9.59 8.9,-14a62,62 0 0 1 5.41,-5.66c1.9,-1.81 3.4,-3.25 4.05,-4.77s-2,-4.31 -3.16,-5.31a41.44,41.44 0 0 1 -6.05,6.45z" fill="#fff" id="svg_56"/>
      <path d="m180.95,166.12l-0.9,0.35c-1,0.4 -1.27,0.68 -0.63,2.54c0.74,2.15 1.11,2.45 1.83,2.25l0.86,-0.23a72.94,72.94 0 0 0 11,-3.84a70.62,70.62 0 0 0 12.48,-7.4c0.64,-0.45 1.1,-0.78 1.4,-1c1.12,-0.71 1.12,-0.71 0.45,-2.82l-0.17,-0.53c-0.43,-1.35 -0.82,-2.1 -1.21,-2.28a0.9,0.9 0 0 0 -0.72,0.07a49.7,49.7 0 0 1 -8.92,6.14a155.8,155.8 0 0 1 -15.47,6.75z" fill="#fff" id="svg_57"/>
      <path d="m172.61,145.8l0.31,0a2.2,2.2 0 0 1 2.16,1.79l0,0.24a12.83,12.83 0 0 0 1.63,-1.45a15.8,15.8 0 0 0 1.7,-2.1a16.63,16.63 0 0 0 1.34,-2.37c0.21,-0.41 0.36,-0.84 0.53,-1.26s0.29,-0.87 0.43,-1.3c-0.11,0.44 -0.21,0.89 -0.34,1.33s-0.26,0.88 -0.44,1.31a16.9,16.9 0 0 1 -1.18,2.51a16.28,16.28 0 0 1 -1.59,2.29a12.73,12.73 0 0 1 -1.91,1.89c0.86,4.37 2.73,12.65 5.21,16.77l0.16,-0.06a155.19,155.19 0 0 0 15.4,-6.68a49.51,49.51 0 0 0 8.64,-5.92a221.13,221.13 0 0 0 -7.2,-21.79c-4.13,-10.65 -9.21,-13.46 -10.62,-14.05c-0.46,2 -1,3.93 -1.49,5.88a63.44,63.44 0 0 1 -2,6.2a63.25,63.25 0 0 0 1.61,-6.3c0.42,-2 0.8,-4 1.15,-6l0,0l0.08,-0.37c0.44,-2.12 -6.29,-5.57 -11,-7.43c0,0.31 0,0.61 0,0.92c0,0.53 0,1 -0.06,1.57c-0.07,1 -0.18,2.07 -0.32,3.09c0,-1 0,-2.07 -0.07,-3.1c0,-0.51 -0.07,-1 -0.14,-1.53a10.45,10.45 0 0 0 -0.22,-1.26l0,0l0,-0.22a0.46,0.46 0 0 0 0,-0.11c-0.17,1.43 -0.52,5.15 -1.18,14.63c-0.68,8.08 -0.69,16.73 -0.59,22.88z" fill="#fff" id="svg_58"/>
      <path d="m124.5,131.28l-0.54,-1.57c0,-0.13 -4.56,-13.24 -9,-16.55a33.45,33.45 0 0 1 -4.73,-4.12c1.11,5.81 3,21.78 3.58,32c0.21,3.79 0.36,6.79 0.46,9.12c1.47,0 6.87,0.18 19,0.18l0.29,0c0,-3.48 -0.18,-20.52 0.52,-25.34a50.33,50.33 0 0 0 -2.41,-6.22c-1.32,1.33 -6.36,6.65 -6.95,10.86l-0.22,1.64z" fill="#fff" id="svg_59"/>
      <path d="m115.41,112.53c3.85,2.86 7.57,12.21 8.84,15.65c1.33,-4.28 5.82,-8.93 6.94,-10l-3.5,-4.85l-1.09,0c-3,0 -4.53,-1.09 -7.09,-2.91a64.12,64.12 0 0 0 -5.87,-3.8a17.11,17.11 0 0 1 -2.06,-1.38a2.65,2.65 0 0 0 -1.73,2.13c0.31,0.44 1.7,2.28 5.56,5.16z" fill="#fff" id="svg_60"/>
      <path d="m101.62,155.12a0.82,0.82 0 0 1 0.55,0.44l0,0.06l2.32,-3.68l0,0c0,-0.74 0,-1.49 0,-2.23s-0.05,-1.49 -0.11,-2.23a27.45,27.45 0 0 0 -0.71,-4.43a27.64,27.64 0 0 1 1.1,4.38c0.12,0.75 0.24,1.49 0.31,2.25c0,0.38 0.08,0.76 0.1,1.14l0.25,-0.39l1.78,0c-0.08,-3.19 -0.22,-7.3 -0.47,-11.75c-0.07,-0.55 -0.16,-1.1 -0.27,-1.64a26.38,26.38 0 0 0 -0.69,-2.73a25.68,25.68 0 0 0 -1,-2.65a26.47,26.47 0 0 0 -1.25,-2.54a26.51,26.51 0 0 1 1.42,2.46a26,26 0 0 1 1.16,2.61c0.13,0.34 0.25,0.7 0.37,1c-0.22,-3.15 -0.49,-6.4 -0.85,-9.57c-1.24,-11.06 -2.2,-14 -2.53,-14.72l-2.71,1.41a2.77,2.77 0 0 0 -0.71,0.6a3.69,3.69 0 0 0 -0.67,1.2a5.6,5.6 0 0 0 -0.26,1.41a6.6,6.6 0 0 0 0.15,1.48a6.7,6.7 0 0 1 -0.27,-1.46a5.89,5.89 0 0 1 0.07,-1.54a4.18,4.18 0 0 1 0.31,-0.95l-1.81,0.95c-0.71,0.36 -1.67,0.73 -2.69,1.14c-2.6,1 -5.85,2.31 -6.46,3.81a1.22,1.22 0 0 0 0,1a32.67,32.67 0 0 0 2.07,3.25q1.14,1.6 2.38,3.13q-1.39,-1.39 -2.69,-2.88a35,35 0 0 1 -2.2,-2.76c-1.33,1.09 -6.61,5.89 -9.26,15.14c-2,7 -4.22,15.86 -4.78,18.08c9.45,0.28 27.76,1.2 27.95,1.21l0.1,0z" fill="#fff" id="svg_61"/>
      <path d="m75.59,161.4c2.77,0.2 19.41,1.05 22.2,1.19l3.44,-5.45l-0.11,0a1.83,1.83 0 0 0 0.26,-1.09c-1.66,-0.08 -19.42,-1 -28.31,-1.21l0,-0.05c-2.21,0 -2.21,0.91 -2.21,1.64c0,0.34 0,0.87 -0.08,1.49a17.44,17.44 0 0 0 -0.07,2.73c0.08,0.44 2.51,0.63 3.67,0.72l1.21,0.03z" fill="#fff" id="svg_62"/>
      <path d="m190,206.52a0.61,0.61 0 0 0 -0.53,0.12a0.62,0.62 0 0 0 -0.23,0.5l0,0c0.11,5.1 2.52,11.56 2.54,11.62l0,0.07l0,0.05a27.84,27.84 0 0 1 0.45,3.24c-0.17,-0.53 -0.36,-1.06 -0.57,-1.58a26.68,26.68 0 0 1 -0.62,4a6.24,6.24 0 0 0 0.55,4.12l0.31,0.55l0,0a9.06,9.06 0 0 0 0.65,1a8.61,8.61 0 0 1 -1.38,-1c-3.33,0.27 -5.6,3.71 -7.44,6.49l0,0a4.36,4.36 0 0 0 -0.49,4.41a5.2,5.2 0 0 1 1.83,-0.57a0.5,0.5 0 0 1 0.35,0.11c0.34,0.25 2.15,3 2.07,4c0,0.28 -0.09,0.73 -0.17,1.3a37,37 0 0 0 -0.42,3.69a1.08,1.08 0 0 0 0.24,0.85c0.48,0.48 1.85,0.41 3.43,0.33a2.23,2.23 0 0 0 1.67,-0.59a0.74,0.74 0 0 0 0.14,-0.57l-0.11,-0.5l0.14,0l0.46,-4.64l0.27,4.65a32.3,32.3 0 0 0 3.73,-0.13c1.21,-0.15 1.3,-0.74 1.3,-0.77l0,0a25.32,25.32 0 0 0 0.22,-2.62c0,-0.9 0,-1.81 0,-2.71c0.16,0.89 0.29,1.79 0.39,2.7s0.14,1.55 0.16,2.34a30.88,30.88 0 0 0 4,-0.08a1.21,1.21 0 0 0 1,-1.36l0,-0.45l0.06,0a20.14,20.14 0 0 0 -0.07,-4a21.43,21.43 0 0 1 0.53,2.18a17.91,17.91 0 0 1 0.25,1.86c1.7,0.07 4.29,0 4.91,-0.58c0.07,-0.07 0.07,-0.11 0.07,-0.12c0,-0.48 0.15,-1.29 0.29,-2.23c0.21,-1.37 0.6,-3.93 0.36,-4.34c-0.47,-0.8 -3.83,-8.48 -4,-8.81l-0.08,-0.19l0,0l-0.57,-2.06l1,1.39l1.57,-2.66a0.25,0.25 0 0 0 0,-0.28l-1.39,-1.77l0,0c-0.13,-0.2 -0.29,-0.41 -0.45,-0.61s-0.5,-0.59 -0.77,-0.87c0.35,0.18 0.69,0.37 1,0.57s0.39,0.25 0.59,0.39c0.66,-1.31 1.83,-6 3.16,-12.67a0.75,0.75 0 0 0 -0.7,-0.9a101.83,101.83 0 0 1 -11,-1.14c-4.25,-0.7 -7.09,-1.33 -8.7,-1.73z" fill="#22c9ad" id="svg_63"/>
      <path d="m98.38,247.21a1.24,1.24 0 0 0 0.27,-1c0,-1.25 -0.26,-2.83 -0.42,-4c-0.08,-0.61 -0.15,-1.09 -0.17,-1.39c-0.08,-1 1.72,-4 2.06,-4.24s0.53,-0.26 2.1,0.46a0.09,0.09 0 0 0 0.07,0a0.1,0.1 0 0 0 0.05,-0.05a5,5 0 0 0 -0.53,-4.71l0,0a33,33 0 0 0 -2.93,-4.28a6.9,6.9 0 0 0 -4.51,-2.76a9,9 0 0 1 -1.37,1.13a9.41,9.41 0 0 0 0.67,-1.14l0,0l0.28,-0.54a7.22,7.22 0 0 0 0.56,-4.48a30.69,30.69 0 0 1 -0.62,-4.28c-0.21,0.56 -0.4,1.13 -0.57,1.7a31.86,31.86 0 0 1 0.45,-3.49l0,0l0,-0.07c0,-0.07 2.44,-7 2.54,-12.53l0,0a0.73,0.73 0 0 0 -0.27,-0.59a0.55,0.55 0 0 0 -0.49,-0.11c-1.64,0.43 -4.48,1.11 -8.74,1.84a94.84,94.84 0 0 1 -11,1.23a0.72,0.72 0 0 0 -0.53,0.28a0.9,0.9 0 0 0 -0.17,0.72c1.32,7.15 2.5,12.21 3.16,13.64c0.19,-0.15 0.38,-0.28 0.57,-0.41s0.68,-0.44 1,-0.63c-0.27,0.3 -0.52,0.61 -0.76,0.92a7.59,7.59 0 0 0 -0.46,0.67l0,0l-0.18,0.25l0,0l-1.14,1.65a0.34,0.34 0 0 0 0,0.36l1.57,2.85l1,-1.51l-0.58,2.22l0,0l-0.07,0.17l0,0c-0.14,0.35 -3.51,8.62 -4,9.48c-0.25,0.45 0.13,3.12 0.35,4.71c0.14,1 0.26,1.88 0.29,2.39c0,0 0,0.08 0.1,0.17c0.59,0.53 2.84,0.69 4.88,0.61c0.05,-0.68 0.14,-1.36 0.26,-2s0.32,-1.58 0.53,-2.35a22.83,22.83 0 0 0 0,4.74l0,0a0.55,0.55 0 0 1 0,0.15a1.27,1.27 0 0 0 1,1.38a28.57,28.57 0 0 0 4,0.08c0,-0.86 0.07,-1.7 0.16,-2.55s0.23,-1.95 0.39,-2.91c0,1 0,2 0,2.92s0.08,1.68 0.18,2.5l0,0l0,0.39l0,0s0.09,0.68 1.31,0.84a30.07,30.07 0 0 0 3.73,0.15l0.28,-5l0.49,5.43l0,0a0.47,0.47 0 0 1 0,0.13a0.91,0.91 0 0 0 0.2,0.68a2.27,2.27 0 0 0 1.61,0.57c1.56,0.03 2.91,0.1 3.4,-0.39z" fill="#22c9ad" id="svg_64"/>
      <path d="m106.31,246.85l-0.07,0.09l0.09,0l2.26,0.75l-2.28,-0.84z" fill="#ce2020" id="svg_65"/>
      <path d="m100.35,250.85l2.13,0.73a6.36,6.36 0 0 1 0.28,-0.88l-2.41,-0.83l0,0.98z" fill="#ce2020" id="svg_66"/>
      <path d="m101.92,237.82l0,0a6,6 0 0 0 -1.33,-0.5c-0.37,0.48 -1.76,2.89 -1.71,3.5c0,0.28 0.09,0.77 0.17,1.35l0.06,0.46l3.25,1.36c0.61,0.25 1,0.56 1.05,1c0.14,0.57 -0.27,1.06 -0.63,1.5l-0.22,0.27c-0.4,0.53 -1.4,1.78 -1.93,2.44l2.36,0.81l0.57,-0.78a9.09,9.09 0 0 1 1,-1.38l1.48,-1.86l4.74,1.81l0,0l0.31,0.18l0.35,0.13l0,0.06l0,0l-0.16,0.27l-0.15,0.39l-0.06,0l-0.52,0.92a7.94,7.94 0 0 1 -0.92,2.37l3.22,1.1l5.75,-10l-1,-0.31l-2.78,4.54l2.41,-4.66l-15.31,-4.97zm12.82,6.2a7.8,7.8 0 0 1 -0.33,0.83l-0.09,0.2a1.2,1.2 0 0 1 -0.12,0.24a0.75,0.75 0 0 1 -0.52,0.24a3.55,3.55 0 0 1 -0.92,-0.05a16.17,16.17 0 0 1 -1.71,-0.4c-1.12,-0.32 -2.23,-0.68 -3.32,-1.06c-2.2,-0.75 -4.38,-1.53 -6.59,-2.24c2.25,0.55 4.47,1.26 6.68,2c1.11,0.34 2.21,0.7 3.32,1a15.92,15.92 0 0 0 1.67,0.38a3.23,3.23 0 0 0 0.81,0a0.41,0.41 0 0 0 0.26,-0.1a1.38,1.38 0 0 0 0.07,-0.15l0.09,-0.2a7.58,7.58 0 0 0 0.33,-0.78a0.68,0.68 0 0 0 0,-0.66a1.41,1.41 0 0 0 -0.66,-0.37l-0.82,-0.29l-3.29,-1.13c-2.19,-0.75 -4.39,-1.5 -6.57,-2.28q3.34,1 6.66,2c1.11,0.35 2.21,0.69 3.31,1.06l0.83,0.28a1.74,1.74 0 0 1 0.83,0.48a0.84,0.84 0 0 1 0.19,0.51a1.52,1.52 0 0 1 -0.11,0.47l0,0.02z" fill="#ce2020" id="svg_67"/>
      <path d="m102,244.7l-2.83,-1.18c0,0.3 0.07,0.62 0.11,0.93c1.37,0.56 2.56,1.12 3,1.31c0.19,-0.23 0.38,-0.49 0.34,-0.64s-0.09,-0.22 -0.62,-0.42z" fill="#ce2020" id="svg_68"/>
      <path d="m60.55,230.41a2,2 0 0 1 -1,-0.73c0.07,0.66 0.6,1.17 2.12,1.73c2.24,0.82 11.41,4.06 12.75,4.56c0,-0.24 0,-0.47 0,-0.67l-13.87,-4.89z" fill="#ce2020" id="svg_69"/>
      <path d="m73.86,230.24l-2.14,-0.8c-0.71,-0.26 -7.32,-2.57 -8,-2.8a4.23,4.23 0 0 0 -1.06,-0.23a0.65,0.65 0 0 0 -0.41,0.12c-0.06,0 -0.08,0.11 -0.13,0.15l-0.14,0.26a5.61,5.61 0 0 0 -0.49,1a0.6,0.6 0 0 0 0,0.43a0.82,0.82 0 0 0 0.32,0.32c0.63,0.33 1.37,0.61 2.06,0.92l8,2.91c0.7,0.31 1.4,0.6 2.09,0.91c-1.45,-0.47 -8.79,-3 -10.21,-3.54l-1.07,-0.41a11.57,11.57 0 0 1 -1.07,-0.47a1.17,1.17 0 0 1 -0.47,-0.47a1,1 0 0 1 0,-0.69a5.69,5.69 0 0 1 0.51,-1.07l0.14,-0.25a0.93,0.93 0 0 1 0.24,-0.28a1,1 0 0 1 0.66,-0.19a4.52,4.52 0 0 1 1.16,0.26c0.73,0.25 7.34,2.56 8,2.86l4.09,1.78l0.59,-1.41l-14,-4.65a1.22,1.22 0 0 0 -1.4,0.66l-1.13,2.07a1.49,1.49 0 0 0 0,1.29a1.29,1.29 0 0 0 0.83,0.75l13.62,4.82a1.14,1.14 0 0 1 0.1,-0.28c0.16,-0.29 0.72,-1.62 1.41,-3.25c-0.73,-0.24 -1.41,-0.48 -2.1,-0.72z" fill="#ce2020" id="svg_70"/>
      <path d="m139.62,67.49a6.74,6.74 0 0 1 -1.86,-0.84a5.4,5.4 0 0 0 1.73,1.16a10.59,10.59 0 0 0 2,0.67a17.77,17.77 0 0 0 4.16,0.45a18.73,18.73 0 0 0 4.16,-0.45a11.87,11.87 0 0 0 2,-0.64a6.2,6.2 0 0 0 1.78,-1.09a8.14,8.14 0 0 1 -1.9,0.76a16.05,16.05 0 0 1 -2,0.42l-0.87,0.11a4.36,4.36 0 1 0 -6.8,0l-0.44,-0.06a13.58,13.58 0 0 1 -1.96,-0.49z" fill="#3a1b01" id="svg_71"/>
      <path d="m117.08,69.4a18.72,18.72 0 0 0 4.1,-0.83a11.87,11.87 0 0 0 1.93,-0.82a6.2,6.2 0 0 0 1.67,-1.25a8.15,8.15 0 0 1 -1.82,0.93a16,16 0 0 1 -1.96,0.57l-0.86,0.19a4.36,4.36 0 1 0 -6.78,0.57l-0.44,0a13.64,13.64 0 0 1 -2,-0.27a6.75,6.75 0 0 1 -1.92,-0.67a5.4,5.4 0 0 0 1.83,1a10.57,10.57 0 0 0 2,0.48a17.75,17.75 0 0 0 4.25,0.1z" fill="#3a1b01" id="svg_72"/>
      <path d="m122,90.69s2.64,1.88 9.77,2.09a28.59,28.59 0 0 0 13.35,-2.9a37.89,37.89 0 0 0 4.31,-2.35a18.79,18.79 0 0 1 0,5.16a58.32,58.32 0 0 1 -15.13,2.56c-4.64,0.16 -10.52,-1.5 -12.32,-2.75l-0.06,0.8s4.54,2.59 12.25,2.62a57.14,57.14 0 0 0 15.23,-2.34s-0.61,3.07 -2.18,4.22s-8.45,1.86 -13.44,1.12a33.6,33.6 0 0 0 8.73,0.83c4.54,-0.22 7.17,-1.73 7.71,-4a17.48,17.48 0 0 0 0.74,-6a40,40 0 0 0 -0.58,-4.83a31.11,31.11 0 0 1 -13.11,6.08a28.72,28.72 0 0 1 -13.15,-0.7c-0.16,-0.13 -2.11,-1 -2.11,-1l-0.01,1.39z" fill="#dbd5d2" id="svg_73"/>
      <path d="m134.88,81.47s-0.46,4.73 -4.91,4.73a5.58,5.58 0 0 1 -5.92,-6.2s0.76,4.39 4.77,5.09a5.31,5.31 0 0 0 6.06,-3.62z" fill="#de9886" id="svg_74"/>
      <path d="m129.86,67.37a33.9,33.9 0 0 0 -1.5,-6.78a33.81,33.81 0 0 1 1.24,6.81a18.48,18.48 0 0 1 -0.65,6.79l0.49,0.16a18.89,18.89 0 0 0 0.42,-6.98z" fill="#fff2e7" id="svg_75"/>
      <ellipse cx="146.97" cy="74.34" fill="#fff2e7" id="svg_76" rx="6.53" ry="1.38" transform="matrix(1, -0.07, 0.07, 1, -4.84, 10.46)"/>
      <ellipse cx="115.11" cy="74.82" fill="#fff2e7" id="svg_77" rx="4.03" ry="1.47"/>
      <circle cx="127.06" cy="78.64" fill="#fff2e7" id="svg_78" r="1.74"/>
      <path d="m192.22,222.13c-0.17,-0.53 -0.36,-1.06 -0.57,-1.58a26.68,26.68 0 0 1 -0.62,4a6.24,6.24 0 0 0 0.55,4.12l0.31,0.55l0,0a8.89,8.89 0 0 0 0.55,0.86a6,6 0 0 1 -1,-4.09c0.44,-1.99 0.78,-3.86 0.78,-3.86z" fill="#d67822" id="svg_79"/>
      <path d="m208.21,225.53a0.25,0.25 0 0 0 0,-0.28l-0.29,-0.37c-0.32,0.66 -1.2,2.19 -1.41,2.47l-0.82,-0.56l1,1.39l1.52,-2.65z" fill="#d67822" id="svg_80"/>
      <path d="m191.77,218.83s-0.83,-5.34 -1.27,-8s-1,-3.45 0.45,-3a51.25,51.25 0 0 0 7.34,1.56c3.72,0.52 7.42,1 9.13,1.15s1.92,-0.3 1.45,2.52c-0.32,1.9 -0.68,3.77 -1,5.29s-1,3.77 -1,3.77l-1.28,-0.1c0.35,0.18 0.69,0.37 1,0.57s0.39,0.25 0.59,0.39c0.66,-1.31 1.83,-6 3.16,-12.67a0.75,0.75 0 0 0 -0.7,-0.9a101.83,101.83 0 0 1 -11,-1.14c-4.26,-0.68 -7.1,-1.31 -8.74,-1.71a0.61,0.61 0 0 0 -0.53,0.12a0.62,0.62 0 0 0 -0.23,0.5l0,0c0.11,5.1 2.52,11.56 2.54,11.62l0.09,0.03z" fill="#d67822" id="svg_81"/>
      <path d="m196.93,247.49c-0.7,0.1 -3.42,0.19 -3.42,0.19l-0.71,-4.1l0.27,4.65a32.3,32.3 0 0 0 3.73,-0.13c1.21,-0.15 1.3,-0.74 1.3,-0.77l0,0c0,-0.07 0,-0.13 0,-0.2a2.34,2.34 0 0 1 -1.17,0.36z" fill="#d67822" id="svg_82"/>
      <path d="m206.49,229.51c0.07,0.28 0.15,0.56 0.22,0.87a23,23 0 0 0 1.55,4.73c0.81,1.83 1.32,2.73 1.36,3.58s-0.55,4.31 -0.64,5.08s-0.45,0.68 -1.7,0.81a14.21,14.21 0 0 1 -2.37,0a11.27,11.27 0 0 0 -1.06,-3.5a21.43,21.43 0 0 1 0.53,2.18a17.91,17.91 0 0 1 0.25,1.86c1.7,0.07 4.29,0 4.91,-0.58c0.07,-0.07 0.07,-0.11 0.07,-0.12c0,-0.48 0.15,-1.29 0.29,-2.23c0.21,-1.37 0.6,-3.93 0.36,-4.34c-0.39,-0.67 -3.02,-6.64 -3.77,-8.34z" fill="#d67822" id="svg_83"/>
      <path d="m202,246.34c-1.06,0.06 -2.75,0 -2.75,0s-0.46,-2.77 -1,-4.42c0.16,0.89 0.29,1.79 0.39,2.7s0.14,1.55 0.16,2.34a30.88,30.88 0 0 0 4,-0.08a1.1,1.1 0 0 0 1,-0.93a4.44,4.44 0 0 1 -1.8,0.39z" fill="#d67822" id="svg_84"/>
      <path d="m190.27,249.38c-1.38,0 -3.06,0.39 -2.93,-1s0.45,-3.49 0.56,-4.27s0.18,-0.82 -0.67,-2.45a7.47,7.47 0 0 0 -1.87,-2.69c-0.38,-0.21 -1.81,0.5 -1.81,0.5a3.61,3.61 0 0 1 0.48,-3.23a19.87,19.87 0 0 1 3.9,-4.8a8.16,8.16 0 0 1 2.88,-1.62l1.68,0.4a8.61,8.61 0 0 1 -1.38,-1c-3.33,0.27 -5.6,3.71 -7.44,6.49l0,0a4.36,4.36 0 0 0 -0.49,4.41a5.2,5.2 0 0 1 1.83,-0.57a0.5,0.5 0 0 1 0.35,0.11c0.34,0.25 2.15,3 2.07,4c0,0.28 -0.09,0.73 -0.17,1.3a37,37 0 0 0 -0.42,3.69a1.08,1.08 0 0 0 0.24,0.85c0.48,0.48 1.85,0.41 3.43,0.33a2.23,2.23 0 0 0 1.67,-0.59a0.7,0.7 0 0 0 0.13,-0.28a4.79,4.79 0 0 1 -2.04,0.42z" fill="#d67822" id="svg_85"/>
      <path d="m93.41,225.65c0.08,-0.14 0.17,-0.27 0.24,-0.41l0,0l0.28,-0.54a7.22,7.22 0 0 0 0.56,-4.48a30.69,30.69 0 0 1 -0.62,-4.28c-0.21,0.56 -0.4,1.13 -0.57,1.7a28.36,28.36 0 0 1 0.86,5.4a6.13,6.13 0 0 1 -0.75,2.61z" fill="#d67822" id="svg_86"/>
      <path d="m76.76,209.52c-0.47,-2.94 -0.51,-3.24 -0.64,-3.88s0,-0.9 1.71,-1a53.37,53.37 0 0 0 8.36,-0.9c5.12,-0.85 8.36,-2.13 9,-2s0.13,1.11 -0.13,3.07s-2.32,9 -1.8,12.81a31.86,31.86 0 0 1 0.45,-3.49l0,0l0,-0.07c0,-0.07 2.44,-7 2.54,-12.53l0,0a0.73,0.73 0 0 0 -0.27,-0.59a0.55,0.55 0 0 0 -0.49,-0.11c-1.64,0.43 -4.48,1.11 -8.74,1.84a94.84,94.84 0 0 1 -11,1.23a0.72,0.72 0 0 0 -0.53,0.28a0.9,0.9 0 0 0 -0.17,0.72c1.32,7.15 2.5,12.21 3.16,13.64c0.19,-0.15 0.38,-0.28 0.57,-0.41s0.68,-0.44 1,-0.63l-1.42,0.42s-1.13,-5.46 -1.6,-8.4z" fill="#d67822" id="svg_87"/>
      <path d="m78,221.61c-0.21,-0.42 -0.34,-0.32 0.39,-1.51s1.5,-2.62 1.5,-2.62c-0.27,0.3 -0.52,0.61 -0.76,0.92a7.59,7.59 0 0 0 -0.46,0.67l0,0l-0.18,0.25l0,0l-1.19,1.68a0.34,0.34 0 0 0 0,0.36l1.57,2.85l1,-1.51l-0.92,0.55s-0.77,-1.25 -0.95,-1.64z" fill="#d67822" id="svg_88"/>
      <path d="m91.5,245.16a30.43,30.43 0 0 1 -4.13,-0.57l0,0.2l0,0s0.09,0.68 1.31,0.84a30.07,30.07 0 0 0 3.73,0.15l0.28,-5s-0.34,4.31 -1.19,4.38z" fill="#d67822" id="svg_89"/>
      <path d="m101.81,232.32l0,0a33,33 0 0 0 -2.93,-4.32a6.9,6.9 0 0 0 -4.51,-2.76a9,9 0 0 1 -1.37,1.13a7,7 0 0 0 1.7,-0.47s2.09,0.55 4.52,3.63s2.64,5.93 2.56,6.44a1.72,1.72 0 0 0 -2.43,0.72c-0.9,1.62 -2.18,3.2 -2,3.84s0.3,4.22 0.43,5.2s-2.63,1.34 -4.54,0.56a0.91,0.91 0 0 0 0.2,0.68a2.27,2.27 0 0 0 1.61,0.57c1.56,0.09 2.9,0.16 3.4,-0.33a1.24,1.24 0 0 0 0.27,-1c0,-1.25 -0.26,-2.83 -0.42,-4c-0.08,-0.61 -0.15,-1.09 -0.17,-1.39c-0.08,-1 1.72,-4 2.06,-4.24s0.53,-0.26 2.1,0.46a0.09,0.09 0 0 0 0.07,0a0.1,0.1 0 0 0 0.05,-0.05a5,5 0 0 0 -0.6,-4.67z" fill="#d67822" id="svg_90"/>
      <path d="m86.34,242.71c-0.15,1.15 -0.19,1.24 -1.13,1.28a10.64,10.64 0 0 1 -3.5,-0.36a1.09,1.09 0 0 0 0.92,0.73a28.57,28.57 0 0 0 4,0.08c0,-0.86 0.07,-1.7 0.16,-2.55s0.23,-1.95 0.39,-2.91c-0.03,0.02 -0.69,2.57 -0.84,3.73z" fill="#d67822" id="svg_91"/>
      <path d="m80.56,241.23c-0.06,0.81 -0.28,0.79 -1.43,0.77a4.76,4.76 0 0 1 -2.6,-0.6a29.75,29.75 0 0 1 -0.77,-4.84c-0.15,-1.56 -0.26,-1.68 0.28,-2.75s2.9,-6.16 3.33,-7.44a16,16 0 0 0 0.45,-3.7l-0.58,2.22l0,0l-0.07,0.17l0,0c-0.14,0.35 -3.51,8.62 -4,9.48c-0.25,0.45 0.13,3.12 0.35,4.71c0.14,1 0.26,1.88 0.29,2.39c0,0 0,0.08 0.1,0.17c0.59,0.53 2.84,0.69 4.88,0.61c0.05,-0.68 0.14,-1.36 0.26,-2s0.32,-1.58 0.53,-2.35a18.28,18.28 0 0 0 -1.02,3.16z" fill="#d67822" id="svg_92"/>
      <polygon fill="#910606" id="svg_93" points="227.16 260.96 226.9 253.22 175.85 272.29 175.91 273.69 160.3 255.78 160.68 253.73 174.18 269.6 174.95 269.6 229.78 250.15 229.72 259.3 229.53 260.38 228.63 260.64 227.16 260.96"/>
      <path d="m166.47,101.81a19.63,19.63 0 0 0 -3.33,-3.61s-2.34,2.85 -4.41,5s-5.09,5 -6.4,6.33s-2.24,2.37 -4.35,2.81s-4.77,0.83 -4.77,0.83l-1.39,2a14.6,14.6 0 0 0 6.78,-1.17c4.07,-1.58 5.31,-2.79 7.91,-5.65a67.7,67.7 0 0 1 5.25,-5.55c1.41,-1.19 1.79,-1.58 1.79,-1.58s3.16,2.56 1.49,5l-1.36,1.92a56.31,56.31 0 0 0 -8.18,8.86c-2.9,4.27 -7.72,12.37 -7.72,12.37a36.14,36.14 0 0 0 -2.93,-5.2c-2.14,-3.3 -3.74,-4 -4.45,-4.35a10,10 0 0 0 -1.5,-0.64l-0.8,1.54c2.42,1.3 6.53,4.72 9.41,11.42a0.3,0.3 0 0 0 0.54,0a89.69,89.69 0 0 1 6,-10.23c3.84,-5.57 6.53,-9 9.79,-11.84a19.16,19.16 0 0 0 4.41,-5.25l-1.66,-0.51a2.75,2.75 0 0 0 -0.12,-2.5z" fill="#b7b7b7" id="svg_94"/>
      <path d="m208.28,157.28a12.31,12.31 0 0 0 -1.25,-3.84a1.32,1.32 0 0 0 -1.76,-0.61l-2.27,-7.16s-3.75,-12.45 -6.65,-18.08s-5.93,-9.13 -7.51,-10s-2.26,-1.15 -2.26,-1.15s0.29,-1.59 -1.7,-2.87s-3.87,-2.3 -6.27,-3.55a28,28 0 0 0 -3.77,-1.7l-0.93,-0.38s-0.93,8.54 -1.12,12.57s-0.8,25.61 -0.8,25.61a8.93,8.93 0 0 1 2.52,1.07a6.77,6.77 0 0 1 0.47,0.77a1.94,1.94 0 0 0 0.38,-0.14a0.6,0.6 0 0 0 0.25,-0.2a2.65,2.65 0 0 0 -1,-1.91a2.73,2.73 0 0 0 -1.54,-0.49s0.29,-11.58 0.55,-18.42s0.8,-15 0.8,-15a12.19,12.19 0 0 1 0.33,2.68a27.88,27.88 0 0 0 1,-4.67a54.11,54.11 0 0 1 7,3.61c3.36,2.11 3.63,3.39 3.53,4.35a97.42,97.42 0 0 1 -2.93,11.23s1.18,-2.63 2.41,-5.87a34.09,34.09 0 0 0 1.54,-4.73a23.23,23.23 0 0 1 7.31,8.64c3.2,6.1 6.1,16.81 7.21,20.3c0.6,1.89 1.2,3.62 1.62,4.82a50.65,50.65 0 0 1 -10.32,6.65a109.15,109.15 0 0 1 -12.29,4.91c-0.29,-0.69 -0.65,-1.59 -1.08,-2.73c-1.25,-3.26 -3.52,-12.32 -3.52,-12.32s4.1,-3.92 4.53,-9.37a16.22,16.22 0 0 1 -5.71,9l-0.13,1.18a104.72,104.72 0 0 0 2.7,10.29a49.09,49.09 0 0 0 2.54,6l-0.45,0.26s-0.87,0.68 -0.9,1.15a4,4 0 0 0 0.51,2.67c0.75,1.41 1,2.09 2.07,1.77s2.67,-0.73 5.29,-1.6a68,68 0 0 0 11.32,-4.8c4.06,-2.27 7.2,-4.73 8.51,-5.5s1.9,-1.25 1.77,-2.44zm-2.67,1.27a78.51,78.51 0 0 1 -13.05,7.72c-6.7,3.07 -9,3.55 -10.32,3.84s-1.47,-0.7 -1.76,-1.44s-0.9,-2 -0.19,-2.5a3.59,3.59 0 0 1 1.34,-0.58l-0.11,-0.23a67.13,67.13 0 0 0 22.58,-11.55l0.48,-0.26s1,0.09 1.62,1.88s0.74,2.18 -0.58,3.12l-0.01,0z" fill="#b7b7b7" id="svg_95"/>
      <path d="m134.09,124l-1.49,-4.61l-0.27,0.23l-0.53,-1.33a29.75,29.75 0 0 0 -4.38,5c-2.85,3.81 -3.1,6.08 -3.1,6.08s-0.61,-1.54 -2.11,-5.28a39.69,39.69 0 0 0 -3.59,-7a16.27,16.27 0 0 0 -3.6,-4.27a43.54,43.54 0 0 1 -4.17,-3.86a2,2 0 0 1 0.62,-2.6a9.13,9.13 0 0 0 0.89,0.73c0.87,0.68 2.09,1.51 3.73,2.6a32.36,32.36 0 0 1 3.2,2.47a14,14 0 0 0 6.4,2.82a15,15 0 0 0 3.63,0a13.69,13.69 0 0 1 -1.22,-2.09a12.51,12.51 0 0 1 -4.39,-0.47c-2.13,-0.68 -3.75,-2.3 -5.67,-3.63s-6.4,-4 -6.4,-4c-1.49,0 -2.13,2.22 -2.13,2.22l0.3,2.22l0.21,0.62l-0.1,-0.05l0.32,1.18s1.66,11.13 2.24,18s1.68,21.33 1.68,21.33l0.85,0s-0.77,-17.19 -1.58,-24c-0.65,-5.42 -1.65,-11.78 -2,-14.12c1.51,1.42 3.48,2 5.56,4.65c2.56,3.28 3.33,6.53 4.91,10.36c1.11,2.7 2,4.48 2.41,5.3a0.2,0.2 0 0 0 0.38,-0.06c1.06,-5.15 4.91,-9.2 6.93,-11.58l1.62,3.6a48,48 0 0 0 -1.1,13.22c0.32,10 0.26,12.86 0.26,12.86l1.54,0.06s0,-11.39 0.13,-17s0.55,-8.91 0.55,-8.91l-0.48,-0.88l-0.05,0.19z" fill="#b7b7b7" id="svg_96"/>
      <path d="m88.33,120.38a3.3,3.3 0 0 1 0.44,-1.51c0.51,-0.93 4.29,-2.46 6.37,-3.14a11.59,11.59 0 0 0 3,-1.38a5.29,5.29 0 0 0 0.76,2.65a6.7,6.7 0 0 1 -0.27,-1.46a5.89,5.89 0 0 1 0.07,-1.54a4.18,4.18 0 0 1 0.31,-0.95l-1.81,0.95c-0.71,0.36 -1.67,0.73 -2.69,1.14c-2.6,1 -5.85,2.31 -6.46,3.81a1.22,1.22 0 0 0 0,1c0.11,0.14 0.2,0.28 0.28,0.43z" fill="#b7b7b7" id="svg_97"/>
      <path d="m99.74,113.78c0.77,-0.64 3.07,-2 3.3,-1.06c0.29,1.21 1.37,7.35 1.92,12.8c0.32,3.17 0.69,6.56 0.69,6.56l-0.31,0.11c0.31,0.65 0.6,1.3 0.85,2c0.13,0.34 0.25,0.7 0.37,1c-0.22,-3.15 -0.49,-6.4 -0.85,-9.57c-1.24,-11.06 -2.2,-14 -2.53,-14.72l-2.71,1.41a2.77,2.77 0 0 0 -0.71,0.6a3.69,3.69 0 0 0 -0.67,1.2a5.47,5.47 0 0 0 -0.23,1.18a2.45,2.45 0 0 1 0.88,-1.51z" fill="#b7b7b7" id="svg_98"/>
      <path d="m103.74,151.81l-2.3,2.24a27.47,27.47 0 0 1 -4.8,-0.26c-3.65,-0.38 -21.18,-1 -21.18,-1s2.11,-7.55 4,-14.91a48,48 0 0 1 6.69,-14.75c0.9,-1 1.28,-1.12 2.72,0.29a33,33 0 0 0 3.64,2.92c-0.11,-0.11 -0.27,-0.27 -0.44,-0.47c-0.77,-0.78 -1.52,-1.58 -2.25,-2.41a35,35 0 0 1 -2.2,-2.76c-1.33,1.09 -6.61,5.89 -9.26,15.14c-2,7 -4.22,15.86 -4.78,18.08c9.45,0.28 27.76,1.2 27.95,1.21l0.06,0a0.82,0.82 0 0 1 0.55,0.44l0,0.06l2.32,-3.68l0,0c0,-0.74 0,-1.49 0,-2.23s-0.05,-1.49 -0.11,-2.23a27.45,27.45 0 0 0 -0.71,-4.43a37.56,37.56 0 0 1 0.1,8.75z" fill="#b7b7b7" id="svg_99"/>
      <path d="m106.78,138.66c-0.07,-0.55 -0.16,-1.1 -0.27,-1.64a26.38,26.38 0 0 0 -0.69,-2.73a25.68,25.68 0 0 0 -1,-2.65a26.47,26.47 0 0 0 -1.25,-2.54a49.35,49.35 0 0 1 2.82,18.18l-0.7,0.06l-2,-4.3a27.64,27.64 0 0 1 1.1,4.38c0.12,0.75 0.24,1.49 0.31,2.25c0,0.38 0.08,0.76 0.1,1.14l0.25,-0.39l1.78,0c-0.06,-3.2 -0.23,-7.3 -0.45,-11.76z" fill="#b7b7b7" id="svg_100"/>
      <path d="m73.08,154.73c-1,0.12 -0.95,0.92 -1,2.65s-0.74,2.94 2.75,3.2s10.88,0.38 15.51,0.67s7,0.26 7,0.26l4,-5.51l0.59,1.1l-3.85,5.9s-17.5,-0.86 -17.72,-0.86s-7.9,-0.58 -8.86,-0.77s-1.41,-0.38 -1.31,-1.92s0.1,-4 0.7,-4.51a3.05,3.05 0 0 1 2,-0.58c0.46,0.07 0.19,0.37 0.19,0.37z" fill="#b7b7b7" id="svg_101"/>
      <path d="m129,104.51a10.42,10.42 0 0 1 6.53,-2.07a9.24,9.24 0 0 1 6.36,2.07a17.75,17.75 0 0 0 -6.68,-0.84a24.72,24.72 0 0 0 -6.21,0.84z" fill="#de9886" id="svg_102"/>
      <path d="m138.78,103.59a18.6,18.6 0 0 0 -3.34,-0.34a14.82,14.82 0 0 0 -6.43,1.26a23.94,23.94 0 0 1 3.2,-0.53a28.32,28.32 0 0 1 3.23,-0.15a30.84,30.84 0 0 1 3.23,0.21c1.08,0.12 2.14,0.3 3.23,0.47a16.33,16.33 0 0 0 -3.12,-0.92z" fill="#3a1b01" id="svg_103"/>
      <ellipse cx="134.95" cy="106.68" fill="#fff2e7" id="svg_104" rx="4.79" ry="0.55"/>
      <path d="m173.47,51.12a41.54,41.54 0 0 1 -0.91,-12.67c0.48,-5.73 0.27,-12 -5,-15c-0.92,-0.53 -19.41,-11.18 -30.47,-14.39a78.93,78.93 0 0 1 10.47,6.11c4.61,3.17 12.46,9.25 13.22,14.35a55,55 0 0 1 0.44,10.07c-0.07,3.08 -0.13,5.52 0.72,7.66a2.77,2.77 0 0 1 2,2.93c1.09,0.55 5.77,2.67 9.1,4.15a3.79,3.79 0 0 0 0.43,-3.21zm-1.21,0.76l-7.63,-3.28a2.4,2.4 0 0 0 -1.9,-1.77a8.94,8.94 0 0 1 -0.64,-3.81c0,-2.69 -0.13,-7.74 -0.26,-11.23s-1,-6.11 -4.83,-9.76a73.1,73.1 0 0 0 -16.06,-11.36s7.9,3.63 14.17,6.78a99.6,99.6 0 0 1 13.27,7.63c2.6,1.92 3.4,6.6 3.4,9.58s-0.51,7.81 -0.29,10.4s0.8,5.09 0.8,5.79s-0.03,1.03 -0.03,1.03z" fill="#910606" id="svg_105"/>
      <path d="m163.31,49.7s-10.11,-4.31 -18.6,-7.51s-10.58,-4 -17.32,-2.9s-16.34,3.37 -21.07,4.56s-9.81,3.24 -10.54,5.42a6.1,6.1 0 0 0 0,3.94a6.91,6.91 0 0 1 4.47,-6.12c4.48,-1.79 7,-2.52 13.95,-4s15,-3.11 17.36,-3a35.19,35.19 0 0 1 7.63,1.45c2.64,0.77 20,7.34 20,7.34a22,22 0 0 0 3.88,1.62c0.66,-0.01 0.24,-0.8 0.24,-0.8z" fill="#910606" id="svg_106"/>
      <path d="m161,46.82c-0.65,-2.1 -0.6,-4.42 -0.53,-7.27a54.32,54.32 0 0 0 -0.44,-9.93c-0.52,-3.51 -5.22,-8.54 -12.89,-13.81c-6.68,-4.59 -13.18,-7.67 -15.08,-7.67c1.55,0.62 6.54,3.7 13.64,9.39s10.48,9.08 11.13,13.63a82.9,82.9 0 0 1 0.49,10.32a15,15 0 0 0 0.07,2c-2,-0.62 -12.37,-3.88 -19.7,-5.82l20.43,8.34l-0.06,-0.41l2.94,1.23z" fill="#d1d1d1" id="svg_107"/>
      <path d="m112.93,19.63c-5,3.13 -10.7,6.69 -10.44,11.34c0.3,5.31 0.59,10.35 0.69,11.94c0.69,-0.24 1.41,-0.47 2.15,-0.7c-0.05,-0.56 -0.46,-4.83 -0.7,-9.66c-0.26,-5.18 1.34,-6.46 6.21,-10.24c2.81,-2.18 5.26,-4.43 7.48,-6.32l-0.76,0.57c-1.33,1.01 -2.93,2.01 -4.63,3.07z" fill="#d1d1d1" id="svg_108"/>
      <path d="m163.46,72.71s0,8 0,13.41s0,9.55 -2.53,13.13a67.19,67.19 0 0 1 -8.61,9.82a123.3,123.3 0 0 0 9.26,-8.79c2.82,-3.24 3.71,-5.59 3.67,-7.68s-0.17,-6.23 -0.17,-9.9s0.17,-7.42 0.17,-7.42s-1.37,-0.28 -1.79,-2.57z" fill="#de9886" id="svg_109"/>
      <path d="m121.7,91.5a19.94,19.94 0 0 1 0.43,-2.24l-3.93,-2l2.8,2.74a19.75,19.75 0 0 0 -0.19,4.42l-3.27,-1.05l2.84,1.74l2,0.68a9.94,9.94 0 0 1 -0.68,-4.29z" fill="#de9886" id="svg_110"/>
      <path d="m170.92,55.49c-3.81,-0.67 -5.21,0.8 -5.57,3.45s-0.47,7.77 -0.47,7.77a1.33,1.33 0 0 1 0.49,1.34a2.12,2.12 0 0 1 -0.84,1.32s1.46,0.08 1.87,-1s0,-1.54 0,-1.54l1.6,-1.5l-2,0.7l-0.36,-0.21a4.39,4.39 0 0 1 2.3,-3a2.56,2.56 0 0 0 -2.43,1s0.38,-2.91 0.86,-4.77a3.19,3.19 0 0 1 3.77,-2.43a3.51,3.51 0 0 1 3.26,3.61s1.33,-4.07 -2.48,-4.74z" fill="#de9886" id="svg_111"/>
      <path d="m134.72,53.18c-0.23,0.63 0.31,2.28 0.72,3.39a1.46,1.46 0 0 0 1.68,1c2.06,-0.5 6.12,-2.2 9.85,-2.67c2.68,-0.34 7.07,0.51 8.83,0.88a0.55,0.55 0 0 0 0.39,-1c-1.84,-1.49 -6.09,-4.94 -9.21,-5.13a21.3,21.3 0 0 0 -6.89,1.35l1.34,-1.14c-2.05,0.51 -6.35,2.33 -6.71,3.32z" fill="#de9886" id="svg_112"/>
      <path d="m124,57a7,7 0 0 0 0.53,-3c-0.31,-1 -4.09,-2.74 -5.91,-3.25l1.18,1.11a15.17,15.17 0 0 0 -6,-0.91c-3.3,0.45 -6.12,3.24 -7.74,4.69a0.55,0.55 0 0 0 0.43,1c1.54,-0.35 4.95,-1.22 7.24,-0.9c3,0.42 6.37,1.9 8.27,2.5a1.64,1.64 0 0 0 2,-1.24z" fill="#de9886" id="svg_113"/>
      <path d="m107.71,91.86a144.39,144.39 0 0 0 0.06,-17.27a76.37,76.37 0 0 0 -1.77,-14.46c-0.51,-2.81 -1.92,-4.93 -1.79,-7.17c0.1,-1.82 0.49,-3.64 0.73,-5.37a0.73,0.73 0 0 1 0.54,-0.61c3,-0.77 9.23,-2.09 15.6,-3.37c8.87,-1.79 12.07,-1.71 17.79,-0.09c4.88,1.39 14.48,5 16.34,5.67s2.11,2.5 2.43,4.22s1,4 2,4.67s0.38,6.65 0.32,8.13s0.59,2 2.44,2.12c0,0 -1.32,-0.33 -1.16,-2.34s0.8,-5.09 0.42,-7.17s-1.38,-2.34 -1.57,-3.26s-0.64,-2.82 -1.09,-4.67s-0.74,-2.37 -2.72,-3.13s-14.43,-5.66 -18.2,-6.53s-5.21,-1.54 -9.95,-0.83s-23.13,5 -23.13,5l-1.7,0.48l0.15,1.07l0,0a17.29,17.29 0 0 1 -0.3,2.67a26.78,26.78 0 0 0 -0.45,3.6a11,11 0 0 0 0.77,3.83a2.61,2.61 0 0 0 -2.77,2c3,-1.55 3.32,1.66 4,7.12a65.21,65.21 0 0 1 0.61,9.47l1,0s0.26,7 0.16,10.3s-0.51,7.2 -0.16,9.47c1.11,7.18 5.89,9.53 5.89,9.53a17.13,17.13 0 0 1 -4.49,-13.08z" fill="#de9886" id="svg_114"/>
      <path d="m153,83.93a7.27,7.27 0 0 1 1.29,1.19a4.41,4.41 0 0 0 -1.26,-2.5a4.12,4.12 0 0 0 -2.07,-1.37a12.13,12.13 0 0 1 1.49,1.86l-2,2l0.35,1.41s1.73,10.2 -3,12.16s-10.13,1.07 -14.37,0.55a55.81,55.81 0 0 1 -10.43,-2.82l-0.53,0.06c7.07,3.78 20.76,6.08 26.27,2.88s2.72,-14 2.72,-14l1.54,-1.42z" fill="#de9886" id="svg_115"/>
      <path d="m126.28,75.21l1.87,-0.71a28.12,28.12 0 0 0 0.61,-6a29.32,29.32 0 0 0 -1.46,-8.73a55.79,55.79 0 0 1 0.57,9.52a17.88,17.88 0 0 1 -1.59,5.92z" fill="#de9886" id="svg_116"/>
      <path d="m164.78,74.91a3.76,3.76 0 0 0 3.3,0.68c2.26,-0.38 2.56,-3.2 2.52,-4.56s1.4,-7.32 1.4,-7.32c-0.85,1.88 -1.76,2.5 -2.59,8.08c-0.32,2.42 -2.13,4.06 -4.63,3.12z" fill="#de9886" id="svg_117"/>
      <path d="m129.65,113a5,5 0 0 0 -1.54,0.13l2.3,3.33l2,2.9l2.13,5.54l1.28,-1.66l-0.13,-0.43c-0.51,-2.39 -3.11,-6.87 -4.27,-8.27a16.38,16.38 0 0 1 3.58,0c2.64,0.21 5.08,1 6.7,0.64l1.32,-1.83s-6.61,-0.51 -7.68,-0.94s-5,0.59 -5.69,0.59z" fill="#de9886" id="svg_118"/>
      <path d="m208.48,164.93c-1.73,-3.26 -2.5,-4.86 -2.5,-4.86l-7,4.35a27.86,27.86 0 0 1 -7,3.61l-6.75,2.56a16.85,16.85 0 0 0 2.37,4.89a37.09,37.09 0 0 1 3,4.67s-1,6.46 -0.22,9.66s1.28,9.53 1.54,11.84a25.86,25.86 0 0 1 0,4.89l1.14,0.29l0.38,0s-0.18,-1.67 -0.31,-5a116.22,116.22 0 0 0 -1.7,-12a25.71,25.71 0 0 1 0.15,-10.73c0.67,-2.53 1.24,-2.62 1.84,-3.22a12.69,12.69 0 0 0 -2.5,1.93a40.17,40.17 0 0 1 -3.74,-6.49a35.05,35.05 0 0 0 10.2,-4.06a57.46,57.46 0 0 0 7.81,-5a35.48,35.48 0 0 1 3.87,8.61c1.25,4.54 0.29,17.37 -0.67,22.94s-2.39,14.69 -2.39,14.69l2.11,0.19s3.65,-19.13 3.71,-27.32s-1.62,-13.18 -3.34,-16.44z" fill="#de9886" id="svg_119"/>
      <path d="m97.54,162.88l-9.92,-0.61l-12.76,-0.67a11.71,11.71 0 0 0 -0.54,2.46a85,85 0 0 0 -0.32,8.94a81.5,81.5 0 0 0 0.77,9.75l2.73,20.6l1.62,-0.13s-2.81,-20 -3.5,-27.72s0.3,-12 0.3,-12s2.88,0.38 8.64,0.64s11.52,0.38 11.52,0.38l0.38,0.9l-2.11,4.57a10.34,10.34 0 0 0 -2.3,-2s0.77,3.71 1.07,5.54s0.26,3.63 -0.09,8.45s-1.41,7.29 -1.71,12.16a67.7,67.7 0 0 0 0,7.29l2.13,-0.51s-0.09,-2.43 0,-4.61s1.62,-12.5 1.83,-15.91a36.88,36.88 0 0 0 -0.72,-8l0.93,-1l2.62,-4.67l-0.11,-1.67l-0.46,-2.18z" fill="#de9886" id="svg_120"/>
      <path d="m137.13,56.86c2.06,-0.46 6.12,-2 9.85,-2.46c2.68,-0.31 7.07,0.47 8.83,0.82a0.5,0.5 0 0 0 0.39,-0.9c-1.84,-1.37 -6.09,-4.56 -9.21,-4.74a22.86,22.86 0 0 0 -6.91,1.17l1.34,-1.05c-2.06,0.49 -6.35,2.17 -6.71,3.09c-0.23,0.58 0.31,2.1 0.72,3.13a1.48,1.48 0 0 0 1.7,0.94z" fill="#3a1b01" id="svg_121"/>
      <path d="m113.71,55.16c3,0.39 6.37,1.75 8.27,2.3a1.65,1.65 0 0 0 2,-1.13a6,6 0 0 0 0.53,-2.75c-0.31,-0.89 -4.09,-2.52 -5.91,-3l1.18,1a16.32,16.32 0 0 0 -6,-0.84c-3.3,0.42 -6.12,3 -7.74,4.32a0.51,0.51 0 0 0 0.43,0.89c1.53,-0.28 4.95,-1.09 7.24,-0.79z" fill="#3a1b01" id="svg_122"/>
      <path d="m127.38,74.48a5.21,5.21 0 0 0 -1.44,0.91a5.61,5.61 0 0 0 -1.77,2.92a5.79,5.79 0 0 0 0.24,3.43a5.93,5.93 0 0 0 0.88,1.5a6.06,6.06 0 0 0 1.29,1.16a6.13,6.13 0 0 0 1.58,0.71a5.73,5.73 0 0 0 1.71,0.2a5.47,5.47 0 0 0 3.13,-1.14a5.33,5.33 0 0 0 1.85,-2.7a5.44,5.44 0 0 1 -5,3.23a5.74,5.74 0 0 1 -1.51,-0.25a5.42,5.42 0 0 1 -1.36,-0.67a5.71,5.71 0 0 1 -1.1,-1a5.16,5.16 0 0 1 -0.75,-1.31a5.11,5.11 0 0 1 -0.25,-3a5.16,5.16 0 0 1 1.46,-2.63a5.46,5.46 0 0 1 5.86,-1.09a5.26,5.26 0 0 0 -3.19,-0.7a4.68,4.68 0 0 0 -0.59,0.09a22.11,22.11 0 0 0 0.46,-7a30.7,30.7 0 0 0 -1.59,-7.46a30.45,30.45 0 0 1 1.23,7.48a21.32,21.32 0 0 1 -0.88,7.18l-0.26,0.14z" fill="#3a1b01" id="svg_123"/>
      <path d="m154,83.77a4,4 0 0 0 -0.7,-1.21a3.86,3.86 0 0 0 -1.08,-0.9a2.92,2.92 0 0 0 -1.32,-0.41a8.05,8.05 0 0 1 1.1,0.75l0.4,0.36a21.86,21.86 0 0 1 -7.1,5.34c-4.63,2.39 -13.78,5.75 -23.09,1.37l-0.47,-0.22l0,0.06c-0.52,-0.21 -1,-0.44 -1.56,-0.68q-1,-0.47 -2,-1q0.89,0.67 1.81,1.3c0.53,0.36 1.07,0.71 1.63,1c-0.08,0.48 -0.25,1.73 -0.39,3.77a4,4 0 0 0 0.28,2l-1.18,-0.53c-1,-0.46 -1.92,-0.95 -2.86,-1.48c0.87,0.63 1.77,1.23 2.69,1.8c0.76,0.47 1.54,0.91 2.34,1.33a18.34,18.34 0 0 0 4.5,1.79a53.45,53.45 0 0 0 13.77,1.93a18.2,18.2 0 0 0 6.7,-1c5.15,-2.19 3.88,-11.81 3.34,-14.06a15.62,15.62 0 0 0 2.19,-2.08a7.15,7.15 0 0 1 0.68,1c0.12,0.18 0.2,0.38 0.31,0.57s0.19,0.4 0.31,0.6a4.6,4.6 0 0 0 -0.06,-0.69a4,4 0 0 0 -0.24,-0.71zm-6.88,14.66c-4.66,2 -15.45,0.42 -19.93,-1s-5.33,-1.73 -5.18,-4c0,-0.23 0,-0.45 0,-0.66a27.55,27.55 0 0 0 12.32,2.63q1,0 2,-0.06a44.9,44.9 0 0 0 14,-2.84c-0.19,2.59 -1.09,5.03 -3.19,5.92l-0.02,0.01zm3.33,-6.34a35,35 0 0 1 -6.38,1.91l-1.07,-2.56l-0.48,2.73l0,0.09a54.39,54.39 0 0 1 -6.12,0.7c-8,0.47 -13.21,-2 -14.29,-2.6c0.09,-1.1 0.19,-1.89 0.26,-2.36c9.45,4.19 18.63,0.81 23.31,-1.6a29.63,29.63 0 0 0 4.42,-2.77a23.24,23.24 0 0 1 0.38,6.45l-0.03,0.01z" fill="#3a1b01" id="svg_124"/>
      <path d="m113.8,242.54l-0.83,-0.28c-1.1,-0.37 -2.21,-0.72 -3.31,-1.06q-3.32,-1 -6.66,-2c2.18,0.78 4.38,1.54 6.57,2.28l3.29,1.13l0.82,0.29a1.41,1.41 0 0 1 0.66,0.37a0.68,0.68 0 0 1 0,0.66a7.58,7.58 0 0 1 -0.33,0.78l-0.09,0.2a1.38,1.38 0 0 1 -0.07,0.15a0.41,0.41 0 0 1 -0.26,0.1a3.23,3.23 0 0 1 -0.81,0a15.92,15.92 0 0 1 -1.67,-0.38c-1.11,-0.3 -2.21,-0.66 -3.32,-1c-2.21,-0.69 -4.43,-1.4 -6.68,-2c2.21,0.71 4.39,1.49 6.59,2.24c1.1,0.38 2.2,0.74 3.32,1.06a16.17,16.17 0 0 0 1.71,0.4a3.55,3.55 0 0 0 0.92,0.05a0.75,0.75 0 0 0 0.52,-0.24a1.2,1.2 0 0 0 0.12,-0.24l0.09,-0.2a7.8,7.8 0 0 0 0.33,-0.83a1.52,1.52 0 0 0 0.08,-0.49a0.84,0.84 0 0 0 -0.19,-0.51a1.74,1.74 0 0 0 -0.8,-0.48z" fill="#3a1b01" id="svg_125"/>
      <path d="m137.24,220.35l0.48,0c18.27,-0.2 29.76,-13.62 30.32,-26.48a227.78,227.78 0 0 0 -1,-26.75a2.54,2.54 0 0 0 -2.65,-2.31l-54.06,2.54a3.25,3.25 0 0 0 -3.09,3.36c0.16,4 0.48,12.36 0.95,23.41c0.68,16.22 11.81,26.23 29.05,26.23zm30,-26.52c-0.54,12.49 -11.73,25.53 -29.53,25.72l-0.47,0c-16.79,0 -27.61,-9.72 -28.26,-25.46c-0.3,-7.25 -0.55,-13.34 -0.72,-17.8l58.49,-3a196.26,196.26 0 0 1 0.5,20.54l-0.01,0zm-56.88,-25.69l54.06,-2.54a1.75,1.75 0 0 1 1.82,1.59c0.12,1.3 0.27,3.13 0.43,5.31l-58.46,3c-0.08,-2 -0.14,-3.61 -0.19,-4.82a2.46,2.46 0 0 1 2.35,-2.54l-0.01,0z" fill="#3a1b01" id="svg_126"/>
      <path d="m120.41,213.41a22.17,22.17 0 0 0 4,2.25a24.57,24.57 0 0 0 4.32,1.46a30,30 0 0 0 4.49,0.75c0.75,0.09 1.51,0.11 2.27,0.15s1.52,0 2.28,0a35.47,35.47 0 0 0 4.53,-0.4a30.86,30.86 0 0 0 4.44,-1a28.67,28.67 0 0 0 8.18,-3.92a25.84,25.84 0 0 0 6.42,-6.39a21.29,21.29 0 0 0 3.51,-8.3a21.2,21.2 0 0 1 -3.67,8.19a25.68,25.68 0 0 1 -6.43,6.26a29.23,29.23 0 0 1 -8.12,3.83a30.5,30.5 0 0 1 -4.4,1a35.11,35.11 0 0 1 -4.49,0.38c-0.75,0 -1.5,0 -2.25,0s-1.5,-0.05 -2.25,-0.14a29.64,29.64 0 0 1 -4.44,-0.72a24,24 0 0 1 -8.19,-3.61a22.64,22.64 0 0 1 -9.23,-15a23.15,23.15 0 0 0 2.95,8.53a21.86,21.86 0 0 0 6.08,6.68z" fill="#3a1b01" id="svg_127"/>
      <path d="m231.25,243.94a0.44,0.44 0 0 0 -0.12,-0.29l0,0l-14.43,-17.32a0.78,0.78 0 0 0 -0.86,-0.23l-8.63,3.07l-0.1,-0.22l1.78,-3a1,1 0 0 0 -0.08,-1.17l-1,-1.27c0.94,-1.64 2.32,-7.91 3.35,-13.07a1.54,1.54 0 0 0 -1.44,-1.84l-1.35,-0.07c0.47,-2.54 3.16,-17.42 3.76,-27.36c0.53,-8.83 -1.65,-13.09 -4,-17.6c-0.56,-1.09 -1.14,-2.22 -1.68,-3.42c0.41,-0.29 0.73,-0.51 0.95,-0.65c1.64,-1 1.47,-1.55 0.78,-3.73l-0.17,-0.53c-0.52,-1.66 -1,-2.46 -1.63,-2.76a1.45,1.45 0 0 0 -1,-0.06a223.84,223.84 0 0 0 -7.22,-21.68c-4.39,-11.33 -9.84,-14 -11.22,-14.57c0,-3.4 -10.12,-7.42 -12,-8.14c-0.74,-1.55 -5.81,-3.34 -7.87,-4c0.08,-0.85 -0.16,-2.95 -3.54,-5.85a11.21,11.21 0 0 0 1.9,-5.78c0,-0.13 0,-0.27 0,-0.41c1.11,-0.63 3,-3.2 3.63,-8c0.17,-1.16 0.33,-2.55 0.51,-4c0.26,-2.17 0.53,-4.42 0.82,-6c0.06,-0.15 0.12,-0.31 0.17,-0.47a11.17,11.17 0 0 0 0.49,-3.6a10.54,10.54 0 0 1 1.69,-6a9.08,9.08 0 0 0 1.26,-6.06a3.36,3.36 0 0 0 -0.26,-3.1a4.58,4.58 0 0 0 0.52,-3.86a40.49,40.49 0 0 1 -0.89,-12.39c0.5,-6 0.26,-12.53 -5.35,-15.78c-1.09,-0.63 -26.74,-15.4 -35.92,-15.4c-2.36,0 -10.22,5 -15,8.59c-1.31,1 -2.89,2 -4.57,3c-5.2,3.25 -11.09,6.93 -10.81,12.06c0.31,5.57 0.62,10.84 0.7,12.16a30.64,30.64 0 0 0 -6.42,2.71c-1.33,0.84 -2.31,3.45 -1.65,6c0.44,1.73 1.94,4.53 6.92,5.46c-1,0.74 -1.44,2.13 -1.44,4.12a6.65,6.65 0 0 0 1.24,3.71a6.23,6.23 0 0 1 1.18,3.52c0,3.53 0.55,5.69 1.74,6.78a2.88,2.88 0 0 0 2,0.76l0,0c0.23,7 0.07,12.22 -0.15,15.54a15.47,15.47 0 0 0 5,12.89a3.5,3.5 0 0 0 -1.77,2.37c-1.11,0.05 -4.82,0.42 -6.1,3.1l-2.59,1.35l0,0l-0.09,0.07l-3.49,1.78c-0.68,0.34 -1.62,0.71 -2.62,1.11c-2.89,1.14 -6.16,2.43 -6.9,4.25a2,2 0 0 0 -0.07,1.33c-1.24,1 -6.82,5.8 -9.62,15.63c-2.08,7.29 -4.4,16.58 -4.84,18.34c-2.38,0.1 -2.7,1.34 -2.7,2.42c0,0.31 0,0.86 -0.08,1.44a16.43,16.43 0 0 0 -0.06,2.93c0.18,1 1.78,1.16 4.37,1.36a47.58,47.58 0 0 0 -0.66,11.81c0.6,10.74 3.05,26.53 3.46,29.11l-1.36,0.08a1.52,1.52 0 0 0 -1.11,0.58a1.69,1.69 0 0 0 -0.33,1.36c1,5.59 2.42,12.38 3.36,14.09l-1,1.39a1.13,1.13 0 0 0 -0.08,1.21l1.82,3.26l-1.56,3.81l-14.09,-4.68a2,2 0 0 0 -2.33,1l-1.09,2.1a2.29,2.29 0 0 0 -0.19,0.51l0,0c-0.64,1.92 -0.83,3.27 2.25,4.39c2.48,0.9 12.1,4.32 13.09,4.69c0.08,0.73 0.19,1.58 0.33,2.55s0.26,1.84 0.28,2.32a1,1 0 0 0 0.35,0.72c1,0.87 3.92,0.87 5.39,0.81a2,2 0 0 0 1.71,1.89a29.39,29.39 0 0 0 4.18,0.09a2.16,2.16 0 0 0 1.89,1.19a30.06,30.06 0 0 0 3.8,0.15a1.67,1.67 0 0 0 0.39,0.92a3,3 0 0 0 2.17,0.85l0.26,0l0,0.52c-0.29,3.6 -0.54,6.73 0.94,8.33c-0.25,1.52 -1.74,10.78 -1.64,15.41a7.91,7.91 0 0 0 0.85,3.53c-0.29,0.78 -1.18,3.82 -0.07,9c0.06,0.29 0.13,0.57 0.18,0.79c8.59,0 26.35,0 44.59,0l0.3,-0.79a26.41,26.41 0 0 0 1.84,-8.1a16.92,16.92 0 0 0 5.51,8.13a4,4 0 0 0 1.19,0.79l41.93,0.06l0,-0.79a81.55,81.55 0 0 0 -0.46,-10.45l39,-14a1,1 0 0 0 0.65,-0.92l0,-9.39l0.75,-0.27a0.71,0.71 0 0 0 0.47,-0.67l0.01,-5.55zm-15.16,-17.1l14.1,16.86l-55.66,19.79l-14.09,-16.85l21.56,-7.64a4.7,4.7 0 0 0 0.43,1.55l-8.84,3.45c-3.14,1 -3.18,6.54 -3.18,6.77l0,0.23l4.25,5.35l0.1,-1c0.13,-1.27 0.78,-4.74 2.28,-5.61l9.25,-3.67c-0.12,0.86 -0.23,1.81 -0.26,2.62a1.81,1.81 0 0 0 0.48,1.44a3.24,3.24 0 0 0 2.34,0.61c0.5,0 1.07,0 1.69,-0.06a2.86,2.86 0 0 0 2.28,-0.92a1.52,1.52 0 0 0 0.29,-0.72a32.66,32.66 0 0 0 3.79,-0.14a2.17,2.17 0 0 0 1.88,-1.11a31.67,31.67 0 0 0 4.18,-0.08a1.9,1.9 0 0 0 1.72,-1.76c1.2,0 4.45,0.08 5.41,-0.78a1,1 0 0 0 0.34,-0.67c0,-0.44 0.15,-1.27 0.28,-2.15c0.39,-2.54 0.61,-4.25 0.26,-4.86c-0.05,-0.09 -0.16,-0.3 -0.29,-0.59l3.82,-1.6c2.38,-1 4.43,1.52 4.57,1.69l0,0l0.62,-0.49l0,0l-3.73,-4.71l-0.08,-0.08c-0.12,-0.09 -3,-2.16 -5.19,-1.23l-2.47,1l-0.68,-1.54l8.55,-3.1zm-42,43.19l0.19,0.21l0.23,-0.09l0,0l1.11,-0.38l0,8.62l-14.7,-17.2l-0.06,-6.6l13.23,15.44zm-13.92,-17.46l0,-5l13.83,16.52l0,4.62l-13.83,-16.14zm22.7,-11.37l0,0l0.3,-0.14a9.14,9.14 0 0 1 1.75,-0.65a10.4,10.4 0 0 1 1.71,3.22c0,0.25 -0.09,0.71 -0.17,1.25l0,0.25l-9.7,3.85l0,0c-1.62,0.91 -2.32,3.8 -2.57,5.31l-2.9,-3.65c0,-0.82 0.27,-5.13 2.65,-5.89l8.93,-3.55zm27.47,-5c-0.48,-1 -1.15,-2.54 -1.81,-4l2.45,-1c1.62,-0.7 4,0.87 4.38,1.11l1.8,2.28a3.86,3.86 0 0 0 -3,0l-3.82,1.61zm-0.65,-26.81a0.75,0.75 0 0 1 0.7,0.9c-1.33,6.66 -2.5,11.36 -3.16,12.67c-0.19,-0.14 -0.39,-0.26 -0.59,-0.39s-0.68,-0.39 -1,-0.57c0.27,0.28 0.52,0.57 0.77,0.87s0.32,0.4 0.45,0.61l0,0l1.39,1.77a0.25,0.25 0 0 1 0,0.28l-1.57,2.66l-1,-1.39l0.57,2.06l0,0l0.08,0.19c0.14,0.33 3.51,8 4,8.81c0.24,0.41 -0.15,3 -0.36,4.34c-0.14,0.94 -0.27,1.75 -0.29,2.23c0,0 0,0.05 -0.07,0.12c-0.62,0.55 -3.2,0.65 -4.91,0.58a17.91,17.91 0 0 0 -0.25,-1.86a21.43,21.43 0 0 0 -0.53,-2.18a20.14,20.14 0 0 1 0.07,4l-0.06,0l0,0.45a1.21,1.21 0 0 1 -1,1.36a30.88,30.88 0 0 1 -4,0.08c0,-0.79 -0.07,-1.57 -0.16,-2.34s-0.23,-1.81 -0.39,-2.7c0,0.91 0,1.81 0,2.71a25.32,25.32 0 0 1 -0.22,2.63l0,0s-0.1,0.62 -1.3,0.77a32.3,32.3 0 0 1 -3.73,0.13l-0.27,-4.65l-0.46,4.64l-0.14,0l0.11,0.5a0.74,0.74 0 0 1 -0.14,0.57a2.23,2.23 0 0 1 -1.67,0.59c-1.58,0.08 -2.95,0.15 -3.43,-0.33a1.08,1.08 0 0 1 -0.24,-0.85a37,37 0 0 1 0.42,-3.69c0.08,-0.57 0.15,-1 0.17,-1.3c0.08,-1 -1.73,-3.72 -2.07,-4a0.5,0.5 0 0 0 -0.35,-0.11a5.2,5.2 0 0 0 -1.83,0.57a4.36,4.36 0 0 1 0.49,-4.41l0,0c1.83,-2.78 4.1,-6.21 7.44,-6.49a8.61,8.61 0 0 0 1.38,1a9.06,9.06 0 0 1 -0.65,-1l0,0l-0.31,-0.55a6.24,6.24 0 0 1 -0.55,-4.12a26.68,26.68 0 0 0 0.62,-4c0.21,0.52 0.4,1 0.57,1.58a27.84,27.84 0 0 0 -0.45,-3.24l0,-0.05l0,-0.07c0,-0.06 -2.43,-6.53 -2.54,-11.62l0,0a0.62,0.62 0 0 1 0.23,-0.5a0.61,0.61 0 0 1 0.53,-0.12c1.64,0.4 4.49,1 8.74,1.71a101.83,101.83 0 0 0 10.95,1.13l0.01,0.02zm-68,49.28a7.82,7.82 0 0 1 0.37,3.18c-0.15,1.39 -0.33,6.32 0.59,8.17a17.31,17.31 0 0 1 -2,0.18a12,12 0 0 1 -2.65,-0.2c-1,-4.44 -2.54,-22.12 -2.6,-30.76l1.24,-0.06l3.24,-0.19a82.84,82.84 0 0 0 1.37,13.53c0.47,2.87 0.85,5.14 0.45,5.85l-0.09,0.16l0.08,0.14zm-5.09,-20.31c-14.54,0.81 -27.18,0 -33.21,-2.08a6,6 0 0 0 -0.91,-4.35l0,0c-0.38,-0.62 -0.78,-1.28 -1.21,-1.93c3.28,0.81 11.47,2.39 25.45,2.39c2.84,0 5.93,-0.07 9.26,-0.22c20,-0.9 43.13,-5.63 45.78,-6.18c0.6,0.87 2.82,4.36 1,6.2c-2.13,2.03 -23.25,4.88 -46.15,6.15l-0.01,0.02zm-41.38,-18.36a36.74,36.74 0 0 1 -0.71,-5.81c0.27,-0.8 2.46,-7.32 2.56,-12.7a1.52,1.52 0 0 0 -0.57,-1.23a1.34,1.34 0 0 0 -1.18,-0.25l-1.56,0.39a69.27,69.27 0 0 1 1,-12.06c0.8,-5.62 1.56,-10.94 0.25,-15.61a16.27,16.27 0 0 0 2.77,-5.1a91.09,91.09 0 0 1 0.59,12.78c-0.36,5 0.9,8.24 1.69,9.36a49.13,49.13 0 0 0 -0.51,8.37a74.62,74.62 0 0 0 2.37,9.65c0,0.76 0.48,10 -0.25,12.88a16.82,16.82 0 0 1 -1.43,3.34a15.55,15.55 0 0 0 -1.24,2.99a7.42,7.42 0 0 0 -4.15,-2.43a7.77,7.77 0 0 0 0.37,-4.57zm5.73,4.38a17.39,17.39 0 0 0 1.5,-3.51c0.52,-2 0.49,-6.72 0.4,-9.95q0.16,0.62 0.31,1.25c0.34,1.47 0.64,3 0.89,4.44c-0.11,-1.51 -0.28,-3 -0.5,-4.52s-0.48,-3 -0.83,-4.49l0,0a77.2,77.2 0 0 1 -2.36,-9.54a43.76,43.76 0 0 1 0.4,-7.36a13.9,13.9 0 0 0 1.12,1.29a11.56,11.56 0 0 0 2.11,1.7a11.38,11.38 0 0 1 -1.81,-2a13.47,13.47 0 0 1 -1.28,-2.13l0,0l-0.11,-0.13c-0.58,-0.72 -2,-3.74 -1.63,-9s-0.87,-15.55 -1,-16.94l7.78,-12.35l1.36,0c0,1.45 0.05,2.69 0.06,3.63a2.35,2.35 0 0 0 2.24,2.37l2.51,0.07l0.06,0a2.21,2.21 0 0 0 1.57,-0.66a2.45,2.45 0 0 0 0.7,-1.79c0,-1 -0.07,-2.23 -0.13,-3.87c1.57,0 7,0.18 19,0.18c10.55,0 21.07,-2 27.36,-3.25c2.27,-0.44 3.95,-0.76 4.66,-0.8c0,2.39 0,4.15 0.05,5.39a2.4,2.4 0 0 0 2.39,2.35l0.17,0l2.64,-0.18a2.38,2.38 0 0 0 2.23,-2.47c0,-1.34 -0.11,-3.26 -0.15,-5.57l0.3,0a1.41,1.41 0 0 1 1.39,1.15c0.74,3.93 2.72,13.34 5.45,18l0,0c-1.72,0.69 -1.72,1.69 -1.08,3.53c0.48,1.4 1,2.84 2.24,2.84a2,2 0 0 0 0.55,-0.08l0.85,-0.23l0.38,-0.1l2.59,5.8c0.26,0.52 -0.22,2.51 -0.64,4.27a42.25,42.25 0 0 0 -0.9,4.41a23.3,23.3 0 0 0 -1.12,-2.19a21.67,21.67 0 0 0 -2.55,-3.57a21.47,21.47 0 0 1 2.2,3.75a17.86,17.86 0 0 1 1.4,4.05l0,0l0,0.06a9.55,9.55 0 0 1 -0.14,6.31c-0.78,2.18 -1.42,4.6 -1.82,6.22c-0.1,-0.84 -0.15,-1.69 -0.21,-2.54a44.85,44.85 0 0 0 -0.45,-4.51a18,18 0 0 0 -0.51,-2.22a18.72,18.72 0 0 0 -0.82,-2.12a13.69,13.69 0 0 0 -1.11,-2a6.45,6.45 0 0 0 -1.53,-1.65a6.4,6.4 0 0 1 1.45,1.7a13.54,13.54 0 0 1 1,2a18.44,18.44 0 0 1 0.72,2.12a17.7,17.7 0 0 1 0.4,2.2a44.43,44.43 0 0 1 0.25,4.48a25.26,25.26 0 0 0 0.35,4.46l0,0l0,0.09a16.22,16.22 0 0 1 0.13,7.69a35.58,35.58 0 0 0 -1.07,8.28l0,0.11a36.21,36.21 0 0 1 1.12,6.23c-3,0.62 -25.85,5.26 -45.58,6.15c-21.35,1 -32.44,-1.58 -35.35,-2.38c-0.3,-0.42 -0.62,-0.84 -0.95,-1.23a11.56,11.56 0 0 1 1.35,-3.21l0,-0.03zm33.14,-99.38c-0.71,4.82 -0.56,21.85 -0.52,25.34l-0.29,0c-12.15,0 -17.55,-0.14 -19,-0.18c-0.1,-2.34 -0.24,-5.33 -0.46,-9.12c-0.57,-10.23 -2.47,-26.2 -3.58,-32a33.45,33.45 0 0 0 4.73,4.12c4.46,3.31 9,16.42 9,16.55l0.42,1l0.34,-1c0.59,-4.21 5.62,-9.52 6.95,-10.86a50.33,50.33 0 0 1 2.41,6.15zm-5.42,-11.74c1.52,-0.05 2.66,-0.16 3.62,-0.25s1.83,-0.17 2.79,-0.17a16.78,16.78 0 0 1 2.53,0.28a28.35,28.35 0 0 0 4.71,0.45l0.19,0l-3.85,5.36l-4,5.21c-0.63,-1.87 -1.91,-5.47 -2.59,-6.2l-3.4,-4.68zm62.06,81.69a60.07,60.07 0 0 1 1,11.17l-1.57,-0.36a1.41,1.41 0 0 0 -1.74,1.4c0.11,5 2.27,11 2.56,11.81a31.66,31.66 0 0 1 -0.71,5.38a6.78,6.78 0 0 0 0.38,4.18c-3.17,0.48 -5.34,3.39 -7.1,6c0,-0.51 0,-1.16 -0.13,-2c2.17,-2.43 -0.6,-6.49 -1.11,-7.2a35.11,35.11 0 0 0 -1.15,-6.57a35.29,35.29 0 0 1 1,-8a16.67,16.67 0 0 0 -0.11,-8a72.73,72.73 0 0 1 2.21,-7.9a10.31,10.31 0 0 0 0.15,-6.81a23.74,23.74 0 0 1 1,-6.09c0.6,-2.5 1,-4.07 0.59,-4.79l-2.53,-5.67l1.53,-0.5a41.17,41.17 0 0 0 5.45,9.39c-1.28,4.38 -0.53,9.33 0.28,14.56zm16.74,-31c2.26,4.41 4.4,8.58 3.88,17.19c-0.6,10 -3.35,25.1 -3.76,27.35c-2.22,-0.16 -5.31,-0.45 -8.75,-1c-2.64,-0.42 -4.73,-0.82 -6.33,-1.16a59.86,59.86 0 0 0 -1,-11.46c-0.8,-5.22 -1.55,-10.15 -0.22,-14.37l0.06,-0.2l0,0a12.76,12.76 0 0 1 0.79,-2.13a12,12 0 0 1 1.31,-2.17a12.18,12.18 0 0 0 -1.65,2a13.31,13.31 0 0 0 -1,1.65a40,40 0 0 1 -5.05,-8.78a81.66,81.66 0 0 0 7.66,-2.88a70.17,70.17 0 0 0 12.39,-7.32c0.56,1.09 1.12,2.19 1.66,3.24l0.01,0.04zm-1.38,-10.73c0.39,0.18 0.78,0.92 1.21,2.28l0.17,0.53c0.67,2.11 0.67,2.11 -0.45,2.82c-0.3,0.19 -0.77,0.52 -1.4,1a70.62,70.62 0 0 1 -12.48,7.4a72.94,72.94 0 0 1 -11,3.84l-0.86,0.23c-0.72,0.2 -1.08,-0.1 -1.83,-2.25c-0.64,-1.85 -0.37,-2.14 0.63,-2.54l0.9,-0.35a155.8,155.8 0 0 0 15.49,-6.72a49.7,49.7 0 0 0 8.92,-6.14a0.9,0.9 0 0 1 0.7,-0.14l0,0.04zm-31.78,-44.82l0,0.22l0,0a10.45,10.45 0 0 1 0.22,1.26c0.06,0.5 0.11,1 0.14,1.53c0.06,1 0.08,2.06 0.07,3.1c0.14,-1 0.25,-2.06 0.32,-3.09c0,-0.52 0.06,-1 0.06,-1.57c0,-0.3 0,-0.61 0,-0.92c4.73,1.86 11.45,5.31 11,7.43l-0.08,0.37l0,0c-0.35,2 -0.72,4 -1.15,6a63.25,63.25 0 0 1 -1.61,6.3a63.44,63.44 0 0 0 2,-6.2c0.54,-1.95 1,-3.91 1.49,-5.88c1.41,0.6 6.5,3.41 10.62,14.05a221.13,221.13 0 0 1 7.24,21.77a49.51,49.51 0 0 1 -8.64,5.92a155.19,155.19 0 0 1 -15.4,6.68l-0.16,0.06c-2.48,-4.12 -4.35,-12.41 -5.21,-16.77a12.73,12.73 0 0 0 1.91,-1.89a16.28,16.28 0 0 0 1.59,-2.29a16.9,16.9 0 0 0 1.28,-2.48c0.18,-0.43 0.3,-0.87 0.44,-1.31s0.23,-0.89 0.34,-1.33c-0.15,0.44 -0.27,0.88 -0.43,1.3s-0.32,0.85 -0.53,1.26a16.63,16.63 0 0 1 -1.34,2.37a15.8,15.8 0 0 1 -1.7,2.1a12.83,12.83 0 0 1 -1.63,1.45l0,-0.24a2.2,2.2 0 0 0 -2.16,-1.79l-0.31,0c-0.1,-6.15 -0.09,-14.78 0.47,-22.88c0.66,-9.48 1,-13.2 1.18,-14.63a0.46,0.46 0 0 1 -0.02,0.1zm-0.76,-0.77c-0.14,1 -0.51,4.4 -1.26,15.23c-0.81,11.65 -0.49,24.39 -0.31,29.32a1.6,1.6 0 0 1 -1.49,1.65l-2.64,0.18a1.6,1.6 0 0 1 -1.71,-1.57c0,-2.38 -0.09,-6.71 0,-13.77c0.13,-11.19 1.58,-29.27 2.46,-33.34a27.08,27.08 0 0 1 4.95,2.3zm-5.71,-2.55c-0.9,4 -2.38,22.31 -2.51,33.6c0,3 0,5.54 0,7.62a45.92,45.92 0 0 0 -4.81,0.81c-6,1.17 -16,3.1 -26.13,3.23c0,-3.41 -0.17,-20.5 0.51,-25.21l4.25,-5.49c4.9,1.71 8.42,9.89 8.46,10l0.33,0.77l0.39,-0.74c0,-0.09 4.91,-9.38 9.18,-14.56a61.37,61.37 0 0 1 5.34,-5.59a19,19 0 0 0 4.08,-4.72l0.91,0.28zm-1.53,-0.95c-0.65,1.53 -2.15,3 -4.05,4.77a62,62 0 0 0 -5.41,5.66c-3.63,4.4 -7.66,11.7 -8.9,14c-1,-2.09 -4.1,-7.94 -8.36,-9.59l3.89,-5.43c0.56,0 1.15,-0.08 1.78,-0.16c4.18,-0.52 6.71,-3.05 9.4,-5.74c0.66,-0.66 1.34,-1.34 2.06,-2l0.37,-0.34a41.44,41.44 0 0 0 6.05,-6.48c1.17,1.01 3.73,3.7 3.18,5.32l-0.01,-0.01zm2.54,-24.23c-0.18,1.46 -0.34,2.84 -0.51,4c-0.57,4 -2,6.24 -2.85,7.08c0,-1.3 0,-2.93 -0.05,-4.65c-0.05,-3.8 -0.12,-8.07 0,-10.32a4.81,4.81 0 0 0 3.24,-0.11a3.23,3.23 0 0 0 0.73,-0.47c-0.17,1.36 -0.41,2.93 -0.55,4.47l-0.01,0zm4.57,-23.22a4.32,4.32 0 0 0 -2.68,-1.68a4.42,4.42 0 0 0 -5.26,1.85c-0.55,1 -0.86,4.22 -1.14,7.74c-0.08,1 -0.15,1.81 -0.21,2.24a1,1 0 0 1 -0.31,0.7c-0.27,0.2 -0.78,0.12 -1.28,0l-0.6,-0.08s0,0 -0.05,0c-0.46,-0.57 -0.12,-3.32 0.11,-5.14l0,-0.26c0.35,-2.78 0.18,-4.29 -0.58,-5.24a10.19,10.19 0 0 1 -1.61,-4.35a12,12 0 0 0 -1,-3.19l2,0.84l0.62,0.28c0.85,0.39 1.58,0.74 2.05,0.49l0,0c0.6,0.34 1.89,0.92 4.57,2.14l4.95,2.1a1.87,1.87 0 0 1 0.43,1.57l-0.01,-0.01zm-5.82,-33.26c5.23,3 5.44,9.3 5,15a41.54,41.54 0 0 0 0.91,12.67a3.79,3.79 0 0 1 -0.4,3.18c-3.32,-1.49 -8,-3.6 -9.1,-4.15a2.77,2.77 0 0 0 -2,-2.93c-0.86,-2.13 -0.8,-4.58 -0.72,-7.66a55,55 0 0 0 -0.44,-10.07c-0.76,-5.1 -8.61,-11.18 -13.22,-14.35a78.93,78.93 0 0 0 -10.5,-6.11c11.06,3.24 29.55,13.89 30.47,14.42zm-54.67,-3.79c1.69,-1.06 3.29,-2.06 4.63,-3.07c5.84,-4.41 12.76,-8.43 14.51,-8.43s8.4,3.08 15.08,7.67c7.67,5.27 12.36,10.3 12.89,13.81a54.32,54.32 0 0 1 0.44,9.93c-0.07,2.85 -0.13,5.17 0.53,7.27c-3.6,-1.52 -17.76,-7.47 -23.3,-9.19c-5.87,-1.82 -10,-0.85 -13.27,-0.07l-1.05,0.24l-2.08,0.46a175.77,175.77 0 0 0 -18.12,4.66c-0.09,-1.6 -0.39,-6.63 -0.69,-11.94c-0.26,-4.66 5.42,-8.21 10.43,-11.34zm-17.14,33.59a5.6,5.6 0 0 1 -0.66,-1.55c-0.56,-2.19 0.24,-4.47 1.31,-5.15a31.86,31.86 0 0 1 6.49,-2.68l0.3,-0.09l0,0a172.24,172.24 0 0 1 18.24,-4.75l2.09,-0.46l1.06,-0.25c3.37,-0.8 7.19,-1.7 12.85,0.06c6,1.86 22.21,8.73 23.91,9.46l0,0l0.17,0.06c0.08,0 2,0.67 1.6,2.22a6.13,6.13 0 0 1 -1.28,-0.5l-0.65,-0.29c-5.22,-2.16 -22.67,-9.24 -28.38,-9.58c-4.54,-0.27 -11,1.24 -17.77,2.85c-2.27,0.53 -4.61,1.09 -6.88,1.57c-6.44,1.37 -10.43,3.41 -11.86,6.08a4.92,4.92 0 0 0 -0.54,3zm1.21,1.36a4.45,4.45 0 0 1 0,-3.94c0.88,-1.66 2.91,-3.06 6,-4.21a28.11,28.11 0 0 1 -0.53,4.94a9.19,9.19 0 0 0 0.43,5.38l-0.09,0a10.26,10.26 0 0 1 -5.81,-2.17zm7.58,20.28c-1,-0.92 -1.49,-2.95 -1.49,-6.2a7,7 0 0 0 -1.29,-3.93a5.92,5.92 0 0 1 -1.12,-3.3c0,-1.71 0.39,-2.92 1.14,-3.5a2,2 0 0 1 1.08,-0.4l0.44,0c0.41,0.92 2.05,5.1 2.52,13.36c0.09,1.57 0.15,3.06 0.21,4.48a2.09,2.09 0 0 1 -1.53,-0.51l0.04,0zm2.15,16.94a177,177 0 0 0 -0.09,-20.91c-0.52,-9.32 -2.49,-13.46 -2.68,-13.85a8.81,8.81 0 0 1 -0.59,-5.55a28.21,28.21 0 0 0 0.54,-5.35a41.59,41.59 0 0 1 4.45,-1.14c2.28,-0.48 4.63,-1 6.9,-1.57c6.75,-1.59 13.12,-3.09 17.54,-2.83c4.62,0.28 17.29,5.14 24.46,8l0,0c1.12,0.68 1.46,2.29 1.82,4a10.77,10.77 0 0 0 1.77,4.68c0.6,0.75 0.72,2.14 0.41,4.65l0,0.26c-0.36,2.87 -0.57,5 0.06,5.74a0.86,0.86 0 0 0 0.6,0.33l0.54,0.08a5.72,5.72 0 0 0 0.91,0.1a1.58,1.58 0 0 0 1,-0.28a1.72,1.72 0 0 0 0.62,-1.23c0,-0.17 0,-0.38 0.07,-0.64l0,0a1.23,1.23 0 0 1 0.58,0.63a2.3,2.3 0 0 1 0.14,1a1.32,1.32 0 0 1 -0.09,0.47a1.28,1.28 0 0 1 -0.25,0.42a2.38,2.38 0 0 1 -0.85,0.62a2,2 0 0 0 1,-0.44a1.6,1.6 0 0 0 0.56,-1a2.37,2.37 0 0 0 -0.09,-1.16l1.42,-1.12l-1.64,0.73a1.45,1.45 0 0 0 -0.45,-0.42a7.18,7.18 0 0 1 0.24,-0.7a6.81,6.81 0 0 1 0.42,-0.83a5,5 0 0 1 0.55,-0.75a4.62,4.62 0 0 1 0.71,-0.64a3.12,3.12 0 0 0 -0.86,0.48a3.92,3.92 0 0 0 -0.7,0.71a5.05,5.05 0 0 0 -0.53,0.85c0,0.1 -0.09,0.2 -0.14,0.31l0.06,-0.73c0.2,-2.43 0.53,-6.51 1,-7.42a3.65,3.65 0 0 1 4.36,-1.48c2,0.54 2.32,1.41 2.6,2.11l0.06,0.13a8.23,8.23 0 0 1 -1.05,5.55a11.32,11.32 0 0 0 -1.79,6.35a10.51,10.51 0 0 1 -0.46,3.37a4.36,4.36 0 0 1 -0.17,0.45l0,0l0,0a2.73,2.73 0 0 1 -1.33,1.44a4.42,4.42 0 0 1 -3.12,-0.07l-0.47,-0.2a2.66,2.66 0 0 1 -0.63,-0.7a6,6 0 0 1 -0.68,-1.49a6.14,6.14 0 0 0 0.36,1.65a3.38,3.38 0 0 0 0.41,0.79a2.33,2.33 0 0 0 0.46,0.47c-0.15,2.18 -0.09,6.71 0,10.72c0,2.41 0.07,4.68 0,6c-0.08,4.9 -4.55,9 -8.14,12.35l-0.37,0.34c-0.73,0.68 -1.42,1.37 -2.09,2c-2.7,2.69 -5,5 -8.93,5.51a24.35,24.35 0 0 1 -7.46,-0.25a17.3,17.3 0 0 0 -2.65,-0.29c-1,0 -1.86,0.08 -2.86,0.17a54,54 0 0 1 -5.59,0.28c-2.74,0 -4.12,-1 -6.63,-2.76a64.85,64.85 0 0 0 -5.94,-3.84c-6.92,-3.9 -7.57,-10.52 -7.34,-14.1l0.04,0zm4.9,13.42a17.11,17.11 0 0 0 2.06,1.38a64.12,64.12 0 0 1 5.87,3.8c2.56,1.81 4.1,2.91 7.09,2.91l1.09,0l3.5,4.85c-1.12,1.11 -5.62,5.76 -6.94,10c-1.27,-3.45 -5,-12.79 -8.84,-15.65s-5.25,-4.72 -5.56,-5.17a2.65,2.65 0 0 1 1.69,-2.12l0.04,0zm-2.46,2.59c1,3.85 3.24,22 3.87,33.28c0.4,7.07 0.56,11.38 0.62,13.76a1.65,1.65 0 0 1 -0.47,1.21a1.43,1.43 0 0 1 -1.05,0.43l-2.51,-0.07a1.56,1.56 0 0 1 -1.47,-1.59c0,-2.92 -0.14,-8.58 -0.5,-15.11l0,0c0,-0.09 0,-0.18 0,-0.27c-0.24,-4.43 -0.6,-9.25 -1.11,-13.89c-0.94,-8.42 -1.92,-13.83 -2.73,-15.19c1.07,-2.17 4.32,-2.51 5.31,-2.57l0.04,0.01zm-30.75,28c2.64,-9.25 7.92,-14 9.26,-15.14a35,35 0 0 0 2.2,2.76q1.31,1.48 2.69,2.88q-1.24,-1.53 -2.38,-3.12a32.67,32.67 0 0 1 -2.07,-3.25a1.22,1.22 0 0 1 0,-1c0.61,-1.5 3.85,-2.78 6.46,-3.81c1,-0.4 2,-0.78 2.69,-1.14l1.81,-0.92a4.18,4.18 0 0 0 -0.31,0.95a5.89,5.89 0 0 0 -0.07,1.51a6.7,6.7 0 0 0 0.2,1.47a6.6,6.6 0 0 1 -0.07,-1.46a5.6,5.6 0 0 1 0.26,-1.41a3.69,3.69 0 0 1 0.67,-1.2a2.77,2.77 0 0 1 0.71,-0.6l2.71,-1.41c0.33,0.72 1.3,3.65 2.53,14.72c0.35,3.16 0.63,6.41 0.85,9.57c-0.12,-0.35 -0.24,-0.7 -0.37,-1a26,26 0 0 0 -1.16,-2.61a26.51,26.51 0 0 0 -1.42,-2.46a26.47,26.47 0 0 1 1.25,2.54a25.68,25.68 0 0 1 1,2.65a26.38,26.38 0 0 1 0.69,2.73c0.11,0.54 0.2,1.1 0.27,1.64c0.26,4.46 0.4,8.57 0.47,11.75l-1.78,0l-0.25,0.39c0,-0.38 -0.06,-0.76 -0.1,-1.14c-0.07,-0.75 -0.19,-1.5 -0.31,-2.25a27.64,27.64 0 0 0 -1.1,-4.38a27.45,27.45 0 0 1 0.71,4.43c0.06,0.75 0.1,1.49 0.11,2.23s0,1.49 0,2.23l0,0l-2.32,3.68l0,-0.06a0.82,0.82 0 0 0 -0.55,-0.44l-0.06,0c-0.19,0 -18.5,-0.93 -27.95,-1.21c0.47,-2.25 2.69,-11.1 4.69,-18.11l0.04,-0.01zm-7.66,24.76a17.44,17.44 0 0 1 0.07,-2.73c0,-0.62 0.08,-1.15 0.08,-1.49c0,-0.73 0,-1.63 2.21,-1.64l0,0.05c8.88,0.25 26.64,1.13 28.31,1.21c0,0.09 -0.15,1.14 -0.15,1.14l-3.44,5.45c-2.79,-0.14 -19.43,-1 -22.2,-1.19l-1.2,-0.09c-1.21,-0.06 -3.64,-0.28 -3.72,-0.69l0.04,-0.02zm3.72,13.27a47,47 0 0 1 0.66,-11.7l0.43,0c2.66,0.2 18,1 21.78,1.17l0,0l0,0.14s0.12,0.94 0.27,2.35l0,0a18.8,18.8 0 0 1 -2.87,6.05a14.86,14.86 0 0 0 -1,-1.83a13.2,13.2 0 0 0 -1.75,-2.09a13,13 0 0 1 1.32,2.33a14.33,14.33 0 0 1 0.78,2.26l0,0l0.07,0.23c1.34,4.56 0.58,9.87 -0.22,15.5a69,69 0 0 0 -1,12.35c-1.59,0.36 -3.69,0.8 -6.33,1.25c-3.43,0.59 -6.52,0.91 -8.73,1.08c-0.35,-2.32 -2.89,-18.27 -3.45,-29.07l0.04,-0.02zm-12.85,57.56c-1.52,-0.55 -2.05,-1.07 -2.12,-1.73a2,2 0 0 0 1,0.73l13.8,4.88c0,0.2 0,0.43 0,0.67c-1.31,-0.49 -10.44,-3.73 -12.68,-4.55zm12.89,2.79a1.14,1.14 0 0 0 -0.1,0.28l-13.62,-4.82a1.29,1.29 0 0 1 -0.83,-0.75a1.49,1.49 0 0 1 0,-1.29l1.09,-2.1a1.22,1.22 0 0 1 1.4,-0.66l14,4.65l-0.59,1.41l-4.09,-1.78c-0.7,-0.31 -7.31,-2.61 -8,-2.86a4.52,4.52 0 0 0 -1.16,-0.26a1,1 0 0 0 -0.66,0.19a0.93,0.93 0 0 0 -0.24,0.28l-0.14,0.25a5.69,5.69 0 0 0 -0.51,1.07a1,1 0 0 0 0,0.69a1.17,1.17 0 0 0 0.47,0.47a11.57,11.57 0 0 0 1.07,0.47l1.07,0.41c1.43,0.54 8.76,3.07 10.21,3.54c-0.69,-0.31 -1.4,-0.61 -2.09,-0.91l-8,-2.91c-0.69,-0.31 -1.43,-0.58 -2.06,-0.92a0.82,0.82 0 0 1 -0.32,-0.32a0.6,0.6 0 0 1 0,-0.43a5.61,5.61 0 0 1 0.49,-1l0.14,-0.26s0.07,-0.13 0.13,-0.15a0.65,0.65 0 0 1 0.41,-0.12a4.23,4.23 0 0 1 1.06,0.23c0.71,0.23 7.32,2.54 8,2.8l2.14,0.8c0.68,0.24 1.37,0.48 2.06,0.7c-0.61,1.69 -1.18,3.01 -1.34,3.3l0.01,0zm20.48,13.35a2.27,2.27 0 0 1 -1.61,-0.57a0.91,0.91 0 0 1 -0.2,-0.68a0.47,0.47 0 0 0 0,-0.13l0,0l-0.49,-5.43l-0.28,5a30.07,30.07 0 0 1 -3.73,-0.15c-1.21,-0.16 -1.3,-0.82 -1.31,-0.84l0,0l0,-0.39l0,0c-0.1,-0.82 -0.15,-1.66 -0.18,-2.5s0,-1.95 0,-2.92c-0.16,1 -0.29,1.93 -0.39,2.91s-0.14,1.69 -0.16,2.55a28.57,28.57 0 0 1 -4,-0.08a1.27,1.27 0 0 1 -1,-1.38a0.55,0.55 0 0 0 0,-0.15l0,0a22.83,22.83 0 0 1 0,-4.74c-0.22,0.77 -0.39,1.55 -0.53,2.35s-0.2,1.34 -0.26,2c-2,0.08 -4.29,-0.07 -4.88,-0.61c-0.09,-0.09 -0.1,-0.15 -0.1,-0.17c0,-0.51 -0.15,-1.39 -0.29,-2.39c-0.22,-1.59 -0.6,-4.25 -0.35,-4.71c0.47,-0.86 3.83,-9.12 4,-9.48l0,0l0.07,-0.17l0,0l0.58,-2.22l-1,1.51l-1.57,-2.85a0.34,0.34 0 0 1 0,-0.36l1.18,-1.61l0,0l0.18,-0.25l0,0a7.59,7.59 0 0 1 0.46,-0.67c0.24,-0.31 0.5,-0.62 0.76,-0.92c-0.35,0.2 -0.69,0.41 -1,0.63s-0.38,0.27 -0.57,0.41c-0.66,-1.43 -1.83,-6.49 -3.16,-13.64a0.9,0.9 0 0 1 0.17,-0.72a0.72,0.72 0 0 1 0.53,-0.28a94.84,94.84 0 0 0 11,-1.23c4.26,-0.74 7.11,-1.41 8.74,-1.84a0.55,0.55 0 0 1 0.49,0.11a0.73,0.73 0 0 1 0.27,0.59l0,0c-0.2,5.48 -2.61,12.48 -2.64,12.48l0,0.07l0,0a31.86,31.86 0 0 0 -0.45,3.49c0.17,-0.57 0.36,-1.14 0.57,-1.7a30.69,30.69 0 0 0 0.62,4.28a7.22,7.22 0 0 1 -0.56,4.48l-0.28,0.54l0,0a9.41,9.41 0 0 1 -0.67,1.14a9,9 0 0 0 1.39,-1.09a6.9,6.9 0 0 1 4.53,2.79a33,33 0 0 1 2.91,4.23l0,0a5,5 0 0 1 0.53,4.71a0.1,0.1 0 0 1 -0.05,0.05a0.09,0.09 0 0 1 -0.07,0c-1.57,-0.72 -1.89,-0.63 -2.1,-0.46s-2.14,3.22 -2.06,4.24c0,0.3 0.09,0.78 0.17,1.39c0.16,1.15 0.38,2.73 0.42,4a1.24,1.24 0 0 1 -0.27,1c-0.47,0.54 -1.82,0.47 -3.36,0.38zm22.71,-4.78l1,0.31l-5.75,10l-3.26,-1.07a7.94,7.94 0 0 0 0.92,-2.37l0.52,-0.92l0.06,0l0.15,-0.39l0.16,-0.27l0,0l0,-0.06l-0.35,-0.13l-0.31,-0.18l0,0l-4.74,-1.81l-1.48,1.86a9.09,9.09 0 0 0 -1,1.38l-0.57,0.78l-2.36,-0.81c0.52,-0.65 1.52,-1.91 1.93,-2.44l0.22,-0.27c0.36,-0.43 0.77,-0.93 0.63,-1.5c-0.1,-0.4 -0.44,-0.71 -1.05,-1l-3.25,-1.36l-0.06,-0.46c-0.08,-0.57 -0.15,-1.07 -0.17,-1.35c0,-0.61 1.34,-3 1.71,-3.5a6,6 0 0 1 1.33,0.5l0,0l15.41,4.83l-2.41,4.66l2.72,-4.43zm0.67,4.51l-1,-0.37l1.86,-3.24l1,0.31l-1.86,3.3zm2,-2l0,0.19l-1.45,2.6l0,-0.19l1.45,-2.6zm-2.24,2.73l0,1l-1.6,-0.63l0.44,-0.77l1.16,0.4zm0.32,3a2.51,2.51 0 0 0 0.6,0.19c0.46,0.15 0.93,0.29 1.41,0.41a10.68,10.68 0 0 0 2.09,0.34a4,4 0 0 0 2.08,-0.39a2.81,2.81 0 0 0 1.36,-1.55a2.7,2.7 0 0 1 -1.4,1.41a3.72,3.72 0 0 1 -2,0.17a10.18,10.18 0 0 1 -2,-0.52l-0.17,-0.07a3.55,3.55 0 0 0 1.52,-1.88l2.43,-4.17c0.88,0.3 2,0.67 3.08,1.07a2.62,2.62 0 0 1 1.72,1.28c0.38,0.9 0,2.42 -1.2,5.1c-1.7,3.73 -2.27,4.56 -6.75,3.25l-1.39,-0.4c-1.65,-0.46 -3.69,-1 -6.19,-1.92l2,-3.43a26,26 0 0 1 2.78,1.1l0,0l0.03,0.01zm2.65,-1.85a3.08,3.08 0 0 1 -0.55,0.77l0,-1l0.55,0.23zm-0.36,-1l2.06,-3.79l0.84,0.28l-2.19,3.77l-0.71,-0.26zm-16.51,1.3c0.81,-1.29 1.55,-1.82 1.72,-1.82l0,0l3.83,1.27l0,0a0.93,0.93 0 0 1 0,0.4l-1.41,2.46a0.42,0.42 0 0 0 -0.07,0.25l0,0l0,0.52c-0.62,0.82 -1.14,1.17 -1.28,1.17l0,0l-3.83,-1.27l0,0a4.52,4.52 0 0 1 0.87,-2.7l0.15,-0.25l0,0l0.02,-0.03zm2,-2.56l0.07,-0.09l2.28,0.87l-2.26,-0.75l-0.09,-0.03zm2.91,5.91l0.12,-0.17l3.7,1.26c2.74,1 4.93,1.59 6.69,2.09l1.38,0.39a12.12,12.12 0 0 0 3.28,0.6c2.3,0 3.12,-1.44 4.41,-4.28c0.36,-0.79 0.64,-1.47 0.86,-2.09c-0.25,0.77 -0.6,1.64 -1,2.63c-1.83,4.41 -3.08,5 -5,4.7c-2.37,-0.39 -5.08,-1.22 -14.4,-4.38l-0.04,-0.75zm-6.39,-2.15a6.36,6.36 0 0 0 -0.28,0.88l-2.13,-0.73l0,-1l2.41,0.85zm-0.48,-4.94c-0.41,-0.19 -1.6,-0.74 -3,-1.31c0,-0.31 -0.07,-0.62 -0.11,-0.93l2.83,1.23c0.5,0.2 0.57,0.37 0.58,0.41s-0.11,0.41 -0.3,0.65l0,-0.05zm37.18,39.37c-17.59,0 -34.65,0 -43.4,0c-1.28,-5.77 0,-8.84 0.06,-8.87l0.09,-0.2l-0.12,-0.18a6.85,6.85 0 0 1 -0.83,-3.3c-0.11,-4.88 1.64,-15.36 1.66,-15.46l0,-0.21l-0.15,-0.14c-1.37,-1.28 -1.11,-4.47 -0.84,-7.84l0,-0.54l-0.26,0l0.87,0a3.27,3.27 0 0 0 2.33,-0.62a2,2 0 0 0 0.51,-1.56c0,-0.28 0,-0.58 -0.05,-0.88c1,0.44 1.92,0.84 2.38,1.05c-0.65,0.84 -2.09,2.63 -2.11,2.65l-0.13,0.18l0,0.09l0,0l0,2.09l2.84,1a0.91,0.91 0 0 0 0.4,0.79a0.69,0.69 0 0 0 0.22,0.08l3.7,1.22a0.74,0.74 0 0 0 0.33,0.07a1.82,1.82 0 0 0 1.16,-0.6l0.14,-0.15l0,0.38l0.27,0.09c9.59,3.25 12.35,4.09 14.79,4.5a5.67,5.67 0 0 0 0.93,0.08c2.08,0 3.38,-1.44 5,-5.27c1.17,-2.83 1.89,-4.79 1.21,-6.28a4.18,4.18 0 0 0 -2.75,-2l0,0c-2.55,-0.91 -5,-1.71 -5,-1.72l-0.31,-0.1l-2.58,4.75l-0.09,0.17l0.06,0.17l-0.07,1.89a1.46,1.46 0 0 1 -1,-0.13l0,0a26.1,26.1 0 0 0 -2.72,-1.09l0.09,-0.16l2.23,0.88l0.21,0.07l0.35,-0.25l0,-0.08l2.24,-4l0,-1.92l0,0a0.41,0.41 0 0 0 0,-0.14l-0.08,-0.19l-1.56,-0.52a0.7,0.7 0 0 0 -0.49,-0.56l-15.94,-5l0,0c0,-0.09 0.08,-0.2 0.12,-0.31c4.57,1.57 12.76,2.42 22.66,2.42c2.8,0 5.74,-0.07 8.77,-0.21c0.06,8.47 1.56,25.51 2.54,30.52l-0.51,-0.16a9.39,9.39 0 0 1 -3.48,-2.09a7.54,7.54 0 0 0 3.27,2.63a10,10 0 0 0 4.1,0.82c0.3,1.41 0.64,2.81 1,4.17a33.56,33.56 0 0 1 -2.06,10.02l0,-0.05zm50.58,0.07l-40.41,-0.06a1.81,1.81 0 0 1 -1,-0.31l-0.19,-0.14c-4.18,-3 -5.91,-8.31 -7.09,-13.76a12.71,12.71 0 0 0 3.47,-0.73a11.4,11.4 0 0 0 1.92,-0.91a8.17,8.17 0 0 0 1.66,-1.24a16,16 0 0 1 -3.78,1.58c-0.37,0.1 -0.74,0.19 -1.12,0.26c-0.82,-1 -0.88,-5.71 -0.63,-7.93a8.52,8.52 0 0 0 -0.36,-3.38c0.41,-1 0.06,-3.12 -0.44,-6.2a82,82 0 0 1 -1.36,-13.45c18.59,-1.19 37.79,-3.52 42,-5.78a7.72,7.72 0 0 1 0,2.77l0,0a5.51,5.51 0 0 0 -0.67,2.22l-22.37,8l0,0l-0.27,0.1l0,6.66l0.69,0.81l0.07,7.83l15.56,18.21l0.19,0.22l0.26,-0.1l0,0l13.43,-4.82a80.07,80.07 0 0 1 0.4,10.19l0.04,-0.04zm39.24,-25.38a0.19,0.19 0 0 1 -0.12,0.18c-4.58,1.65 -47.49,17 -52.74,18.92l0,-9.37c8.74,-3.08 44.93,-16 52.86,-18.79l0,9.06zm-54.48,9.41l0,-5l55.67,-19.79l0,5c-13.58,4.89 -50.88,18.17 -55.67,19.84l0,-0.05z" fill="#3a1b01" id="svg_128"/>
      <path d="m113.92,74.29a0.27,0.27 0 0 0 0,0.55a0.27,0.27 0 0 0 0,-0.55z" fill="#de9886" id="svg_129"/>
      <path d="m110.71,76.33a0.27,0.27 0 0 0 0,0.55a0.27,0.27 0 0 0 0,-0.55z" fill="#de9886" id="svg_130"/>
      <path d="m114.19,76.33a0.27,0.27 0 0 0 0,0.55a0.27,0.27 0 0 0 0,-0.55z" fill="#de9886" id="svg_131"/>
      <path d="m117.95,76.43a0.27,0.27 0 0 0 0,0.55a0.27,0.27 0 0 0 0,-0.55z" fill="#de9886" id="svg_132"/>
      <path d="m113.67,78.61a0.27,0.27 0 0 0 0,0.55a0.27,0.27 0 0 0 0,-0.55z" fill="#de9886" id="svg_133"/>
      <path d="m148.77,74a0.27,0.27 0 0 0 0,0.55a0.27,0.27 0 0 0 0,-0.55z" fill="#de9886" id="svg_134"/>
      <path d="m144.94,75.2a0.27,0.27 0 0 0 0,0.55a0.27,0.27 0 0 0 0,-0.55z" fill="#de9886" id="svg_135"/>
      <path d="m149.68,75.65a0.27,0.27 0 0 0 0,0.55a0.27,0.27 0 0 0 0,-0.55z" fill="#de9886" id="svg_136"/>
      <path d="m152.65,75.44a0.27,0.27 0 0 0 0,0.55a0.27,0.27 0 0 0 0,-0.55z" fill="#de9886" id="svg_137"/>
      <path d="m147.74,77.08a0.27,0.27 0 0 0 0,0.55a0.27,0.27 0 0 0 0,-0.55z" fill="#de9886" id="svg_138"/>
     </g>
     <path d="m376.36,152.28q0,29 -30.13,29.09t-30.06,-29.17l0,-84.6q0,-29.09 30.06,-29.09t30.13,29.09l0,18.63l-20.93,-3.71l0,-14.92q0,-9.35 -9.13,-9.43l-0.15,0q-9.06,0 -9.05,9.43l0,84.67q0,9.43 9.13,9.43t9.2,-9.43l0,-14.91l20.93,-3.71l0,18.63z" fill="#ffffff" id="svg_139"/>
     <path d="m452,132.31l6.81,49.06l-21.15,-3.71l-4.08,-25.61l-21.45,0l-4.13,25.61l-21.11,3.71l6.83,-48.84l14.77,-89.36l28.8,0l14.71,89.14zm-37.2,0.06l16,0l-5.8,-41.32l-4.45,0l-5.75,41.32z" fill="#ffffff" id="svg_140"/>
     <path d="m471.58,43.17l20.93,3.72l0,55.58l18.33,0l0,-55.58l20.93,-3.72l0,138.2l-20.93,-3.71l0,-55.52l-18.33,0l0,55.52l-20.93,3.71l0,-138.2z" fill="#ffffff" id="svg_141"/>
     <path d="m605.39,43.17l-3.71,19.67l-15.88,0l0,118.53l-20.93,0l0,-118.53l-15.87,0l-3.72,-19.67l60.11,0z" fill="#ffffff" id="svg_142"/>
     <path d="m619,43.17l54.3,0l-3.71,19.67l-29.68,0l0,39.63l25,0l0,19.67l-25,0l0,39.56l29.69,0l3.7,19.67l-54.3,0l0,-138.2z" fill="#ffffff" id="svg_143"/>
     <path d="m703.44,46.66l13.66,35.4l13.58,-35.4l21.08,-3.49l-24.12,69.1l24.11,69.1l-21.08,-3.49l-13.58,-35.4l-13.66,35.4l-21.07,3.49l24.12,-69.1l-24.12,-69.1l21.08,3.49z" fill="#ffffff" id="svg_144"/>
     <path d="m764.52,43.17l20.93,3.72l0,55.58l18.33,0l0,-55.58l20.93,-3.72l0,138.2l-20.93,-3.71l0,-55.52l-18.33,0l0,55.52l-20.93,3.71l0,-138.2z" fill="#ffffff" id="svg_145"/>
     <path d="m904.5,181.37l-20.19,-3.71l0,-73.92l-19.15,73.92l-21,3.71l0,-138.2l19.45,3.71l0,76.49l19.89,-76.45l21,-3.71l0,138.16z" fill="#ffffff" id="svg_146"/>
     <path d="m961.79,112.27l27.68,69.1l-22.41,-3.71l-22.34,-57.74l0,57.74l-20.93,3.71l0,-138.2l20.93,3.71l0,57.82l22.34,-57.82l22.41,-3.71l-27.68,69.1z" fill="#ffffff" id="svg_147"/>
     <path d="m369.06,233.7a12.55,12.55 0 0 1 -4,8.36a13.1,13.1 0 0 1 -8.94,2.94a12,12 0 0 1 -9.69,-4.34q-3.64,-4.34 -3.64,-11.6l0,-3.28a19.44,19.44 0 0 1 1.7,-8.37a12.69,12.69 0 0 1 4.82,-5.54a13.41,13.41 0 0 1 7.22,-1.93a12.33,12.33 0 0 1 8.72,3a12.71,12.71 0 0 1 3.82,8.4l-4.52,0q-0.59,-4.09 -2.54,-5.92a7.7,7.7 0 0 0 -5.47,-1.83a8.05,8.05 0 0 0 -6.76,3.19q-2.45,3.19 -2.45,9.08l0,3.31q0,5.56 2.32,8.84a7.5,7.5 0 0 0 6.49,3.28a8.66,8.66 0 0 0 5.75,-1.7q2,-1.7 2.66,-5.92l4.51,0.03z" fill="#ffffff" id="svg_148"/>
     <path d="m395.16,236.09l-14.3,0l-3.16,8.93l-4.64,0l13,-34.12l3.94,0l13.08,34.12l-4.62,0l-3.3,-8.93zm-12.94,-3.68l11.6,0l-5.81,-16l-5.79,16z" fill="#ffffff" id="svg_149"/>
     <path d="m433.31,245.02l-4.52,0l0,-15.77l-17.22,0l0,15.77l-4.5,0l0,-34.12l4.5,0l0,14.67l17.2,0l0,-14.67l4.52,0l0.02,34.12z" fill="#ffffff" id="svg_150"/>
     <path d="m463.69,214.57l-11,0l0,30.45l-4.48,0l0,-30.45l-10.91,0l0,-3.68l26.39,0l0,3.68z" fill="#ffffff" id="svg_151"/>
     <path d="m486.98,229.25l-14.8,0l0,12.09l17.18,0l0,3.68l-21.68,0l0,-34.12l21.45,0l0,3.68l-16.95,0l0,11l14.8,0l0,3.67z" fill="#ffffff" id="svg_152"/>
     <path d="m507.11,224.02l8.18,-13.08l5.3,0l-10.79,16.88l11,17.2l-5.3,0l-8.39,-13.31l-8.44,13.31l-5.32,0l11.06,-17.2l-10.8,-16.92l5.27,0l8.23,13.12z" fill="#ffffff" id="svg_153"/>
     <path d="m557.79,230.2l7.85,-19.8l5.23,0l-12.07,28.42a14.82,14.82 0 0 1 -2.27,3.86a7.1,7.1 0 0 1 -2.47,1.73a9.18,9.18 0 0 1 -3.55,0.6a8,8 0 0 1 -2.37,-0.21l0.14,-3.56l2.13,0.09a3.88,3.88 0 0 0 3.66,-2.37l0.59,-1.22l0.89,-2.09l-11.62,-25.27l5,0l8.86,19.82z" fill="#ffffff" id="svg_154"/>
     <path d="m601.98,233.7a12.55,12.55 0 0 1 -4,8.36a13.1,13.1 0 0 1 -8.94,2.94a12,12 0 0 1 -9.69,-4.34q-3.64,-4.34 -3.64,-11.6l0,-3.28a19.44,19.44 0 0 1 1.7,-8.37a12.69,12.69 0 0 1 4.82,-5.54a13.41,13.41 0 0 1 7.22,-1.93a12.33,12.33 0 0 1 8.72,3a12.71,12.71 0 0 1 3.82,8.4l-4.52,0q-0.59,-4.09 -2.54,-5.92a7.7,7.7 0 0 0 -5.47,-1.83a8.05,8.05 0 0 0 -6.76,3.19q-2.45,3.19 -2.45,9.08l0,3.31q0,5.56 2.32,8.84a7.5,7.5 0 0 0 6.49,3.28a8.66,8.66 0 0 0 5.75,-1.7q2,-1.7 2.66,-5.92l4.51,0.03z" fill="#ffffff" id="svg_155"/>
     <path d="m635.5,210.9l0,34.12l-4.5,0l0,-30.45l-12.24,0l-0.61,13.53a45.66,45.66 0 0 1 -1.39,10.24a9.91,9.91 0 0 1 -3.06,5a8.6,8.6 0 0 1 -5.39,1.65l-1.48,0l0,-3.68l0.94,0a4.9,4.9 0 0 0 3.35,-1.42a8.55,8.55 0 0 0 1.78,-4a53.67,53.67 0 0 0 0.87,-8.44l0.7,-16.55l21.03,0z" fill="#ffffff" id="svg_156"/>
     <path d="m654.2,230.2l7.85,-19.8l5.23,0l-12.07,28.42a14.82,14.82 0 0 1 -2.27,3.86a7.1,7.1 0 0 1 -2.47,1.73a9.18,9.18 0 0 1 -3.55,0.6a8,8 0 0 1 -2.37,-0.21l0.14,-3.56l2.13,0.09a3.88,3.88 0 0 0 3.66,-2.37l0.59,-1.22l0.89,-2.09l-11.62,-25.27l5,0l8.86,19.82z" fill="#ffffff" id="svg_157"/>
     <path d="m693.09,214.57l-16.46,0l0,30.45l-4.52,0l0,-34.12l21,0l-0.02,3.67z" fill="#ffffff" id="svg_158"/>
     <path d="m719.27,210.9l4.5,0l0,34.12l-4.5,0l0,-26.3l-16.8,26.3l-4.52,0l0,-34.12l4.52,0l0,26.3l16.8,-26.3z" fill="#ffffff" id="svg_159"/>
     <path d="m746.86,245l0,-34.12l11.62,0q5.79,0 8.72,2.3t2.92,6.8a7.23,6.93 0 0 1 -1.42,4.23a9.19,8.81 0 0 1 -3.86,2.85a8.25,7.91 0 0 1 4.56,2.94a8.8,8.44 0 0 1 1.68,5.17a9.52,9.13 0 0 1 -3.13,7.22q-3.13,2.63 -8.77,2.63l-12.32,-0.02zm4.69,-19.57l7.09,0a7.44,7.13 0 0 0 4.92,-1.48a5.22,5 0 0 0 1.85,-4a5.09,4.88 0 0 0 -1.71,-4.1a8.41,8.06 0 0 0 -5.22,-1.28l-6.95,0l0.01,10.86l0.01,0zm0,3.61l0,12.28l7.75,0a7.46,7.15 0 0 0 5.22,-1.63a5.97,5.72 0 0 0 1.9,-4.49q0,-6.16 -6.99,-6.16l-7.87,0l-0.01,0z" fill="#ffffff" id="svg_160"/>
     <path d="m801.29,229.68l-4.15,0l0,15.33l-4.5,0l0,-34.12l4.5,0l0,15l3.52,0l11.93,-15l5.6,0l-13,16.55l14,17.58l-5.51,0l-12.39,-15.34z" fill="#ffffff" id="svg_165"/>
     <path d="m889.56,245l0,-34.12l11.15,0q5.55,0 8.36,2.3t2.8,6.8a6.93,6.93 0 0 1 -1.36,4.23a8.81,8.81 0 0 1 -3.7,2.85a7.91,7.91 0 0 1 4.37,2.94a8.44,8.44 0 0 1 1.61,5.17a9.13,9.13 0 0 1 -3,7.22q-3,2.63 -8.41,2.63l-11.82,-0.02zm4.5,-19.57l6.8,0a7.13,7.13 0 0 0 4.72,-1.48a5,5 0 0 0 1.77,-4a4.88,4.88 0 0 0 -1.64,-4.1a8.06,8.06 0 0 0 -5,-1.28l-6.7,0l0.05,10.86zm0,3.61l0,12.28l7.43,0a7.15,7.15 0 0 0 5,-1.63a5.72,5.72 0 0 0 1.82,-4.49q0,-6.16 -6.7,-6.16l-7.55,0z" fill="#ffffff" id="svg_167"/>
     <path d="m939.72,229.25l-14.79,0l0,12.09l17.18,0l0,3.68l-21.68,0l0,-34.12l21.45,0l0,3.68l-16.95,0l0,11l14.79,0l0,3.67z" fill="#ffffff" id="svg_168"/>
     <path d="m848.13,210.9l4.5,0l0,34.12l-4.5,0l0,-26.3l-16.8,26.3l-4.52,0l0,-34.12l4.52,0l0,26.3l16.8,-26.3z" fill="#ffffff" id="svg_169"/>
     <path d="m879.55,229.25l-14.79,0l0,12.09l17.18,0l0,3.68l-21.68,0l0,-34.12l21.45,0l0,3.68l-16.95,0l0,11l14.79,0l0,3.67z" fill="#ffffff" id="svg_170"/>
    </g>
   </svg>