<svg viewBox="0 0 512 512" xmlns="http://www.w3.org/2000/svg"><path d="m471.95 253.05c0 120.9-98.01 218.9-218.9 218.9-120.9 0-218.9-98.01-218.9-218.9 0-120.9 98.01-218.9 218.9-218.9 120.9 0 218.9 98.01 218.9 218.9" fill="#7d529e" fill-rule="evenodd"/><path d="m258.09 119.84c-2.451-.028-4.719 1.267-5.969 3.375s-1.295 4.707-.094 6.844c.45.801 1.049 1.483 1.75 2.031.306.364.63.71 1 1 .306.364.63.71 1 1 .262.311.534.618.844.875.334.418.709.799 1.125 1.125.305.361.632.712 1 1 .305.361.632.681 1 .969.306.364.63.71 1 1 .306.364.63.71 1 1 .262.311.534.618.844.875.293.366.644.704 1 1 .334.418.709.799 1.125 1.125.305.361.632.681 1 .969.306.364.63.71 1 1 .306.364.63.71 1 1 .305.362.632.712 1 1 .262.311.534.618.844.875.334.418.709.799 1.125 1.125.305.361.632.681 1 .969.306.364.63.71 1 1 .306.364.63.71 1 1 .043.051.081.107.125.156-1.553-.205-3.131-.398-4.719-.563-.228-.032-.457-.053-.688-.063-.229-.012-.458-.012-.688 0-3.637.188-6.492 3.202-6.5 6.844-.005 2.146.977 4.049 2.531 5.313.282.346.594.652.938.938.295.372.634.696 1 1 .313.395.67.745 1.063 1.063.296.362.636.705 1 1 .296.362.636.705 1 1 .294.359.608.676.969.969.298.366.634.702 1 1 .282.346.594.652.938.938.313.395.67.745 1.063 1.063.296.362.636.705 1 1 .296.362.636.705 1 1 .294.359.608.676.969.969.298.366.634.702 1 1 .282.346.594.652.938.938.295.372.634.696 1 1 .313.395.67.745 1.063 1.063.296.362.636.705 1 1 .289.353.615.679.969.969.298.366.634.702 1 1 .282.346.594.652.938.938.295.372.634.696 1 1 .313.395.67.745 1.063 1.063.199.243.426.474.656.688-2.393-.418-4.848-.712-7.344-.906-.228-.022-.458-.032-.688-.031-3.665.056-6.641 2.993-6.75 6.656-.066 2.219.953 4.228 2.563 5.531.34.417.727.798 1.156 1.125.275.32.545.642.875.906.307.376.681.698 1.063 1 .302.367.627.704 1 1 .291.356.611.679.969.969.31.386.674.722 1.063 1.031.328.402.68.778 1.094 1.094.277.329.57.637.906.906.333.414.702.771 1.125 1.094.275.328.571.638.906.906.296.369.63.703 1 1 .331.416.732.801 1.156 1.125.304.363.622.712 1 1 .303.361.624.713 1 1 .304.365.652.711 1.031 1 .304.366.621.711 1 1 .303.364.654.712 1.031 1 .303.366.621.711 1 1 .305.37.618.708 1 1 .304.371.648.708 1.031 1 .301.366.622.712 1 1 .301.367.653.711 1.031 1 .303.372.617.708 1 1 .303.374.648.707 1.031 1 .299.368.622.711 1 1 .299.369.621.711 1 1 .28.349.586.659.938.938.323.417.702.807 1.125 1.125.291.356.634.689 1 .969.296.368.624.713 1 1 .296.369.654.712 1.031 1 .303.379.642.739 1.031 1.031.303.375.643.711 1.031 1 .297.368.621.715 1 1 .31.385.662.738 1.063 1.031.296.362.622.721 1 1 .117.145.244.274.375.406.444.854 1.071 1.594 1.813 2.188.296.36.638.676 1 .969.298.37.633.701 1 1 .323.402.69.745 1.094 1.063.3.364.631.707 1 1 .363.445.756.85 1.219 1.188.264.297.532.598.844.844.303.367.658.706 1.031 1 .31.376.647.733 1.031 1.031.284.343.591.659.938.938.314.39.701.724 1.094 1.031.303.369.625.738 1 1.031.296.361.634.68 1 .969.292.362.638.678 1 .969.323.404.685.779 1.094 1.094.285.345.619.66.969.938.302.377.653.701 1.031 1 .313.391.667.725 1.063 1.031.285.351.585.687.938.969.299.376.655.702 1.031 1 .3.379.653.701 1.031 1 .314.398.661.753 1.063 1.063.288.357.609.685.969.969.292.367.633.71 1 1 .303.387.676.698 1.063 1 .34.43.714.802 1.156 1.125.312.373.639.745 1.031 1.031.255.301.535.599.844.844.286.368.637.678 1 .969.026.034.067.06.094.094.034.026.059.068.094.094.274.327.569.646.906.906.326.409.703.786 1.125 1.094.264.318.55.62.875.875.332.426.721.807 1.156 1.125.283.342.585.669.938.938.319.4.682.762 1.094 1.063.265.325.546.617.875.875.329.43.72.806 1.156 1.125.303.371.645.718 1.031 1 .269.33.57.647.906.906.324.423.696.781 1.125 1.094.269.335.568.644.906.906.32.417.702.785 1.125 1.094.262.326.577.618.906.875.302.405.662.726 1.063 1.031.281.37.604.683.969.969.282.378.631.709 1 1 .297.406.666.726 1.063 1.031.292.392.645.704 1.031 1 .303.406.658.76 1.063 1.063.275.359.58.693.938.969.292.394.673.704 1.063 1 .294.395.638.736 1.031 1.031.297.394.667.708 1.063 1 .27.356.586.665.938.938.294.407.632.761 1.031 1.063.286.387.648.711 1.031 1 .291.395.67.708 1.063 1 .278.374.598.719.969 1 .284.389.649.711 1.031 1 .282.386.651.713 1.031 1 .288.396.639.741 1.031 1.031.288.395.639.711 1.031 1 .284.39.614.714 1 1 .285.391.643.714 1.031 1 .278.382.622.718 1 1 .294.411.654.736 1.063 1.031.281.386.617.719 1 1 .281.387.646.719 1.031 1 .277.381.622.722 1 1 .29.407.657.741 1.063 1.031.286.393.637.719 1.031 1 .282.388.611.722 1 1 .271.374.628.697 1 .969.277.395.612.717 1 1 .006.005.025-.005.031 0 .011.008.02.023.031.031.005.005-.005.027 0 .031.269.371.599.669.969.938.011.009.02.022.031.031.012.009.019.023.031.031.011.01.02.022.031.031.215.291.47.554.75.781.064.056.12.136.188.188.005.005.026-.005.031 0 .004.003-.004.028 0 .031.108.149.249.273.375.406.035.04.058.087.094.125.107.105.227.188.344.281.056.048.098.112.156.156.007.005.024-.005.031 0 .011.008.02.023.031.031.074.102.168.187.25.281.248.313.515.584.844.813.271.39.611.724 1 1 .281.406.625.748 1.031 1.031.271.383.585.727.969 1 .277.4.602.748 1 1.031.273.392.611.751 1 1.031.273.39.613.72 1 1 .276.396.607.748 1 1.031.278.396.638.747 1.031 1.031.277.39.611.75 1 1.031.279.393.608.717 1 1 .286.402.629.743 1.031 1.031.28.388.611.75 1 1.031.28.386.612.751 1 1.031.272.372.597.694.969.969.289.409.625.767 1.031 1.063.279.382.617.75 1 1.031.293.402.657.741 1.063 1.031.273.365.57.697.938.969.294.409.623.766 1.031 1.063.289.392.635.744 1.031 1.031.286.381.613.75 1 1.031.287.382.612.718 1 1 .267.355.583.698.938.969.294.406.659.764 1.063 1.063.297.398.628.77 1.031 1.063.282.37.594.691.969.969.292.391.638.74 1.031 1.031.288.38.616.747 1 1.031.293.386.608.774 1 1.063.287.373.621.688 1 .969.28.369.6.719.969 1 .3.4.66.764 1.063 1.063.295.385.609.71 1 1 .283.37.598.717.969 1 .299.397.632.763 1.031 1.063.297.385.64.741 1.031 1.031.281.36.573.691.938.969.294.39.642.734 1.031 1.031.29.378.62.741 1 1.031.301.392.635.765 1.031 1.063.293.372.62.715 1 1 .292.375.621.711 1 1 .295.382.615.738 1 1.031.304.391.634.764 1.031 1.063.28.354.611.66.969.938.301.389.639.763 1.031 1.063.297.378.617.739 1 1.031.297.377.617.739 1 1.031.297.374.65.71 1.031 1 .159.2.324.41.5.594 15.767-26.607 26.08-56.817 29.344-89.12-.269-.263-.542-.52-.813-.781-.025-.027-.037-.067-.063-.094-.299-.295-.604-.583-.906-.875-.035-.037-.058-.088-.094-.125-.299-.295-.604-.583-.906-.875-.036-.037-.058-.088-.094-.125-.095-.094-.186-.188-.281-.281-.533-.537-1.081-1.068-1.625-1.594-.016-.016-.016-.046-.031-.063-.011-.01-.021-.021-.031-.031-.333-.329-.663-.675-1-1-.309-.306-.625-.604-.938-.906-.025-.027-.037-.067-.063-.094-.309-.306-.625-.604-.938-.906-.026-.027-.037-.067-.063-.094-.299-.295-.604-.583-.906-.875-.037-.037-.057-.088-.094-.125-.095-.094-.186-.188-.281-.281-.536-.54-1.077-1.065-1.625-1.594-.016-.016-.016-.046-.031-.063-.011-.01-.021-.021-.031-.031-.333-.329-.663-.675-1-1-.333-.329-.663-.675-1-1-.309-.306-.625-.604-.938-.906-.025-.027-.037-.067-.063-.094-.299-.295-.604-.583-.906-.875-.036-.037-.058-.088-.094-.125-.338-.334-.658-.67-1-1-.327-.324-.637-.649-.969-.969-.333-.329-.663-.675-1-1-.333-.329-.663-.675-1-1-.309-.306-.625-.604-.938-.906-.025-.027-.037-.067-.063-.094-.299-.295-.604-.583-.906-.875-.035-.037-.058-.088-.094-.125-.299-.295-.604-.583-.906-.875-.036-.037-.058-.088-.094-.125-.095-.094-.186-.188-.281-.281-.533-.537-1.081-1.068-1.625-1.594-.016-.016-.016-.046-.031-.063-.011-.01-.021-.021-.031-.031-.333-.329-.663-.675-1-1-.309-.306-.625-.604-.938-.906-.025-.027-.037-.067-.063-.094-.299-.295-.604-.583-.906-.875-.035-.037-.058-.088-.094-.125-.299-.295-.604-.583-.906-.875-.036-.037-.058-.088-.094-.125-.095-.094-.186-.188-.281-.281-.533-.537-1.081-1.068-1.625-1.594-.016-.016-.016-.046-.031-.063-.011-.01-.021-.021-.031-.031-.333-.329-.663-.675-1-1-.309-.306-.625-.604-.938-.906-.025-.027-.037-.067-.063-.094-.309-.306-.625-.604-.938-.906-.026-.027-.037-.067-.063-.094-.299-.295-.604-.583-.906-.875-.037-.037-.057-.088-.094-.125-.095-.094-.186-.188-.281-.281-.536-.54-1.077-1.065-1.625-1.594-.016-.016-.016-.046-.031-.063-.011-.01-.021-.021-.031-.031-.333-.329-.663-.675-1-1-.333-.329-.663-.675-1-1-.309-.306-.625-.604-.938-.906-.025-.027-.037-.067-.063-.094-.299-.295-.604-.583-.906-.875-.036-.037-.058-.088-.094-.125-.299-.295-.604-.583-.906-.875-.036-.037-.058-.088-.094-.125-.327-.324-.637-.649-.969-.969-.333-.329-.663-.675-1-1-.333-.329-.663-.675-1-1-.309-.306-.625-.604-.938-.906-.025-.027-.037-.067-.063-.094-.299-.295-.604-.583-.906-.875-.035-.037-.058-.088-.094-.125-.299-.295-.604-.583-.906-.875-.036-.037-.058-.088-.094-.125-.095-.094-.186-.188-.281-.281-.533-.537-1.081-1.068-1.625-1.594-.016-.016-.016-.046-.031-.063-.011-.01-.021-.021-.031-.031-.333-.329-.663-.675-1-1-.309-.306-.625-.604-.938-.906-.025-.027-.037-.067-.063-.094-.309-.306-.625-.604-.938-.906-.026-.027-.037-.067-.063-.094-.299-.295-.604-.583-.906-.875-.037-.037-.057-.088-.094-.125-.095-.094-.186-.188-.281-.281-.536-.54-1.077-1.065-1.625-1.594-.016-.016-.016-.046-.031-.063-.011-.01-.021-.021-.031-.031-.333-.329-.663-.675-1-1-.309-.306-.625-.604-.938-.906-.025-.027-.037-.067-.063-.094-.309-.306-.625-.604-.938-.906-.025-.027-.037-.067-.063-.094-.299-.295-.604-.583-.906-.875-.036-.037-.058-.088-.094-.125-.338-.334-.658-.67-1-1-.327-.324-.637-.649-.969-.969-.333-.329-.663-.675-1-1-.333-.329-.663-.675-1-1-.309-.306-.625-.604-.938-.906-.025-.027-.037-.067-.063-.094-.299-.295-.604-.583-.906-.875-.036-.037-.058-.088-.094-.125-.299-.295-.604-.583-.906-.875-.036-.037-.058-.088-.094-.125-.327-.324-.637-.649-.969-.969-.333-.329-.663-.675-1-1-.333-.329-.663-.675-1-1-.309-.306-.625-.604-.938-.906-.025-.027-.037-.067-.063-.094-.299-.295-.604-.583-.906-.875-.035-.037-.058-.088-.094-.125-.299-.295-.604-.583-.906-.875-.036-.037-.058-.088-.094-.125-.095-.094-.186-.188-.281-.281-.533-.537-1.081-1.068-1.625-1.594-.016-.016-.016-.046-.031-.063-.011-.01-.021-.021-.031-.031-.333-.329-.663-.675-1-1-.309-.306-.625-.604-.938-.906-.025-.027-.037-.067-.063-.094-.309-.306-.625-.604-.938-.906-.026-.027-.037-.067-.063-.094-.299-.295-.604-.583-.906-.875-.037-.037-.057-.088-.094-.125-.095-.094-.186-.188-.281-.281-.536-.54-1.077-1.065-1.625-1.594-.016-.016-.016-.046-.031-.063-.011-.01-.021-.021-.031-.031-.333-.329-.663-.675-1-1-.333-.329-.663-.675-1-1-.309-.306-.625-.604-.938-.906-.025-.027-.037-.067-.063-.094-.299-.295-.604-.583-.906-.875-.036-.037-.058-.088-.094-.125-.299-.295-.604-.583-.906-.875-.036-.037-.058-.088-.094-.125-.327-.324-.637-.649-.969-.969-.333-.329-.663-.675-1-1-.333-.329-.663-.675-1-1-.309-.306-.625-.604-.938-.906-.025-.027-.037-.067-.063-.094-.299-.295-.604-.583-.906-.875-.035-.037-.058-.088-.094-.125-.299-.295-.604-.583-.906-.875-.036-.037-.058-.088-.094-.125-.095-.094-.186-.188-.281-.281-.533-.537-1.081-1.068-1.625-1.594-.016-.016-.016-.046-.031-.063-.011-.01-.021-.021-.031-.031-.333-.329-.663-.675-1-1-.309-.306-.625-.604-.938-.906-.025-.027-.037-.067-.063-.094-.309-.306-.625-.604-.938-.906-.026-.027-.037-.067-.063-.094-.299-.295-.604-.583-.906-.875-.037-.037-.057-.088-.094-.125-.095-.094-.186-.188-.281-.281-.536-.54-1.077-1.065-1.625-1.594-.016-.016-.016-.046-.031-.063-.011-.01-.021-.021-.031-.031-.333-.329-.663-.675-1-1-.309-.306-.625-.604-.938-.906-.025-.027-.037-.067-.063-.094-.309-.306-.625-.604-.938-.906-.025-.027-.037-.067-.063-.094-.299-.295-.604-.583-.906-.875-.036-.037-.058-.088-.094-.125-.338-.334-.658-.67-1-1-.327-.324-.637-.649-.969-.969-.333-.329-.663-.675-1-1-.333-.329-.663-.675-1-1-.309-.306-.625-.604-.938-.906-.025-.027-.037-.067-.063-.094-.299-.295-.604-.583-.906-.875-.036-.037-.058-.088-.094-.125-.299-.295-.604-.583-.906-.875-.036-.037-.058-.088-.094-.125-.327-.324-.637-.649-.969-.969-.333-.329-.663-.675-1-1-.333-.329-.663-.675-1-1-.309-.306-.625-.604-.938-.906-.025-.027-.037-.067-.063-.094-.299-.295-.604-.583-.906-.875-.035-.037-.058-.088-.094-.125-.299-.295-.604-.583-.906-.875-.036-.037-.058-.088-.094-.125-.095-.094-.186-.188-.281-.281-.533-.537-1.081-1.068-1.625-1.594-.016-.016-.016-.046-.031-.063-.011-.01-.021-.021-.031-.031-.333-.329-.663-.675-1-1-.084-.083-.166-.167-.25-.25-21.631-21.822-52.758-34.44-93.5-36.938-.228-.022-.458-.032-.688-.031m-90 2.063c-3.903.129-8.04 1.907-13.438 5.531-12.221 11.195-27.345 19.424-32.5 34.13-.024.067-1.531 4.375-1.531 4.375 1.256 12.481 6.571 28.15 14.938 45.41 13.956 28.776 34.08 64.19 62.28 92.28.45.455.92.893 1.375 1.344.005.005-.005.026 0 .031.331.324.667.647 1 .969l.031.031c.005.005.026-.005.031 0 .01.009.022.022.031.031.102.106.21.206.313.313.026.027.037.067.063.094.377.382.745.777 1.125 1.156.156.157.313.312.469.469.182.181.38.351.563.531.137.133.269.274.406.406l.063.063c.236.231.482.458.719.688.088.09.162.192.25.281l.063.063c.021.021.041.042.063.063.475.484.957.958 1.438 1.438.394.399.79.792 1.188 1.188.074.072.145.147.219.219.021.021.041.042.063.063.031.031.063.062.094.094.216.211.44.415.656.625.129.131.245.276.375.406.536.546 1.082 1.084 1.625 1.625.138.134.268.273.406.406.205.201.419.394.625.594.14.142.266.296.406.438.195.191.398.373.594.563.092.095.189.187.281.281.01.011.021.021.031.031.047.047.078.109.125.156.021.021.041.042.063.063.588.599 1.186 1.19 1.781 1.781.062.063.125.125.188.188.184.182.378.35.563.531.16.162.308.338.469.5.174.17.356.33.531.5.191.194.37.401.563.594.206.201.418.394.625.594.036.037.089.057.125.094.01.011.021.021.031.031.027.026.036.068.063.094.037.037.057.088.094.125.174.17.357.331.531.5.031.032.063.062.094.094.14.141.266.296.406.438.164.16.335.309.5.469.082.084.168.166.25.25.098.099.183.214.281.313.153.149.315.289.469.438.19.193.371.402.563.594.152.148.316.29.469.438.183.185.348.378.531.563.153.149.315.289.469.438.192.195.37.4.563.594.144.14.293.267.438.406.201.204.392.422.594.625.132.129.274.246.406.375.091.096.19.186.281.281.109.11.203.234.313.344.142.138.295.268.438.406.082.084.168.166.25.25.119.12.224.255.344.375.132.129.273.246.406.375.212.215.412.442.625.656.121.118.254.226.375.344.222.226.433.463.656.688.12.117.254.227.375.344.213.217.41.441.625.656.121.118.253.226.375.344.264.268.516.546.781.813l.031.031c.059.057.129.099.188.156.231.235.455.485.688.719.443.438.896.879 1.344 1.313.235.239.451.481.688.719.101.098.212.184.313.281.275.279.536.566.813.844l.031.031c.048.046.108.079.156.125.253.257.496.526.75.781.423.419.853.835 1.281 1.25.253.257.495.525.75.781.08.077.17.141.25.219.262.266.518.548.781.813.411.406.835.816 1.25 1.219.269.274.542.54.813.813.2.194.393.4.594.594.073.072.145.147.219.219.295.297.578.611.875.906.114.115.23.229.344.344.392.387.792.773 1.188 1.156.288.294.585.583.875.875.053.051.103.105.156.156.62.632 1.244 1.252 1.875 1.875.34.348.688.686 1.031 1.031.158.153.311.316.469.469.005.005.026-.005.031 0 .062.06.126.127.188.188.118.12.225.256.344.375.689.704 1.392 1.401 2.094 2.094.321.328.645.644.969.969.132.128.274.248.406.375.057.059.1.129.156.188.155.157.313.313.469.469.331.339.666.664 1 1 .005.005.026-.005.031 0 .221.222.434.466.656.688.233.227.453.461.688.688.224.22.462.438.688.656.005.005-.005.026 0 .031.33.326.667.646 1 .969.016.016.016.047.031.063.323.318.643.622.969.938.016.016.015.047.031.063.331.326.666.645 1 .969.016.016.016.047.031.063.318.314.648.627.969.938.026.026.036.068.063.094.31.306.624.603.938.906l.094.094c.321.317.613.655.938.969l.063.063c.133.129.273.247.406.375.178.175.352.357.531.531.036.037.057.088.094.125.298.294.605.583.906.875.047.047.078.109.125.156.291.286.582.56.875.844l.156.156c.294.289.579.588.875.875.239.241.478.479.719.719.471.477.96.935 1.438 1.406.01.011.021.021.031.031.006.006-.006.025 0 .031.053.052.104.105.156.156.475.486.955.958 1.438 1.438.341.345.687.689 1.031 1.031.465.471.935.941 1.406 1.406l.063.063c.058.057.13.1.188.156.469.48.93.964 1.406 1.438.466.473.933.94 1.406 1.406l.063.063c.168.165.331.336.5.5.207.21.417.416.625.625.493.505.998 1 1.5 1.5.456.463.912.919 1.375 1.375l.094.094c.169.166.33.335.5.5.237.241.48.48.719.719.463.474.935.939 1.406 1.406.455.462.913.92 1.375 1.375.031.031.063.062.094.094.168.165.331.336.5.5.207.21.417.416.625.625.603.618 1.228 1.206 1.844 1.813.037.037.057.088.094.125.169.166.33.335.5.5.336.342.691.662 1.031 1 .252.257.496.527.75.781.555.568 1.121 1.13 1.688 1.688l.125.125c.163.16.336.31.5.469.341.347.686.688 1.031 1.031.347.353.68.714 1.031 1.063.361.368.727.731 1.094 1.094.341.346.686.689 1.031 1.031.341.346.686.689 1.031 1.031.335.34.692.664 1.031 1 .311.316.623.625.938.938.367.374.721.756 1.094 1.125.471.478.958.936 1.438 1.406l.031.031c.063.062.124.126.188.188.466.479.931.967 1.406 1.438.314.32.65.622.969.938.487.496.972.982 1.469 1.469l.063.063c.069.068.149.12.219.188.438.45.866.902 1.313 1.344.485.494.973.984 1.469 1.469l.063.063c.169.165.33.336.5.5.248.253.5.5.75.75.457.47.908.945 1.375 1.406.44.448.894.872 1.344 1.313l.125.125c.165.161.334.309.5.469.252.257.495.527.75.781.554.57 1.118 1.13 1.688 1.688l.125.125c.163.159.335.311.5.469.221.226.433.464.656.688.487.503.969 1.01 1.469 1.5.439.447.895.874 1.344 1.313l.125.125c.127.124.247.252.375.375.298.306.604.605.906.906.532.548 1.078 1.091 1.625 1.625l.156.156c.126.123.248.253.375.375.371.381.746.75 1.125 1.125.232.237.484.453.719.688.568.588 1.133 1.178 1.719 1.75l.156.156c.154.149.314.29.469.438.309.317.623.626.938.938.364.374.723.758 1.094 1.125.305.312.627.599.938.906.39.402.788.794 1.188 1.188.377.386.74.778 1.125 1.156.299.305.602.606.906.906.37.378.747.754 1.125 1.125.303.309.629.602.938.906.48.493.974.99 1.469 1.469l.063.063c.084.081.165.169.25.25.42.436.849.856 1.281 1.281.375.385.741.78 1.125 1.156.442.452.919.872 1.375 1.313.02.021.042.041.063.063.006.006-.006.025 0 .031.032.031.062.063.094.094.503.525 1.01 1.053 1.531 1.563.429.439.87.854 1.313 1.281.041.042.083.083.125.125.209.201.413.396.625.594.139.143.265.296.406.438.091.087.19.164.281.25.08.087.17.163.25.25.236.243.483.476.719.719 34.7-16.256 64.44-41.34 86.31-72.37-.053-.051-.102-.105-.156-.156-.31-.325-.613-.632-.938-.938-.308-.323-.646-.634-.969-.938-.309-.323-.614-.634-.938-.938-.306-.32-.617-.637-.938-.938-.312-.327-.641-.632-.969-.938-.308-.323-.613-.636-.938-.938-.31-.325-.611-.635-.938-.938-.22-.23-.459-.437-.688-.656-.387-.421-.803-.835-1.219-1.219-.31-.325-.61-.637-.938-.938-.301-.316-.619-.614-.938-.906-.318-.334-.631-.661-.969-.969-.284-.298-.575-.568-.875-.844-.299-.318-.588-.614-.906-.906-.3-.321-.617-.612-.938-.906-.351-.377-.683-.754-1.063-1.094-.25-.262-.517-.508-.781-.75-.359-.388-.735-.748-1.125-1.094-.305-.319-.611-.649-.938-.938-.137-.144-.295-.269-.438-.406-.087-.091-.163-.191-.25-.281-.033-.03-.061-.064-.094-.094-.156-.169-.305-.34-.469-.5-.278-.292-.562-.588-.844-.875-.092-.096-.189-.186-.281-.281-.282-.301-.558-.609-.844-.906-.445-.475-.889-.942-1.344-1.406-.056-.059-.1-.129-.156-.188-.493-.528-.996-1.048-1.5-1.563-.041-.043-.084-.082-.125-.125-.338-.363-.656-.737-1-1.094-.444-.473-.891-.944-1.344-1.406-.271-.284-.538-.563-.813-.844-.102-.106-.211-.207-.313-.313-.449-.478-.886-.97-1.344-1.438-.112-.118-.231-.227-.344-.344-.44-.468-.864-.948-1.313-1.406-.272-.285-.538-.563-.813-.844-.02-.021-.042-.041-.063-.063-.528-.566-1.054-1.136-1.594-1.688-.026-.027-.037-.067-.063-.094-.326-.35-.669-.687-1-1.031-.464-.495-.933-.985-1.406-1.469-.02-.021-.042-.041-.063-.063-.527-.565-1.055-1.137-1.594-1.688-.015-.016-.016-.046-.031-.063-.307-.329-.627-.645-.938-.969-.494-.528-.996-1.046-1.5-1.563-.01-.011-.021-.021-.031-.031-.332-.356-.663-.712-1-1.063-.48-.512-.948-1.031-1.438-1.531-.051-.054-.105-.103-.156-.156-.5-.534-.99-1.071-1.5-1.594-.271-.284-.539-.563-.813-.844-.041-.043-.084-.083-.125-.125-.086-.092-.164-.19-.25-.281-.835-1.037-1.679-2.067-2.531-3.156-.197-.151-.369-.291-.563-.438-.07-.089-.149-.16-.219-.25-.034-.136-.121-.188-.219-.313-.229-.176-.432-.33-.656-.5-.079-.175-.188-.301-.344-.5-.173-.133-.329-.245-.5-.375-.119-.202-.301-.371-.5-.625-.167-.128-.304-.25-.469-.375-.14-.184-.305-.345-.5-.594-.148-.113-.292-.202-.438-.313-.166-.209-.341-.405-.563-.688-.16-.123-.311-.224-.469-.344-.17-.201-.322-.389-.531-.656-.154-.118-.286-.229-.438-.344-.179-.209-.349-.383-.563-.656-.142-.109-.266-.206-.406-.313-.189-.219-.372-.405-.594-.688-.142-.109-.266-.206-.406-.313-.193-.224-.372-.405-.594-.688-.15-.115-.29-.2-.438-.313-.187-.218-.321-.387-.531-.656-.152-.117-.288-.23-.438-.344-.193-.225-.348-.382-.563-.656-.141-.109-.267-.206-.406-.313-.202-.236-.37-.402-.594-.688-.153-.117-.287-.229-.438-.344-.193-.227-.352-.387-.563-.656-.154-.118-.286-.228-.438-.344-.194-.229-.352-.387-.563-.656-.153-.118-.286-.229-.438-.344-.182-.216-.368-.408-.563-.656-.143-.11-.265-.205-.406-.313-.185-.22-.366-.405-.563-.656-.148-.114-.292-.202-.438-.313-.192-.229-.358-.426-.563-.688-.159-.122-.312-.225-.469-.344-.183-.22-.338-.409-.531-.656-.149-.114-.291-.201-.438-.313-.191-.229-.361-.43-.563-.688-.153-.118-.287-.229-.438-.344-.186-.224-.367-.407-.563-.656-.162-.124-.309-.223-.469-.344-.182-.22-.341-.413-.531-.656-.142-.109-.266-.206-.406-.313-.195-.236-.389-.426-.594-.688-.151-.116-.289-.2-.438-.313-.185-.225-.338-.409-.531-.656-.159-.122-.312-.225-.469-.344-.185-.226-.338-.41-.531-.656-.149-.114-.291-.201-.438-.313-.193-.235-.361-.43-.563-.688-.153-.118-.287-.229-.438-.344-.188-.23-.367-.407-.563-.656-.154-.118-.286-.229-.438-.344-.19-.232-.366-.405-.563-.656-.149-.114-.291-.201-.438-.313-.193-.236-.362-.431-.563-.688-.167-.128-.305-.25-.469-.375-.166-.204-.329-.375-.5-.594-.159-.122-.312-.225-.469-.344-.177-.218-.349-.423-.531-.656-.16-.123-.312-.224-.469-.344-.178-.22-.348-.421-.531-.656-.174-.134-.329-.246-.5-.375-.168-.208-.327-.404-.5-.625-.161-.123-.311-.224-.469-.344-.177-.218-.349-.424-.531-.656-.174-.133-.33-.246-.5-.375-.167-.207-.329-.406-.5-.625-.162-.124-.31-.223-.469-.344-.172-.213-.324-.4-.5-.625-.171-.132-.332-.247-.5-.375-.171-.212-.325-.401-.5-.625-.16-.123-.312-.225-.469-.344-.18-.222-.347-.421-.531-.656-.172-.133-.331-.247-.5-.375-.17-.21-.327-.403-.5-.625-.173-.133-.33-.246-.5-.375-.169-.21-.328-.405-.5-.625-.161-.124-.31-.223-.469-.344-.177-.22-.35-.425-.531-.656-.162-.124-.31-.223-.469-.344-.171-.212-.326-.402-.5-.625-.165-.126-.307-.252-.469-.375-.176-.218-.352-.396-.531-.625-.158-.122-.313-.226-.469-.344-.179-.222-.349-.423-.531-.656-.16-.123-.311-.224-.469-.344-.18-.223-.348-.422-.531-.656-.159-.123-.312-.225-.469-.344-.179-.223-.349-.423-.531-.656-.161-.124-.31-.224-.469-.344-.18-.224-.348-.422-.531-.656-.162-.125-.309-.223-.469-.344-.178-.221-.35-.425-.531-.656-.163-.125-.309-.223-.469-.344-.171-.213-.326-.403-.5-.625-.172-.132-.331-.247-.5-.375-.172-.214-.325-.402-.5-.625-.164-.126-.308-.253-.469-.375-.174-.217-.354-.399-.531-.625-.161-.124-.31-.224-.469-.344-.18-.224-.348-.423-.531-.656-.172-.132-.331-.247-.5-.375-.17-.212-.327-.404-.5-.625-.162-.125-.309-.223-.469-.344-.18-.224-.348-.423-.531-.656-.161-.124-.311-.224-.469-.344-.171-.214-.326-.403-.5-.625-.16-.123-.312-.225-.469-.344-.181-.227-.347-.421-.531-.656-.164-.126-.308-.253-.469-.375-.176-.22-.353-.397-.531-.625-.161-.124-.311-.224-.469-.344-.179-.224-.35-.424-.531-.656-.16-.123-.312-.225-.469-.344-.18-.225-.349-.423-.531-.656-.173-.133-.331-.247-.5-.375-.17-.213-.328-.405-.5-.625-.161-.124-.311-.224-.469-.344-.173-.216-.325-.401-.5-.625-.171-.131-.333-.249-.5-.375-.171-.215-.326-.403-.5-.625-.161-.124-.311-.224-.469-.344-.181-.227-.348-.421-.531-.656-.172-.132-.332-.248-.5-.375-.171-.215-.326-.403-.5-.625-.162-.125-.31-.224-.469-.344-.18-.226-.349-.423-.531-.656-.161-.124-.311-.224-.469-.344-.18-.225-.349-.424-.531-.656-.174-.134-.33-.246-.5-.375-.17-.213-.328-.405-.5-.625-.155-.119-.285-.229-.438-.344-.176-.221-.353-.397-.531-.625-.171-.132-.332-.248-.5-.375-.171-.215-.327-.404-.5-.625-.16-.123-.312-.225-.469-.344-.181-.227-.348-.422-.531-.656-.173-.133-.331-.247-.5-.375-.171-.215-.327-.404-.5-.625-.161-.124-.311-.225-.469-.344-.18-.226-.349-.423-.531-.656-.167-.128-.305-.252-.469-.375-.175-.219-.355-.399-.531-.625-.15-.115-.29-.201-.438-.313-.182-.229-.347-.421-.531-.656-.159-.123-.313-.226-.469-.344-.181-.227-.348-.422-.531-.656-.17-.131-.334-.25-.5-.375-.171-.215-.327-.404-.5-.625-.161-.124-.312-.225-.469-.344-.181-.227-.348-.422-.531-.656-.171-.132-.333-.249-.5-.375-.171-.215-.327-.404-.5-.625-.162-.125-.31-.224-.469-.344-.18-.227-.349-.424-.531-.656-.168-.129-.304-.251-.469-.375-.167-.21-.331-.378-.5-.594-.159-.123-.313-.226-.469-.344-.182-.229-.347-.421-.531-.656-.166-.127-.307-.253-.469-.375-.176-.221-.354-.398-.531-.625-.164-.126-.308-.254-.469-.375-.176-.222-.353-.398-.531-.625-.167-.128-.306-.252-.469-.375-.176-.221-.354-.398-.531-.625-.172-.133-.332-.248-.5-.375-.171-.215-.327-.404-.5-.625-.163-.125-.309-.224-.469-.344-.172-.217-.326-.403-.5-.625-.169-.13-.335-.25-.5-.375-.172-.217-.326-.403-.5-.625-.16-.123-.312-.226-.469-.344-.182-.229-.348-.422-.531-.656-.159-.122-.314-.227-.469-.344-.181-.228-.349-.423-.531-.656-.162-.124-.311-.225-.469-.344-.181-.228-.348-.423-.531-.656-.16-.123-.312-.226-.469-.344-.181-.228-.349-.423-.531-.656-.167-.128-.306-.253-.469-.375-.175-.221-.354-.399-.531-.625-.15-.115-.291-.202-.438-.313-.182-.229-.348-.422-.531-.656-.17-.131-.334-.25-.5-.375-.172-.217-.327-.404-.5-.625-.174-.133-.331-.248-.5-.375-.172-.217-.326-.403-.5-.625-.172-.132-.333-.249-.5-.375-.166-.21-.332-.411-.5-.625-.175-.135-.33-.247-.5-.375-.168-.212-.331-.408-.5-.625-.174-.133-.331-.248-.5-.375-.167-.211-.331-.41-.5-.625-.175-.134-.33-.247-.5-.375-.16-.202-.308-.388-.469-.594-.17-.131-.334-.251-.5-.375-.168-.212-.331-.409-.5-.625-.183-.141-.353-.273-.531-.406-.159-.201-.308-.389-.469-.594-.172-.132-.333-.25-.5-.375-.167-.211-.331-.409-.5-.625-.173-.133-.332-.249-.5-.375-.167-.21-.332-.411-.5-.625-.162-.124-.312-.226-.469-.344-.175-.221-.355-.431-.531-.656-.175-.135-.33-.248-.5-.375-.161-.203-.307-.387-.469-.594-.158-.122-.315-.228-.469-.344-.178-.225-.352-.427-.531-.656-.171-.132-.334-.25-.5-.375-.168-.212-.331-.409-.5-.625-.17-.13-.335-.252-.5-.375-.167-.211-.331-.41-.5-.625-.168-.129-.306-.222-.469-.344-.177-.223-.353-.429-.531-.656-.169-.13-.305-.221-.469-.344-.176-.222-.354-.43-.531-.656-.168-.13-.305-.221-.469-.344-.168-.213-.33-.408-.5-.625-.167-.128-.307-.223-.469-.344-.177-.223-.353-.429-.531-.656-.175-.135-.331-.217-.5-.344-.173-.219-.326-.434-.5-.656-.168-.129-.307-.222-.469-.344-.177-.224-.352-.428-.531-.656-.167-.128-.307-.223-.469-.344-.177-.223-.353-.429-.531-.656-.168-.129-.306-.222-.469-.344-.177-.224-.353-.429-.531-.656-.169-.13-.305-.221-.469-.344-.176-.223-.354-.43-.531-.656-.169-.13-.305-.222-.469-.344-.168-.213-.33-.408-.5-.625-.167-.128-.307-.223-.469-.344-.177-.224-.353-.429-.531-.656-.168-.129-.306-.222-.469-.344-.177-.224-.353-.428-.531-.656-.175-.135-.331-.218-.5-.344-.172-.218-.327-.435-.5-.656-.169-.13-.306-.222-.469-.344-.177-.224-.353-.429-.531-.656-.156-.12-.287-.2-.438-.313-.185-.234-.376-.449-.563-.688-.168-.129-.307-.223-.469-.344-.169-.214-.33-.407-.5-.625-.166-.128-.309-.224-.469-.344-.178-.225-.352-.428-.531-.656-.167-.129-.308-.224-.469-.344-.177-.224-.353-.429-.531-.656-.167-.128-.308-.224-.469-.344-.176-.223-.354-.43-.531-.656-.168-.129-.307-.223-.469-.344-.176-.223-.354-.429-.531-.656-.17-.13-.306-.222-.469-.344-.176-.222-.354-.43-.531-.656-.169-.13-.306-.223-.469-.344-.169-.214-.33-.408-.5-.625-.165-.127-.31-.226-.469-.344-.179-.226-.352-.427-.531-.656-.166-.128-.309-.225-.469-.344-.178-.225-.352-.428-.531-.656-.166-.128-.309-.225-.469-.344-.177-.224-.353-.428-.531-.656-.167-.129-.308-.225-.469-.344-.176-.223-.354-.429-.531-.656-.169-.13-.307-.224-.469-.344-.177-.224-.353-.429-.531-.656-.176-.135-.332-.219-.5-.344-.172-.218-.327-.435-.5-.656-.17-.131-.306-.223-.469-.344-.168-.213-.331-.409-.5-.625-.167-.129-.308-.225-.469-.344-.177-.224-.354-.429-.531-.656-.18-.138-.329-.249-.5-.375-.169-.214-.33-.408-.5-.625-.166-.128-.31-.226-.469-.344-.177-.224-.353-.428-.531-.656-.163-.125-.313-.197-.469-.313-.182-.23-.348-.454-.531-.688-.157-.12-.288-.201-.438-.313-.185-.234-.376-.45-.563-.688-.169-.13-.307-.225-.469-.344-.169-.214-.33-.408-.5-.625-.166-.128-.31-.227-.469-.344-.177-.225-.353-.428-.531-.656-.168-.129-.309-.226-.469-.344-.177-.224-.353-.429-.531-.656-.18-.139-.329-.25-.5-.375-.168-.213-.331-.409-.5-.625-.169-.13-.308-.225-.469-.344-.177-.225-.353-.428-.531-.656-.156-.12-.289-.203-.438-.313-.186-.235-.375-.449-.563-.688-.155-.12-.289-.203-.438-.313-.178-.225-.352-.428-.531-.656-.165-.127-.312-.229-.469-.344-.178-.226-.352-.427-.531-.656-.167-.128-.311-.228-.469-.344-.178-.225-.353-.428-.531-.656-.166-.128-.311-.228-.469-.344-.177-.224-.353-.429-.531-.656-.168-.129-.31-.228-.469-.344-.176-.223-.354-.43-.531-.656-.17-.131-.308-.227-.469-.344-.176-.224-.354-.43-.531-.656-.17-.131-.309-.227-.469-.344-.169-.215-.33-.407-.5-.625-.166-.128-.312-.229-.469-.344-.178-.226-.352-.428-.531-.656-.16-.123-.318-.202-.469-.313-.183-.231-.348-.453-.531-.688-.165-.127-.314-.231-.469-.344-.178-.225-.353-.428-.531-.656-.167-.128-.312-.23-.469-.344-.177-.224-.353-.429-.531-.656-.169-.13-.31-.229-.469-.344-.176-.224-.354-.43-.531-.656-.181-.139-.331-.254-.5-.375-.167-.212-.332-.41-.5-.625-.171-.132-.309-.229-.469-.344-.169-.214-.331-.409-.5-.625-.167-.128-.313-.232-.469-.344-.177-.225-.353-.429-.531-.656-.179-.138-.334-.256-.5-.375-.168-.214-.331-.409-.5-.625-.165-.127-.315-.234-.469-.344-.178-.225-.353-.428-.531-.656-.162-.125-.318-.204-.469-.313-.182-.231-.348-.453-.531-.688-.157-.121-.291-.208-.438-.313-.186-.235-.376-.449-.563-.688-.17-.131-.312-.232-.469-.344-.168-.214-.331-.409-.5-.625-.165-.127-.316-.236-.469-.344-.178-.226-.353-.428-.531-.656-.168-.129-.315-.235-.469-.344-.177-.225-.353-.429-.531-.656-.18-.138-.336-.26-.5-.375-.168-.213-.332-.41-.5-.625-.17-.131-.313-.235-.469-.344-.177-.225-.353-.429-.531-.656-.174-.134-.311-.234-.469-.344-.177-.225-.353-.429-.531-.656-.163-.125-.32-.209-.469-.313-.174-.221-.325-.433-.5-.656-.162-.125-.321-.241-.469-.344-.178-.225-.353-.428-.531-.656-.153-.118-.298-.215-.438-.313-.186-.236-.375-.448-.563-.688-.177-.136-.341-.267-.5-.375-.168-.213-.331-.409-.5-.625-.168-.129-.318-.241-.469-.344-.177-.224-.354-.429-.531-.656-.167-.128-.319-.211-.469-.313-.181-.23-.349-.455-.531-.688-.185-.142-.337-.268-.5-.375-.168-.213-.331-.409-.5-.625-.177-.136-.313-.241-.469-.344-.169-.215-.33-.408-.5-.625-.169-.13-.351-.246-.5-.344-.174-.22-.326-.433-.5-.656-.161-.124-.327-.251-.469-.344-.177-.225-.353-.429-.531-.656-.168-.129-.323-.25-.469-.344-.177-.225-.353-.428-.531-.656-.159-.122-.299-.223-.438-.313-.186-.236-.375-.449-.563-.688-.157-.121-.27-.195-.406-.281-.195-.247-.398-.469-.594-.719-.161-.124-.268-.196-.406-.281-.187-.237-.375-.448-.563-.688-.159-.122-.302-.199-.438-.281-.192-.243-.37-.472-.563-.719-.168-.129-.297-.231-.438-.313-.187-.237-.375-.447-.563-.688-.161-.124-.303-.205-.438-.281-.192-.243-.37-.473-.563-.719-.193-.148-.345-.269-.5-.344-.173-.219-.326-.434-.5-.656-.177-.136-.327-.244-.469-.313-.182-.231-.348-.454-.531-.688-.174-.134-.299-.22-.438-.281-.183-.232-.347-.452-.531-.688-.145-.111-.29-.194-.406-.25-.201-.255-.392-.492-.594-.75-.152-.117-.287-.171-.406-.219-.206-.262-.386-.516-.594-.781-.139-.107-.266-.147-.375-.188-.215-.272-.409-.537-.625-.813-.138-.106-.237-.158-.344-.188-.219-.278-.436-.531-.656-.813-.121-.093-.22-.134-.313-.156-.228-.289-.458-.551-.688-.844-.116-.089-.192-.119-.281-.125-.23-.291-.456-.549-.688-.844-.096-.074-.175-.127-.25-.125-.043-.033-.082-.061-.125-.094-.211-.267-.413-.511-.625-.781-.064-.049-.106-.095-.156-.094-.098-.075-.184-.145-.281-.219-.187-.237-.375-.448-.563-.688-.032-.025-.069-.032-.094-.031-.118-.091-.227-.161-.344-.25-.191-.243-.37-.473-.563-.719-6.461-4.966-11.11-7.541-16.12-7.375m107.31 82.25h.031z" fill-opacity=".235"/><g fill-rule="evenodd"><path d="m256 1c-140.83 0-255 114.17-255 255s114.17 255 255 255 255-114.17 255-255-114.17-255-255-255m8.827 44.931c120.9 0 218.9 98 218.9 218.9s-98 218.9-218.9 218.9-218.93-98-218.93-218.9 98.03-218.9 218.93-218.9" fill-opacity=".067"/><g fill-opacity=".129"><path d="m256 4.433c-138.94 0-251.57 112.63-251.57 251.57s112.63 251.57 251.57 251.57 251.57-112.63 251.57-251.57-112.63-251.57-251.57-251.57m5.885 38.556c120.9 0 218.9 98 218.9 218.9s-98 218.9-218.9 218.9-218.93-98-218.93-218.9 98.03-218.9 218.93-218.9"/><path d="m256 8.356c-136.77 0-247.64 110.87-247.64 247.64s110.87 247.64 247.64 247.64 247.64-110.87 247.64-247.64-110.87-247.64-247.64-247.64m2.942 31.691c120.9 0 218.9 98 218.9 218.9s-98 218.9-218.9 218.9-218.93-98-218.93-218.9 98.03-218.9 218.93-218.9"/></g><path d="m253.04 7.859c-135.42 0-245.19 109.78-245.19 245.19 0 135.42 109.78 245.19 245.19 245.19 135.42 0 245.19-109.78 245.19-245.19 0-135.42-109.78-245.19-245.19-245.19zm0 26.297c120.9 0 218.9 98 218.9 218.9s-98 218.9-218.9 218.9-218.93-98-218.93-218.9 98.03-218.9 218.93-218.9z" fill="#fff" stroke="#000" stroke-opacity=".31" stroke-width="4.904"/></g><text x="729.64001" y="231.36"><tspan x="729.64001" y="231.36"/></text><text transform="scale(4.0128 .2492)" x="378.91" y="579.25"/><text x="1310.91" y="151.36"><tspan x="1310.91" y="151.36"/></text><text transform="scale(4.0128 .2492)" x="523.76001" y="258.22"/><text x="239.33" y="-29.900999"><tspan x="239.33" y="-29.900999"/></text><text transform="scale(4.0128 .2492)" x="256.72" y="-469.14001"/><text x="1337.38" y="-246.37"><tspan x="1337.38" y="-246.37"/></text><text transform="scale(4.0128 .2492)" x="530.35999" y="-1337.8101"/><text x="1918.65" y="-326.38"><tspan x="1918.65" y="-326.38"/></text><text transform="scale(4.0128 .2492)" x="675.21002" y="-1658.85"/><text x="1529.53" y="-798.78003"><tspan x="1529.53" y="-798.78003"/></text><text transform="scale(4.0128 .2492)" x="578.23999" y="-3554.51"/><text x="2110.79" y="-878.78003"><tspan x="2110.79" y="-878.78003"/></text><text transform="scale(4.0128 .2492)" x="723.09003" y="-3875.54"/><text x="277.98999" y="535.94"><tspan x="277.98999" y="535.94"/></text><g stroke="#fff"><path d="m120.62 165.93c1.257 12.481 6.571 28.16 14.938 45.41 14.76 30.445 36.455 68.33 67.29 97.1 51.05 47.634 110.04 81.994 141.05 83.17 18.251-5.757 35.02-20.19 42.605-36.15 4.735-6.102 6.672-13.261 2.813-18.778-11.619-16.618-28.562-29.06-43.956-37.01-12.845-6.629-16.953-13.483-31.29-10.287-12.159 8.558-15.836 13.13-28.26 26.411-42.878-6.613-91.17-62.816-86.69-90.13 4.851-6.552 9.402-10.335 13.372-13.62 6.068-5.02 10.772-8.871 13.1-19.647-6.804-27.402-21.834-38.12-41.39-63.11-11.486-8.828-17.218-10.123-29.553-1.838-12.222 11.196-27.342 19.405-32.497 34.11z" fill="#fff" stroke-width="1.054"/><g fill="none" stroke-linecap="round" stroke-linejoin="round" stroke-width="13" transform="matrix(1.0543 0 0 1.0543 577.9 70.72)"><path d="m-284.05 115.23c20.853 1.624 35.29 11.214 36.822 36.822"/><path d="m-293.57 83.16c46.6 4.818 74.12 28.431 76.65 76.65"/><path d="m-303.09 53.1c76.58 4.695 112.42 47.44 118.23 118.23"/></g></g></svg>