<?xml version="1.0" encoding="iso-8859-1"?>
<!-- Uploaded to: SVG Repo, www.svgrepo.com, Generator: SVG Repo Mixer Tools -->
<svg fill="#000000" height="800px" width="800px" version="1.1" id="Layer_1" xmlns="http://www.w3.org/2000/svg" xmlns:xlink="http://www.w3.org/1999/xlink" 
	 viewBox="0 0 512 512" xml:space="preserve">
<g>
	<g>
		<path d="M478.539,430.208h-85.51V407.9h85.51c12.593,0,22.838-10.245,22.838-22.838s-10.245-22.838-22.838-22.838h-85.51v-28.149
			c0-4.4-3.566-7.967-7.967-7.967h-38.241c-4.401,0-7.967,3.567-7.967,7.967s3.566,7.967,7.967,7.967h30.274v154.025h-118.44
			c-21.965,0-39.834-17.869-39.834-39.834v-74.357c0-21.965,17.869-39.834,39.834-39.834h45.676c4.401,0,7.967-3.567,7.967-7.967
			s-3.566-7.967-7.967-7.967h-45.676c-30.75,0-55.768,25.017-55.768,55.768v13.278H82.324c-13.178,0-23.9-10.721-23.9-23.9V265.029
			c0-13.179,10.722-23.9,23.9-23.9h335.668c39.537,0,71.701-32.165,71.701-71.701V71.701C489.693,32.165,457.528,0,417.992,0H38.772
			c-13.178,0-23.9,10.721-23.9,23.9c0,13.179,10.722,23.9,23.9,23.9h61.61c4.401,0,7.967-3.567,7.967-7.967
			c0-4.4-3.566-7.967-7.967-7.967h-61.61c-4.393,0-7.967-3.573-7.967-7.967c0-4.393,3.573-7.967,7.967-7.967h379.22
			c30.75,0,55.768,25.017,55.768,55.768v97.726c0,30.751-25.018,55.768-55.768,55.768H82.324c-21.965,0-39.834,17.869-39.834,39.834
			v106.224c0,21.965,17.869,39.834,39.834,39.834h120.564v15.934H82.324c-30.75,0-55.768-25.017-55.768-55.768V265.029
			c0-30.751,25.018-55.768,55.768-55.768h335.668c21.965,0,39.834-17.869,39.834-39.834V71.701
			c0-21.965-17.869-39.834-39.834-39.834h-275.12c-4.401,0-7.967,3.567-7.967,7.967c0,4.4,3.566,7.967,7.967,7.967h275.12
			c13.178,0,23.9,10.721,23.9,23.9v97.726c0,13.179-10.722,23.9-23.9,23.9H82.324c-39.537,0-71.701,32.165-71.701,71.701v106.224
			c0,39.537,32.165,71.701,71.701,71.701h120.564v13.278c0,30.751,25.018,55.768,55.768,55.768h126.407
			c4.401,0,7.967-3.567,7.967-7.967v-28.149h85.51c12.593,0,22.838-10.245,22.838-22.838
			C501.378,440.453,491.132,430.208,478.539,430.208z M393.029,378.158h85.51c3.807,0,6.905,3.097,6.905,6.905
			s-3.097,6.905-6.905,6.905h-85.51V378.158z M478.539,459.95h-85.51v-13.809h85.51c3.807,0,6.905,3.097,6.905,6.905
			C485.444,456.853,482.347,459.95,478.539,459.95z"/>
	</g>
</g>
<g>
	<g>
		<path d="M351.069,398.34h-25.686l10.002-36.676c0.934-3.417-0.502-7.039-3.522-8.89c-3.019-1.85-6.9-1.483-9.521,0.899
			l-70.108,63.734c-5.278,4.798-1.765,13.862,5.359,13.862h23.887l-10.389,43.286c-0.752,3.137,0.514,6.503,3.15,8.364
			c3.096,2.186,7.426,1.852,10.146-0.788l72.232-70.108C361.65,407.14,358.066,398.34,351.069,398.34z M297.842,418.371
			c-1.51-1.916-3.817-3.034-6.257-3.034H278.2l34.616-31.469l-5.548,20.344c-0.653,2.395-0.153,4.958,1.354,6.931
			c1.507,1.974,3.847,3.131,6.331,3.131h16.469l-38.43,37.3l6.339-26.412C299.901,422.79,299.352,420.287,297.842,418.371z"/>
	</g>
</g>
</svg>